<?xml version="1.0" standalone="no"?>
<!DOCTYPE svg PUBLIC "-//W3C//DTD SVG 1.1//EN" "http://www.w3.org/Graphics/SVG/1.1/DTD/svg11.dtd" >
<svg xmlns="http://www.w3.org/2000/svg">
<metadata></metadata>
<defs>
<font id="susaregularregular" horiz-adv-x="1126" >
<font-face units-per-em="2048" ascent="1536" descent="-512" />
<missing-glyph horiz-adv-x="520" />
<glyph horiz-adv-x="2048" />
<glyph horiz-adv-x="2048" />
<glyph unicode="&#xd;" horiz-adv-x="2048" />
<glyph unicode=" "  horiz-adv-x="520" />
<glyph unicode="&#x09;" horiz-adv-x="520" />
<glyph unicode="&#xa0;" horiz-adv-x="520" />
<glyph unicode="!" horiz-adv-x="757" d="M283 90q0 72 42.5 113t102.5 41q54 0 86.5 -31.5t32.5 -85.5q0 -61 -40 -104t-108 -43q-51 0 -83.5 30.5t-32.5 79.5zM418 657q0 154 65 379.5t127 345.5q50 95 138 95q23 0 43.5 -6t31 -12t21.5 -15l12 -8q-95 -172 -187.5 -449t-131.5 -498q-119 0 -119 168z" />
<glyph unicode="&#x22;" horiz-adv-x="999" d="M377 1270q0 66 12.5 116.5t50 87.5t97.5 37q15 0 28.5 -3t20.5 -6l6 -3q-10 -100 -10 -215q0 -93 3 -176t6 -120l3 -36q-24 -10 -49 -10q-79 0 -123.5 83t-44.5 245zM764 1270q0 66 12.5 116.5t50 87.5t97.5 37q14 0 27 -3t19 -6l7 -3q-8 -100 -8 -215q0 -93 2.5 -176 t4.5 -120l3 -36q-24 -10 -49 -10q-78 0 -122 83t-44 245z" />
<glyph unicode="#" horiz-adv-x="1228" d="M123 401q0 84 233 111q10 58 41 195q-58 -1 -113.5 -3.5t-81.5 -5.5l-26 -2q-12 14 -12 39q0 91 268 115q50 196 96.5 269t124.5 73q25 0 49 -7t35 -15l11 -7q-60 -121 -119 -303q144 0 223 -6q63 179 111 244t116 65q28 0 53.5 -8.5t37.5 -16.5l12 -8 q-76 -133 -142 -301q197 -41 197 -122q0 -22 -5 -38t-10 -21l-5 -5q-85 21 -232 37l-59 -172q270 -38 270 -135q0 -22 -5 -38t-10 -21l-5 -5q-107 25 -297 45q-71 -238 -113 -434q-50 3 -77 36t-27 91q0 90 51 320q-99 6 -211 6q-51 -225 -80 -439q-63 1 -91 44.5t-28 132.5 q0 81 29 262q-53 -1 -102 -3.5t-72 -5.5l-23 -2q-12 14 -12 39zM537 526q180 0 215 -2l49 172q-86 8 -217 11q-32 -120 -47 -181z" />
<glyph unicode="$" d="M94 254q0 66 34.5 111t88.5 45q14 0 26 -3t17 -5l6 -3q-23 -122 47 -198t205 -76q118 0 184 48t66 130q0 44 -24 77t-63 51.5t-89 36.5t-102.5 32t-102.5 39t-89 56t-63 84.5t-24 123.5q0 146 112.5 247.5t292.5 123.5q1 55 14 112t37.5 109t66 85t93.5 33q14 0 27 -2.5 t19 -4.5l6 -3q-64 -179 -95 -332q130 -17 209.5 -84t79.5 -163q0 -93 -58.5 -130.5t-137.5 -25.5q16 31 16 88q0 76 -59 119t-150 43q-112 0 -180 -55t-68 -140q0 -50 32 -86.5t83 -57.5t112.5 -39.5t123 -40.5t112.5 -52t83 -82t32 -123q0 -153 -116.5 -254.5 t-305.5 -122.5q-2 -56 -15 -113t-37.5 -108.5t-66 -84t-92.5 -32.5q-14 0 -26.5 2.5t-18.5 5.5l-6 3q56 154 92 325q-153 20 -240.5 100t-87.5 191z" />
<glyph unicode="%" horiz-adv-x="1468" d="M76 37q284 161 625 490t542 628q35 -4 55.5 -27t20.5 -51q0 -70 -111.5 -228t-264 -323.5t-312 -315t-254.5 -210.5q-91 -57 -168 -57q-39 0 -77.5 26t-55.5 68zM170 786q0 92 29.5 168t78.5 123t109.5 72t124.5 25q113 0 180.5 -74t67.5 -195q0 -99 -41 -184t-119 -138 t-176 -53q-114 0 -184 72t-70 184zM330 815q0 -133 112 -133q71 0 115.5 54.5t44.5 142.5q0 141 -110 141q-64 0 -113 -55t-49 -150zM854 156q0 113 48 196t119.5 121.5t154.5 38.5q106 0 168.5 -67.5t62.5 -180.5q0 -140 -88.5 -243t-226.5 -103q-106 0 -172 67t-66 171z M1004 182q0 -123 104 -123q67 0 108 50.5t41 130.5q0 63 -23.5 96t-78.5 33q-59 0 -105 -50t-46 -137z" />
<glyph unicode="&#x26;" horiz-adv-x="1880" d="M248 274q0 66 21 121t55 93.5t85.5 70t104.5 51.5t119 37q-6 42 -6 96q0 101 28.5 190t83.5 159.5t143 111.5t199 41q154 0 237 -81t83 -193q0 -59 -18.5 -109t-41.5 -85t-72.5 -67.5t-83.5 -50.5t-104 -40t-103 -30.5t-111 -26.5q-14 -3 -21 -5q54 -202 223 -330 q147 83 256 216.5t164 291.5q34 0 57 -24.5t23 -61.5q0 -108 -94 -250.5t-252 -253.5q82 -26 190 -26q171 0 270 65q21 -28 21 -47q0 -73 -101.5 -125.5t-250.5 -52.5q-179 0 -328 76q-186 -76 -387 -76q-181 0 -285 86t-104 229zM449 293q0 -87 60.5 -131.5t156.5 -44.5 q102 0 211 33q-168 161 -218 360q-103 -31 -156.5 -82.5t-53.5 -134.5zM817 772q0 -52 6 -82q55 12 85.5 19.5t78 21.5t74.5 26.5t60.5 32.5t51 41.5t29.5 51.5t12 65q0 152 -159 152q-78 0 -133.5 -49t-80 -121.5t-24.5 -157.5z" />
<glyph unicode="'" horiz-adv-x="612" d="M377 1270q0 66 12.5 116.5t50 87.5t97.5 37q15 0 28.5 -3t20.5 -6l6 -3q-10 -100 -10 -215q0 -93 3 -176t6 -120l3 -36q-24 -10 -49 -10q-79 0 -123.5 83t-44.5 245z" />
<glyph unicode="(" horiz-adv-x="819" d="M328 412q0 208 73.5 412.5t187.5 354t257 242t278 92.5q38 0 61 -16.5t23 -46.5q0 -14 -3.5 -24.5t-6.5 -14.5l-4 -4q-95 -15 -190.5 -71t-180 -148.5t-150 -209.5t-103.5 -264.5t-38 -303.5q0 -414 263 -555q-5 -27 -30 -44.5t-65 -17.5q-103 0 -188.5 80.5t-134.5 223 t-49 315.5z" />
<glyph unicode=")" horiz-adv-x="819" d="M-111 -143q0 13 3.5 23t7.5 14l4 4q119 19 236 103t211.5 212.5t153 308.5t58.5 373q0 418 -260 557q5 26 29 43.5t63 17.5q103 0 189 -80.5t136 -223t50 -316.5q0 -166 -47.5 -332.5t-128.5 -302t-182.5 -242t-217 -165t-223.5 -58.5q-36 0 -59 17t-23 47z" />
<glyph unicode="*" d="M281 846q104 66 276 205q-96 65 -144 122t-48 121q0 31 12.5 54t28.5 34q107 -93 251 -180q102 299 244 299q13 0 24.5 -3t16.5 -6l6 -3q-66 -143 -114 -305q327 14 327 -137l-6 -29q-47 4 -84 4q-97 0 -225 -10q26 -88 26 -172q0 -66 -31 -125.5t-79 -59.5 q-42 188 -78 283q-177 -150 -293 -150q-39 0 -66.5 14.5t-36.5 28t-7 15.5z" />
<glyph unicode="+" d="M139 592q0 23 5.5 43t10.5 29l5 8q94 -37 233 -37h78q24 117 60 207t93.5 149.5t125.5 59.5q16 0 30.5 -4.5t21.5 -9.5l7 -5q-64 -161 -115 -381q96 12 181 30t122 30l37 12q21 -18 21 -55q0 -58 -59.5 -104.5t-145.5 -73.5t-197 -44q-33 -160 -55 -344q-20 -16 -57 -16 q-57 0 -80 56.5t-23 168.5q0 89 6 119q-153 1 -229 45.5t-76 116.5z" />
<glyph unicode="," horiz-adv-x="620" d="M94 -223q9 4 24.5 11t55 34t69.5 58.5t54.5 84t24.5 111.5q0 72 -64 110q12 31 48 57.5t81 26.5q64 0 103.5 -40t39.5 -113q0 -69 -25 -134t-64.5 -112.5t-86.5 -83.5t-93 -54t-83 -18q-33 0 -54 15.5t-26 31.5z" />
<glyph unicode="-" horiz-adv-x="1011" d="M276 592q0 13 3 26.5t7 21.5l3 7q90 -20 188 -20q292 0 459 118q10 -5 19.5 -25t9.5 -44q0 -102 -117 -173t-326 -71q-118 0 -182 42.5t-64 117.5z" />
<glyph unicode="." horiz-adv-x="620" d="M250 90q0 72 42.5 113t102.5 41q54 0 86.5 -31.5t32.5 -85.5q0 -62 -39.5 -106t-107.5 -44q-51 0 -84 32t-33 81z" />
<glyph unicode="/" horiz-adv-x="813" d="M133 -25q0 93 126 399t284 613.5t243 409.5q74 88 160 88q22 0 41.5 -4t32 -11t20.5 -13t14 -12.5t7 -6.5q-195 -264 -437.5 -736.5t-392.5 -838.5q-46 3 -72 32t-26 80z" />
<glyph unicode="0" d="M86 379q0 116 32 233.5t92.5 219t139.5 181t180.5 125.5t208.5 46q90 0 144.5 -44.5t54.5 -115.5l-2 -14q68 -15 109.5 -93t41.5 -190q0 -140 -49.5 -277.5t-133.5 -245t-204.5 -174.5t-253.5 -67q-166 0 -263 111t-97 305zM299 381q0 -109 49.5 -171.5t136.5 -62.5 q97 0 188.5 74.5t150.5 209t59 290.5q0 57 -13 100t-33.5 65t-37 33t-31.5 15q10 23 30 40.5t31 22.5q-30 15 -75 15q-119 0 -225 -91t-168 -236.5t-62 -303.5z" />
<glyph unicode="1" d="M76 90q0 70 73 116t207 46q30 0 99 -6q11 115 66 272t130 311q-115 -41 -213 -41q-100 0 -152.5 41.5t-52.5 114.5q0 9 1.5 18.5t3.5 15.5l2 5q49 -12 112 -12q171 0 333.5 55t272.5 170q17 -6 35.5 -34t18.5 -62q0 -86 -49 -164q-90 -145 -181 -337t-153 -378 q154 -32 257 -90.5t103 -130.5q0 -17 -4.5 -31.5t-8.5 -20.5l-5 -5q-11 5 -31 12.5t-86.5 27t-137.5 34.5t-179 27.5t-215 12.5q-62 0 -118 -9.5t-81 -18.5l-25 -9q-22 23 -22 70z" />
<glyph unicode="2" d="M70 94q0 67 27.5 123.5t74.5 97.5t107.5 77t127.5 66t133.5 59t127 61t107.5 68t74.5 84.5t27.5 105.5q0 73 -56.5 118t-156.5 45q-129 0 -212.5 -80.5t-89.5 -205.5q-12 -13 -45 -13q-40 0 -66 30.5t-26 80.5q0 152 133 260.5t330 108.5q191 0 304.5 -87t113.5 -241 q0 -86 -29.5 -154.5t-81 -115t-115 -83t-137 -66.5t-141 -57t-134 -63t-108.5 -77q140 -6 274 -35.5t229 -84t95 -120.5q0 -17 -4 -31.5t-8 -20.5l-4 -5q-3 1 -28.5 9t-46.5 14.5t-61 17t-76.5 18.5t-89 17.5t-103 15.5t-112.5 10t-124 4q-54 0 -107 -7.5t-80 -14.5l-26 -7 q-18 37 -18 78z" />
<glyph unicode="3" d="M61 238q0 65 39.5 106t100.5 41q14 0 24.5 -2t14.5 -4l4 -2q-6 -26 -6 -51q0 -98 69.5 -152.5t204.5 -54.5q121 0 200 59t79 152q0 84 -65 125t-171 41q-24 0 -48 -5t-36 -9l-12 -5q-15 14 -15 41q0 58 44 91.5t130 33.5q124 0 197.5 52t73.5 151q0 74 -56.5 117 t-158.5 43q-129 0 -217.5 -83.5t-96.5 -207.5q-12 -13 -43 -13q-40 0 -66 30.5t-26 80.5q0 151 134.5 259t332.5 108q190 0 303 -82.5t113 -231.5q0 -65 -23.5 -120t-57 -86.5t-66.5 -54t-57 -30.5l-23 -8q6 -2 15 -7t33 -23.5t42.5 -41t33.5 -60.5t15 -81 q0 -174 -151 -285.5t-398 -111.5q-193 0 -301.5 79t-108.5 202z" />
<glyph unicode="4" d="M70 334q0 62 28 126t75 122.5t104.5 118.5t120 123.5t118 126t102 137t68.5 147.5q66 0 104.5 -36t38.5 -107q0 -58 -40 -122t-104.5 -126t-133 -122.5t-138 -133t-106.5 -137.5q190 0 371 -35q108 257 246 448q38 0 68 -32.5t30 -75.5q1 -46 -10 -81t-35 -81 q-52 -99 -107 -232q164 -62 164 -145q0 -14 -4 -27t-8 -20l-4 -6q-74 28 -199 57q-52 -157 -80 -311q-67 2 -108.5 42t-42.5 109q-3 79 33 195q-184 23 -328 23q-50 0 -102 -5.5t-79 -10.5l-26 -5q-16 25 -16 76z" />
<glyph unicode="5" d="M49 242q0 66 38.5 108.5t98.5 42.5q14 0 24.5 -2t14.5 -4l4 -2q-6 -26 -6 -51q0 -207 264 -207q136 0 221 72t85 180q0 114 -113 160.5t-352 46.5q-42 0 -64 21.5t-22 54.5q0 70 17 155t43 161.5t43 119.5t32 76q20 -7 56.5 -17.5t145 -27.5t212.5 -17q55 0 106.5 9.5 t85 23.5t59.5 28t38 23l12 10q24 -22 24 -67q0 -96 -79 -156.5t-246 -60.5q-61 0 -133 11t-114 21l-42 11q-48 -118 -60 -220q98 0 178 -8.5t157 -32t130 -61t85 -99t32 -143.5q0 -191 -153.5 -317.5t-411.5 -126.5q-193 0 -301.5 80t-108.5 205z" />
<glyph unicode="6" d="M106 397q0 132 49 257t129 218.5t179 164.5t201.5 108t193.5 37q85 0 127.5 -31t42.5 -76l-6 -35q-170 -3 -323 -84t-250 -213q95 10 182 9.5t161 -23.5t128 -62t85 -105.5t31 -153.5q0 -89 -34.5 -170.5t-97.5 -144t-157.5 -99.5t-207.5 -37q-198 0 -315.5 119 t-117.5 321zM322 391q0 -126 65 -201t182 -75q112 0 179 69.5t67 184.5q0 245 -450 227q-43 -98 -43 -205z" />
<glyph unicode="7" d="M186 76q0 54 35 114q58 104 242.5 318t365.5 377q-129 -2 -237 8t-198 35t-140.5 72t-50.5 112q0 18 4.5 33t8.5 21l5 5q10 -4 29 -11t82 -24.5t131.5 -31t174 -24.5t212.5 -11q68 0 132.5 8.5t95.5 17.5l30 9q20 -33 20 -86q0 -43 -19.5 -83.5t-41.5 -65.5t-66 -69 l-7.5 -7.5l-6.5 -6.5q-198 -198 -376.5 -436.5t-274.5 -423.5q-65 0 -107.5 38.5t-42.5 111.5z" />
<glyph unicode="8" d="M68 258q0 120 82 202.5t192 110.5q-131 78 -131 234q0 164 138 269.5t351 105.5q192 0 291 -82.5t99 -206.5q0 -112 -78 -195.5t-183 -117.5q87 -38 136 -93t49 -143q0 -112 -71.5 -200.5t-193.5 -136.5t-270 -48q-193 0 -302 79.5t-109 221.5zM272 287q0 -86 61 -129 t165 -43q120 0 195 54.5t75 137.5q0 18 -4.5 34.5t-10.5 29.5t-18.5 25.5t-22.5 21.5t-29 18.5l-31 15.5t-36.5 14.5t-37 12.5t-40.5 12.5t-40 12.5q-22 -5 -46 -12.5t-58 -25.5t-59.5 -40.5t-44 -59t-18.5 -79.5zM436 825q0 -38 16.5 -67.5t51 -51.5t66.5 -35.5t85 -31.5 q24 6 47.5 15t59.5 28.5t62 43t45.5 61t19.5 81.5q0 75 -54 115.5t-151 40.5q-112 0 -180 -57t-68 -142z" />
<glyph unicode="9" d="M139 741q0 184 138.5 312.5t359.5 128.5q197 0 314.5 -119.5t117.5 -321.5q0 -111 -35 -217t-93.5 -190.5t-135.5 -156t-160.5 -119.5t-168 -74.5t-159.5 -26.5q-85 0 -127.5 30.5t-42.5 75.5l5 35q171 3 325 83.5t252 213.5q-95 -10 -182 -8.5t-161.5 26t-129.5 65 t-86 108t-31 155.5zM360 766q0 -246 453 -234q43 101 43 216q0 126 -65 201t-181 75q-112 0 -181 -71t-69 -187z" />
<glyph unicode=":" horiz-adv-x="757" d="M264 90q0 72 43 113t105 41q53 0 84.5 -31.5t31.5 -85.5q0 -62 -39.5 -106t-105.5 -44q-52 0 -85.5 31.5t-33.5 81.5zM422 811q0 72 42.5 113t104.5 41q53 0 85 -31.5t32 -85.5q0 -62 -39.5 -106t-105.5 -44q-52 0 -85.5 31.5t-33.5 81.5z" />
<glyph unicode=";" horiz-adv-x="757" d="M96 -223q9 4 25 11t56 34t70.5 58t55.5 83.5t25 110.5q0 77 -66 110q14 31 50.5 57.5t82.5 26.5q64 0 104 -39.5t40 -113.5q0 -85 -38.5 -163t-94.5 -128t-116 -79.5t-108 -29.5q-33 0 -54.5 15.5t-26.5 31.5zM424 811q0 72 42.5 113t102.5 41q54 0 86.5 -31.5 t32.5 -85.5q0 -62 -39.5 -106t-107.5 -44q-51 0 -84 32t-33 81z" />
<glyph unicode="&#x3c;" d="M117 596q202 21 430.5 110t447.5 242q5 -3 11.5 -8t18 -26t11.5 -46q0 -62 -78.5 -136t-191.5 -134t-236 -102q164 -70 272.5 -160.5t108.5 -171.5q0 -66 -39 -90q-367 272 -655 379q-47 19 -73.5 56.5t-26.5 86.5z" />
<glyph unicode="=" d="M104 399q0 23 5 43t11 28l5 9q90 -39 223 -39q177 0 340 22t237 44l74 22q21 -18 21 -55q0 -60 -61.5 -107.5t-159 -74.5t-204.5 -41t-212 -14q-133 0 -206 46t-73 117zM162 756q0 23 5 43t10 29l5 8q91 -39 224 -39q177 0 340 22t237 44l74 22q20 -19 20 -56 q0 -60 -61.5 -107.5t-159 -74.5t-204.5 -41t-212 -14q-133 0 -205.5 46.5t-72.5 117.5z" />
<glyph unicode="&#x3e;" d="M119 143q0 61 78.5 134.5t191.5 134t236 102.5q-163 69 -271 160.5t-108 171.5q0 64 37 92q364 -271 657 -379q100 -40 100 -145q-201 -19 -429 -109t-449 -244q-5 3 -12 8t-19 26.5t-12 47.5z" />
<glyph unicode="?" horiz-adv-x="950" d="M223 1124q0 149 130.5 253t326.5 104q188 0 305 -89.5t117 -240.5q0 -75 -20.5 -135t-55 -99t-79.5 -70t-94.5 -53t-98.5 -42.5t-93 -44t-77.5 -52t-52.5 -71.5t-17 -99q-57 0 -92 34t-35 95q0 60 27 106.5t71 76t96.5 54.5l105 50t96.5 55.5t71 78t27 110.5 q0 77 -58 118.5t-157 41.5q-133 0 -217 -79t-84 -202q-17 -12 -52 -12q-40 0 -65 30t-25 82zM258 90q0 72 42.5 113t102.5 41q54 0 86.5 -31.5t32.5 -85.5q0 -62 -39.5 -106t-107.5 -44q-51 0 -84 32t-33 81z" />
<glyph unicode="@" horiz-adv-x="1912" d="M313 420q0 141 43 278t124 252.5t190.5 204t252 138.5t298.5 50q266 0 424.5 -154.5t158.5 -422.5q0 -155 -62 -291t-170.5 -218.5t-236.5 -82.5q-40 0 -72 14t-49 34t-28.5 39.5t-15.5 33.5l-3 14q-4 -6 -10.5 -15t-31 -33t-52.5 -42.5t-73.5 -33.5t-94.5 -15 q-109 0 -169 71.5t-60 178.5q0 144 75.5 267t206.5 196t285 73q120 0 179 -41.5t59 -101.5q0 -13 -5.5 -27.5t-11.5 -23.5l-6 -8q-7 7 -22.5 17t-72.5 27t-126 17q-158 0 -270.5 -114t-112.5 -281q0 -49 26.5 -77t67.5 -28q153 0 242 310q14 54 48.5 81t78.5 27 q16 0 31 -3.5t22 -7.5l8 -3q-78 -207 -78 -299q0 -56 18.5 -77t59.5 -21q69 0 132.5 58.5t102 158t38.5 211.5q0 214 -121 323t-332 109q-151 0 -284 -62.5t-224 -166.5t-143.5 -241.5t-52.5 -285.5q0 -234 125 -357.5t360 -123.5q110 0 209 21t164.5 53t103.5 56.5t57 43.5 q31 -19 31 -53q0 -45 -43 -94t-117 -90t-188.5 -68t-243.5 -27q-136 0 -252 41.5t-202.5 119.5t-135.5 199t-49 273z" />
<glyph unicode="A" horiz-adv-x="1939" d="M41 332q0 96 39 193t106 175.5t167.5 127.5t213.5 49q86 0 129 -36t43 -96q0 -12 -2.5 -23.5t-4.5 -17.5l-3 -6q-4 4 -13 9.5t-45 14.5t-81 9q-147 0 -242.5 -114t-95.5 -271q0 -97 48 -151t132 -54q67 0 130.5 29t114.5 77.5t102.5 118.5t93 144.5t87 162.5t83 166.5 t83.5 162.5t86 145q229 344 533 344q67 0 113.5 -15.5t70 -44t33.5 -60t10 -71.5q0 -68 -34.5 -168.5t-84 -207t-99 -217t-84 -227.5t-34.5 -210q0 -67 26 -95t83 -28q81 0 167 93t132 211q29 -3 46 -25t17 -61q0 -53 -35 -122.5t-91.5 -132.5t-139 -107t-166.5 -44 q-116 0 -180.5 73.5t-64.5 188.5q0 89 22 185q-87 -42 -214 -58q-63 -8 -123 -9q-62 0 -122 9q-56 -87 -113.5 -153.5t-129 -121t-158 -83.5t-184.5 -29q-169 0 -268 96.5t-99 274.5zM1087 512q33 -4 67 -4q158 0 349 76q38 107 107.5 256.5t112 252t42.5 158.5q0 68 -77 68 q-88 0 -161.5 -60t-142.5 -167q-46 -72 -95 -168t-107 -218.5t-95 -193.5z" />
<glyph unicode="B" horiz-adv-x="1609" d="M41 408q0 71 33.5 110t89.5 39q18 0 33.5 -4t21.5 -8l6 -4q-10 -31 -10 -68q0 -224 215 -309q117 171 216 495.5t112 595.5q-110 -44 -193.5 -106t-126.5 -121q-19 2 -37 25t-18 63q0 48 38 101.5t111 103.5t168 90t219.5 64t254.5 24q218 0 342 -89.5t124 -244.5 q0 -141 -82.5 -245t-244.5 -164q125 -34 186.5 -107t61.5 -174q0 -157 -101 -280t-278 -190.5t-398 -67.5q-186 0 -330 36t-233 100t-134.5 149t-45.5 186zM627 115q97 -11 176 -11q232 0 383 97t151 256q0 54 -24 94t-67 61.5t-92 33.5q-48 12 -108 14q-26 1 -49 1 q-31 0 -56 -1q-45 -2 -95 -7q-77 -299 -219 -538zM889 817q160 0 279.5 34.5t190.5 108.5t71 181q0 190 -291 190q-125 0 -240 -28q45 -33 45 -115q0 -135 -55 -371z" />
<glyph unicode="C" horiz-adv-x="1253" d="M41 1116q0 73 37 119.5t94 46.5q18 0 34 -4.5t23 -9.5l7 -4q-19 -39 -19 -88q0 -162 113 -248q52 118 127 217.5t169.5 176.5t211.5 121t243 44q165 0 262 -79t97 -226t-92 -267t-255.5 -189t-365.5 -69q-127 0 -262 29q-21 -94 -21 -190q0 -182 93 -277.5t258 -95.5 q100 0 195 33t166.5 85t123 105t82.5 105q25 -3 40 -23t15 -55q0 -45 -32 -101.5t-93.5 -113.5t-140.5 -104.5t-182.5 -77t-210.5 -29.5q-133 0 -235 40.5t-165 113t-95 169.5t-32 215q0 138 37 271q-227 121 -227 360zM512 852q100 -25 240 -25q214 0 353.5 99t139.5 235 q0 76 -45 116t-133 40q-179 0 -326.5 -131t-228.5 -334z" />
<glyph unicode="D" horiz-adv-x="1595" d="M41 395q0 113 39.5 178.5t105.5 65.5q21 0 40 -6.5t28 -13.5l8 -7q-5 -8 -12 -22t-19 -61.5t-12 -98.5q0 -94 46 -169t145 -116q120 173 224.5 514.5t117.5 620.5q-129 -45 -224 -118.5t-145 -145.5q-20 4 -38.5 26.5t-18.5 63.5q0 49 34 103t100.5 105.5t155 93 t208 66.5t249.5 25q276 0 421.5 -137t145.5 -377q0 -127 -34.5 -255.5t-97.5 -244t-156 -216.5t-203.5 -174.5t-247 -115.5t-280.5 -42q-126 0 -227 27t-166 71.5t-108 105t-61 123.5t-18 131zM612 106q18 -1 36 -1q142 0 277 64q152 72 261 194t175 282.5t66 323.5 q0 185 -96 272.5t-284 87.5q-90 0 -156 -14q45 -33 45 -117q0 -190 -98.5 -533t-225.5 -559z" />
<glyph unicode="E" horiz-adv-x="1150" d="M51 334q0 147 93 251t257 138q-71 51 -109 121t-38 149q0 104 42 194t120.5 157.5t200 106t270.5 38.5q213 0 323.5 -79t110.5 -204q1 -95 -57 -133q-44 -29 -107 -29q-20 0 -41 3q21 31 21 88q0 90 -72.5 141t-204.5 51q-178 0 -283.5 -88t-105.5 -231q0 -119 89 -185.5 t278 -66.5q53 0 95.5 6.5t58.5 13.5l16 6q14 -14 14 -43q0 -62 -44 -99.5t-132 -37.5q-38 0 -117 8t-119 8q-167 0 -253.5 -72t-86.5 -198q0 -109 88.5 -177.5t257.5 -68.5q101 0 196 25.5t164 63.5t130 88t97.5 91t62.5 81q55 -7 55 -78q0 -47 -34.5 -105.5t-102 -118 t-156 -108.5t-208 -80t-245.5 -31q-248 0 -386 114t-138 290z" />
<glyph unicode="F" horiz-adv-x="1630" d="M41 315q0 94 35 185.5t97 165t157 118.5t205 45q86 0 130 -37t44 -100q0 -11 -2.5 -21.5t-4.5 -14.5l-2 -5q-4 4 -12.5 9.5t-42.5 14.5t-78 9q-136 0 -228.5 -102t-92.5 -252q0 -108 53.5 -164.5t146.5 -56.5q86 0 165 52.5t139 140t110.5 197.5t84.5 229t54.5 229 t26.5 204q-184 -71 -350 -71q-169 0 -258.5 68.5t-89.5 184.5q0 41 20 64q16 56 60.5 82.5t103.5 26.5h27q-21 -36 -21 -93q0 -161 201 -161q80 0 166 20t162.5 49t154 58t167.5 49t177 20q153 0 234.5 -62t81.5 -169q0 -74 -54.5 -125t-124.5 -51q-16 0 -24 2q22 33 22 94 q0 71 -44 108t-130 37q-151 0 -336 -73q50 -34 50 -115q0 -87 -37.5 -253.5t-104.5 -330.5q101 3 186.5 20t149.5 45.5t104.5 53.5t82.5 59q32 -14 32 -67q0 -78 -77 -142t-213.5 -100.5t-303.5 -36.5h-43q-50 -91 -108 -164.5t-129 -133.5t-157.5 -93t-180.5 -33 q-175 0 -278 98t-103 289z" />
<glyph unicode="G" horiz-adv-x="1431" d="M84 1065q0 64 36 95.5t73 31.5q26 -84 129 -148q119 198 306 320.5t410 122.5q164 0 256 -74t92 -203q0 -128 -87 -227t-239.5 -153t-344.5 -54h-51q-93 0 -246 33q-43 -119 -43 -250q0 -153 77.5 -231t211.5 -78q78 0 145 30t116 81.5t84.5 113t57.5 133.5 q40 123 160 123q18 0 36 -3.5t27 -7.5l8 -3q-80 -227 -141 -651q141 49 233 148t154 237q26 -3 44 -26t18 -58q0 -62 -33 -131.5t-92 -134.5t-152 -118t-203 -77q-56 -188 -205.5 -297t-353.5 -109q-125 0 -202.5 59t-77.5 146q0 84 49.5 145.5t144 98.5t214 57t276.5 27 q4 20 12.5 66.5t18 101.5t12.5 73q-6 -8 -17 -20.5t-49.5 -45t-82 -57t-113.5 -45t-144 -20.5q-196 0 -316 123.5t-120 333.5q0 164 66 331q-154 82 -154 191zM487 -274q0 -74 119 -74q106 0 198.5 67.5t125.5 159.5q-199 -8 -321 -47t-122 -106zM494 977q108 -31 251 -31 q201 0 324 69t123 179q0 61 -43.5 95t-124.5 34q-158 0 -297 -95.5t-233 -250.5z" />
<glyph unicode="H" horiz-adv-x="1740" d="M41 287q0 251 208 376.5t675 137.5q69 261 69 489q-11 6 -33.5 16t-99.5 26t-164 16q-105 0 -163 -50.5t-58 -138.5q0 -32 7.5 -57.5t15.5 -35.5l8 -9q-16 -2 -31 -2q-65 -1 -111 37q-58 46 -57 135q0 131 105.5 215t308.5 84q87 0 168.5 -12.5t137 -30t98.5 -35.5 t63 -30l20 -13q0 -301 -78 -596q149 15 275 70q26 73 49 132t55.5 133t66.5 129t73 103.5t83.5 74.5t90.5 26q56 0 85 -33t29 -96q0 -142 -103 -301t-257 -254q-137 -331 -137 -523q0 -67 26 -95t80 -28q84 0 169 92.5t134 211.5q28 -3 46 -25.5t18 -60.5q0 -53 -35 -122.5 t-92 -132.5t-139.5 -107t-167.5 -44q-114 0 -176 75t-62 191q0 162 100 467q-114 -37 -260 -49q-52 -148 -121 -269.5t-155 -215t-191.5 -145.5t-220.5 -52q-161 0 -256.5 89t-95.5 237zM240 301q0 -77 47 -121.5t125 -44.5t149 39.5t128 110.5t102.5 158t82.5 194 q-151 -6 -264.5 -26.5t-183 -50.5t-112 -72.5t-58.5 -87t-16 -99.5z" />
<glyph unicode="I" horiz-adv-x="1179" d="M43 317q0 94 33.5 184t93 161.5t151 115t199.5 43.5q89 0 137 -37.5t48 -107.5q0 -14 -3.5 -26.5t-7.5 -18.5l-4 -6q-5 4 -14.5 10.5t-45 17.5t-79.5 11q-133 0 -218 -96t-85 -242q0 -107 53.5 -159t147.5 -52q113 0 213 80.5t170 207t121 282t75.5 307.5t24.5 280 q-12 7 -36 16.5t-106 26t-174 16.5q-110 0 -172.5 -55.5t-62.5 -151.5q0 -36 8 -64.5t16 -39.5l9 -10q-16 -2 -31 -2q-66 0 -114 40q-58 48 -58 142q0 138 109.5 226.5t318.5 88.5q88 0 173 -12.5t143 -30.5t103 -35.5t67 -30.5l22 -12q0 -130 -16 -268t-50 -280t-83 -273 t-119.5 -246t-154 -200t-192 -134t-229.5 -49q-176 0 -278.5 96.5t-102.5 286.5z" />
<glyph unicode="J" horiz-adv-x="1437" d="M41 -174q0 199 140 324.5t394 125.5q74 0 146 -11.5t147.5 -28.5t118.5 -23q100 241 155.5 527t55.5 530q-16 7 -45.5 16.5t-123 26t-189.5 16.5q-77 0 -143 -20t-118.5 -60t-83 -105.5t-30.5 -150.5q0 -116 68 -183t192 -67q54 0 99.5 13t63.5 26l19 13q13 -16 13 -45 q0 -73 -75 -120.5t-179 -47.5q-102 0 -183.5 32.5t-131.5 88t-76.5 125.5t-26.5 149q0 126 47 227.5t130 167t194.5 100.5t242.5 35q106 0 208 -15.5t174 -38.5t111 -39t62 -28q0 -294 -53 -604t-158 -571q125 19 213 85.5t125 154.5q26 -3 44 -28.5t18 -62.5 q0 -119 -135 -218t-347 -109q-131 -254 -310 -400.5t-402 -146.5q-166 0 -268.5 92.5t-102.5 247.5zM250 -164q0 -79 49.5 -126.5t138.5 -47.5q261 0 471 385q-35 5 -107 20t-129.5 23t-113.5 8q-146 0 -227.5 -76t-81.5 -186z" />
<glyph unicode="K" horiz-adv-x="1851" d="M41 332q0 95 32.5 183t91.5 157.5t150 111t199 41.5q89 0 136.5 -37.5t47.5 -107.5q0 -14 -3.5 -26.5t-6.5 -18.5l-4 -6q-5 4 -14.5 10.5t-45.5 17.5t-79 11q-135 0 -217 -90.5t-82 -237.5q0 -106 54.5 -160.5t148.5 -54.5q81 0 156 42t134.5 113.5t110.5 166.5 t87.5 201.5t62.5 217.5t38.5 215.5t12.5 194.5q-11 7 -33 16.5t-100.5 26t-169.5 16.5q-107 0 -163.5 -52.5t-56.5 -145.5q0 -32 8 -57.5t16 -35.5l7 -10q-16 -2 -31 -2q-64 0 -110 38q-58 46 -58 134q0 135 103.5 222t306.5 87q88 0 171.5 -12.5t140 -30t100.5 -35 t65 -29.5l21 -13q0 -297 -80 -600q139 21 251 78.5t183 137t109 174.5t38 197q0 25 -5.5 50t-11.5 37l-5 12q33 24 78 24q65 0 104 -44t39 -120q0 -123 -50.5 -236.5t-137 -199.5t-199.5 -147.5t-240 -89.5q-4 -54 -4 -103q1 -180 53 -288q66 -138 193 -138q230 0 375 316 q28 -5 46.5 -26t18.5 -56q0 -59 -35.5 -128.5t-95.5 -132t-151 -104t-189 -41.5q-116 0 -201.5 49t-134.5 138q-50 88 -70 204q-15 86 -15 186q0 34 2 70q-51 -143 -118.5 -260.5t-155 -210t-198.5 -143.5t-235 -51q-176 0 -280.5 97.5t-104.5 287.5z" />
<glyph unicode="L" horiz-adv-x="1591" d="M41 317q0 180 121 303t313 123q127 0 222.5 -62t185.5 -173q27 53 55 120.5t44 109t44.5 119.5t34.5 95q-1 0 -44 -4t-73 -4q-216 0 -337.5 86.5t-121.5 231.5q0 94 57 143q44 38 103 38q17 0 35 -3q-31 -41 -31 -111q0 -96 82 -152.5t230 -56.5q35 0 68.5 3t61 7.5 t29.5 4.5q67 187 148 279.5t184 92.5q59 0 90 -32t31 -93q0 -108 -77.5 -211t-209.5 -165q-4 -10 -49.5 -134t-68.5 -181t-70.5 -159.5t-93.5 -179.5q40 -51 71 -85t72 -67t86 -49t96 -16q57 0 109 20.5t90.5 51.5t73.5 75t58.5 84.5t43.5 86.5q27 -5 44 -26.5t17 -57.5 q0 -59 -35 -129.5t-95 -135t-154 -108t-199 -43.5q-133 0 -225 60t-172 167q-196 -233 -439 -233q-177 0 -291 96.5t-114 273.5zM242 326q0 -98 63 -150.5t158 -52.5q171 0 317 209q-37 55 -65.5 90.5t-68 71.5t-85 53.5t-98.5 17.5q-104 0 -162.5 -69.5t-58.5 -169.5z" />
<glyph unicode="M" horiz-adv-x="2400" d="M41 332q0 96 39 193t106 175.5t167.5 127.5t213.5 49q86 0 129 -36t43 -96q0 -12 -2.5 -23.5t-4.5 -17.5l-3 -6q-4 4 -13 9.5t-45 14.5t-81 9q-147 0 -242.5 -114t-95.5 -271q0 -98 47 -151.5t131 -53.5q80 0 153 49t127 124.5t110 184.5t97 209t94.5 219t96.5 195 q89 159 214 250.5t280 91.5q95 0 145.5 -63t50.5 -168q7 10 19.5 27.5t55 62t88 78.5t115 62t140.5 28q121 0 174 -56.5t53 -138.5q0 -69 -35 -170t-85.5 -206.5t-101 -214.5t-85.5 -225.5t-35 -209.5q0 -67 27 -95t84 -28q80 0 165.5 92.5t133.5 211.5q28 -3 45.5 -25.5 t17.5 -60.5q0 -53 -35 -122.5t-92 -132.5t-139.5 -106t-167.5 -43q-117 0 -184.5 73t-67.5 187q0 108 34.5 234.5t84 237.5t99 212.5t84 188.5t34.5 137q0 76 -82 76q-126 0 -251 -162t-203 -438q-38 -130 -66 -220t-59.5 -175.5t-58.5 -138.5t-58 -94t-64 -59t-71 -18 t-60 20t-22 54q0 77 40.5 193t98.5 238t116.5 244.5t99 242.5t40.5 202q0 76 -72 76q-69 0 -130.5 -45t-109.5 -120.5t-94 -173.5t-92 -206.5t-95.5 -217.5t-111.5 -207t-133.5 -173.5t-168.5 -120.5t-209 -45q-169 0 -268 95.5t-99 273.5z" />
<glyph unicode="N" horiz-adv-x="1841" d="M41 309q0 90 29 174t83 151.5t138 108.5t186 41q85 0 131.5 -37.5t46.5 -97.5q0 -15 -4 -28.5t-8 -20.5l-4 -6q-5 5 -14.5 11.5t-42 18t-68.5 11.5q-123 0 -198.5 -87t-75.5 -218q0 -100 55 -155.5t145 -55.5q78 0 143 45t110 123.5t78.5 176t53.5 213.5t30 223t13 216 q0 62 -4 152q-77 30 -157 30q-38 0 -70.5 -8t-52.5 -19t-34 -23t-20 -20t-6 -9q-2 0 -6 1.5t-14.5 8t-18 15t-14 26t-6.5 39.5q0 90 76 139t182 49q132 0 251.5 -49t215.5 -138.5t173 -204.5t136 -257q24 137 67 251.5t103.5 202.5t143.5 137.5t180 49.5q68 0 106.5 -35 t38.5 -90q0 -59 -30 -92.5t-62 -42.5q0 2 -1 5.5t-5.5 11.5t-12 14.5t-23 12t-36.5 5.5q-82 0 -154.5 -103t-116.5 -280t-44 -379q0 -304 139 -491q-4 -5 -12.5 -11.5t-36 -18t-57.5 -11.5q-150 0 -218 360q-43 228 -150.5 438.5t-250.5 339.5q0 -90 -7 -186.5t-27 -215 t-51 -226t-83 -211t-118.5 -179t-162.5 -121.5t-210 -46q-164 0 -265.5 97t-101.5 275z" />
<glyph unicode="O" horiz-adv-x="1384" d="M82 489q0 137 40.5 279.5t118.5 270.5t181.5 228.5t240 160t283.5 59.5q157 0 233 -60.5t76 -142.5q0 -16 -5 -32t-10 -24l-5 -7q-3 4 -9 10.5t-30 23t-53.5 29t-80 23t-108.5 10.5q-111 0 -214.5 -47.5t-182.5 -129t-139 -186t-91.5 -222.5t-31.5 -234q0 -178 84 -268.5 t237 -90.5q159 0 295 101.5t213.5 267t77.5 352.5q0 104 -47.5 164.5t-122.5 60.5q1 4 4 10.5t14.5 23t26 29.5t41 23.5t58.5 10.5q97 0 161 -82.5t64 -218.5q0 -135 -38 -269t-110.5 -250t-169 -206t-223.5 -141.5t-264 -51.5q-257 0 -385.5 142t-128.5 384z" />
<glyph unicode="P" horiz-adv-x="1728" d="M41 276q0 125 67 200t166 75q28 0 50 -8.5t33 -20.5t18.5 -24t9.5 -20l2 -9q-70 -4 -110.5 -51t-40.5 -119q0 -80 50 -126t138 -46q101 0 187 78t143 200.5t98 278t60 305.5t22 287q-164 -62 -260 -182q-94 -118 -94 -250v-6q-27 -19 -68 -19q-42 0 -66 31t-24 86 q0 87 39.5 170t115 154t177.5 124.5t236.5 84t283.5 30.5q269 0 411 -114.5t142 -327.5q0 -200 -112.5 -350t-306.5 -227q-187 -74 -423 -74h-18q-201 -459 -564 -459q-160 0 -261 89t-101 240zM1028 578q126 0 232.5 29t187 85.5t125.5 145.5t45 202q0 144 -95.5 219.5 t-273.5 75.5q-94 0 -196 -20q73 -26 73 -127q0 -121 -24 -286.5t-74 -323.5z" />
<glyph unicode="Q" horiz-adv-x="1374" d="M82 596q0 132 37 262t108 243t167 199.5t222 136.5t265 50q132 0 232.5 -38.5t162 -108.5t92.5 -163.5t31 -209.5q0 -233 -122 -464.5t-333 -365.5q180 -21 274.5 -105t94.5 -190q0 -108 -50.5 -160.5t-117.5 -52.5q-19 0 -38.5 5.5t-29.5 10.5l-10 5q6 5 14.5 14.5 t22.5 45t14 79.5q0 99 -86 160t-248 61q-31 0 -115 -5t-134 -5q-158 0 -234 56.5t-76 136.5q0 16 5.5 32t10.5 23l5 8q3 -4 9 -10t30 -22.5t53 -29t79.5 -22.5t108.5 -10q138 0 263 70.5t210.5 183t136 255t50.5 285.5q0 176 -84.5 265.5t-237.5 89.5q-160 0 -295.5 -98 t-212.5 -258t-77 -341q0 -102 47.5 -160.5t122.5 -58.5q-1 -4 -4 -10t-14.5 -22.5t-26 -29t-41 -22.5t-58.5 -10q-96 0 -159.5 80.5t-63.5 214.5z" />
<glyph unicode="R" horiz-adv-x="1824" d="M41 203q1 76 67 122q49 34 106 34q21 0 44 -5q-22 -29 -22 -78q0 -133 147 -133q83 0 154.5 53t122.5 144t91 204.5t64.5 242.5t37.5 250.5t15 234.5q-171 -66 -253.5 -179.5t-82.5 -250.5q-26 -17 -67 -17q-45 0 -71.5 31t-26.5 86q0 112 66.5 214t182 177.5t283 120.5 t358.5 45q283 0 438.5 -114.5t155.5 -325.5q0 -97 -37.5 -183.5t-106.5 -153.5t-175.5 -108t-237.5 -45q-12 -55 -12 -106q0 -159 68 -245.5t206 -86.5q68 0 131 30.5t110.5 80t82.5 103t57 108.5q27 -5 44.5 -27t17.5 -57q0 -60 -35 -131t-95.5 -135.5t-156 -108 t-203.5 -43.5q-209 0 -318.5 134t-109.5 347q0 76 14.5 153.5t28.5 117.5l15 40q49 -12 108 -12q181 0 289.5 87.5t108.5 230.5q0 145 -108 215.5t-304 70.5q-135 0 -242 -26q70 -27 70 -125q0 -86 -9.5 -185.5t-33.5 -219t-60 -232.5t-93.5 -220.5t-128 -187t-170 -128 t-214.5 -48.5q-145 0 -228 62.5t-83 177.5z" />
<glyph unicode="S" horiz-adv-x="1267" d="M41 338q0 178 121.5 299t314.5 121q87 0 136 -38t49 -106q0 -14 -4 -27.5t-8 -20.5l-3 -7q-5 5 -14.5 11.5t-45 18t-79.5 11.5q-122 0 -192 -66.5t-70 -183.5q0 -110 83 -177t234 -67q190 0 315.5 103t125.5 254q0 57 -18.5 104.5t-50 80.5t-72.5 61t-86 52.5t-90.5 48.5 t-86.5 54.5t-72.5 66t-50 86.5t-18.5 113q0 167 136 275t347 108q186 0 300 -82.5t114 -213.5q0 -105 -58 -151q-45 -35 -107 -35q-18 0 -38 3q21 41 21 111q0 95 -68 148t-180 53q-120 0 -189 -55t-69 -144q0 -58 30.5 -103.5t78.5 -77.5t106.5 -62t117.5 -66t107 -80.5 t78.5 -114.5t30.5 -158q0 -158 -91 -285t-245 -197.5t-338 -70.5q-243 0 -372.5 109t-129.5 297z" />
<glyph unicode="T" horiz-adv-x="1435" d="M121 1280q0 100 56.5 155.5t133.5 55.5q24 0 42 -5.5t24 -10.5l6 -5q-3 -1 -7.5 -3.5t-16.5 -13t-21.5 -23t-17 -35.5t-7.5 -49q0 -61 37 -97.5t117 -36.5q71 0 154 26t162 63.5t161 75t177 63.5t184 26q154 0 244.5 -81t90.5 -220q0 -140 -92 -242.5t-227 -105.5 q-68 0 -106.5 36.5t-38.5 100.5q30 -8 75 -8q85 0 141 53t56 140q0 75 -46 115t-134 40q-106 0 -209 -41q-74 -117 -147.5 -267t-135 -345t-61.5 -340q0 -83 27.5 -118.5t84.5 -35.5q82 0 167.5 92.5t131.5 211.5q29 -3 46.5 -25.5t17.5 -60.5q0 -53 -35 -123t-91 -133 t-138 -106.5t-166 -43.5q-119 0 -188.5 85t-69.5 224q0 110 27.5 236.5t73 245t88 209t89.5 176.5q-207 -95 -360 -95q-140 0 -219.5 67.5t-79.5 172.5z" />
<glyph unicode="U" horiz-adv-x="1605" d="M41 1034q0 204 131 335.5t336 131.5q112 0 196.5 -33.5t134 -92t73.5 -130t24 -155.5q0 -94 -36 -192t-87.5 -179t-103 -156.5t-87.5 -149t-36 -130.5q0 -129 137 -129q86 0 166.5 47t140.5 122t103.5 158t66.5 166q106 385 150 507q88 248 185 308q37 23 79 23 q38 0 59 -20t21 -54q0 -61 -40 -168t-97 -229t-113.5 -249.5t-96.5 -260.5t-40 -232q0 -70 25.5 -98.5t80.5 -28.5q84 0 170 93.5t133 212.5q28 -3 46 -25.5t18 -60.5q0 -53 -35.5 -122.5t-93 -132.5t-140.5 -107t-168 -44q-117 0 -175 71q-52 64 -53 167q0 11 1 22 q-7 -10 -20 -27t-58 -60t-93.5 -76t-124 -60t-152.5 -27q-129 0 -215 74t-86 205q0 60 20.5 122.5t53.5 117.5t73 111t80 112.5t73 112.5t53.5 121t20.5 128q0 113 -60.5 181.5t-178.5 68.5q-114 0 -191.5 -71t-77.5 -208q0 -86 51 -141t138 -55q26 0 48.5 5.5t31.5 10.5 l10 6q8 -10 8 -26q0 -54 -49 -90.5t-119 -36.5q-77 0 -138.5 27.5t-98 73.5t-55.5 101t-19 115z" />
<glyph unicode="V" horiz-adv-x="1564" d="M41 1034q0 204 131 335.5t336 131.5q112 0 196.5 -33.5t134 -92t73.5 -130t24 -155.5q0 -94 -36 -192t-87.5 -179t-103 -156.5t-87.5 -149t-36 -130.5q0 -129 137 -129q113 0 224.5 62t199 165t155.5 229.5t105 264t37 260.5q0 102 -41.5 152t-110.5 50q-23 0 -43 -5.5 t-29 -11.5l-8 -5q-1 13 -1 25q1 68 39 116q46 57 143 57q114 0 187 -87t73 -248q0 -125 -35 -264t-97.5 -273t-154 -256.5t-198 -215t-237 -147.5t-263.5 -55q-129 0 -215 74.5t-86 206.5q0 60 20.5 122.5t53.5 117.5t73 111t80 112.5t73 112.5t53.5 121t20.5 128 q0 113 -60.5 181.5t-178.5 68.5q-114 0 -191.5 -71t-77.5 -208q0 -86 51 -141t138 -55q26 0 48.5 5.5t31.5 10.5l10 6q8 -10 8 -26q0 -54 -49 -90.5t-119 -36.5q-77 0 -138.5 27.5t-98 73.5t-55.5 101t-19 115z" />
<glyph unicode="W" horiz-adv-x="2172" d="M41 1034q0 204 131 335.5t336 131.5q112 0 196.5 -33.5t134 -92t73.5 -130t24 -155.5q0 -94 -36 -192t-87.5 -179.5t-103 -157t-87.5 -149.5t-36 -131q0 -129 137 -129q77 0 156.5 53.5t146.5 141t128 198.5t104.5 227t72 226t35.5 196q24 10 51 10q58 0 96.5 -37.5 t38.5 -111.5q0 -73 -31 -160.5t-75 -168.5t-87.5 -161.5t-74.5 -163.5t-31 -151q0 -109 105 -109q78 0 163 46t160 122.5t143.5 178.5t118 211t78.5 223.5t29 212.5q0 102 -40.5 152t-111.5 50q-23 0 -42.5 -5.5t-27.5 -11.5l-9 -5q-1 11 -1 22q0 63 41 115q48 60 142 61 q114 0 186 -85.5t72 -247.5q0 -124 -37 -265t-101.5 -275.5t-156 -259t-195 -218t-225 -149.5t-239.5 -56q-68 0 -116.5 24.5t-71.5 62.5t-32.5 72t-9.5 66q-7 -9 -20 -23t-55 -51t-87 -65t-113 -51t-136 -23q-129 0 -213 73.5t-84 205.5q0 60 20.5 122.5t53.5 117.5t73 111 t80 112.5t73 112.5t53.5 121t20.5 128q0 113 -60.5 181.5t-178.5 68.5q-114 0 -191.5 -71t-77.5 -208q0 -75 52 -135.5t137 -60.5q26 0 48.5 5.5t31.5 10.5l10 6q8 -10 8 -26q0 -54 -49 -90.5t-119 -36.5q-77 0 -138.5 27.5t-98 73.5t-55.5 101t-19 115z" />
<glyph unicode="X" horiz-adv-x="1740" d="M51 287q0 170 92 280.5t296 170t530 65.5q16 98 16 192q0 353 -272 353q-91 0 -150 -56.5t-59 -140.5q0 -35 8 -63t16 -39l9 -11q-19 -3 -36 -3q-57 -1 -103 33q-60 44 -60 134q0 63 24.5 119.5t71.5 102.5t124 73t175 27q208 0 329.5 -126t121.5 -384q0 -96 -19 -201 q130 15 240 61q199 603 418 603q56 0 85 -33t29 -96q0 -145 -103.5 -306t-258.5 -256q-135 -319 -135 -516q0 -67 26 -95t80 -28q84 0 169 92.5t134 211.5q28 -3 46 -25.5t18 -60.5q0 -53 -35 -122t-92 -132t-139.5 -106.5t-167.5 -43.5q-114 0 -176 74t-62 190 q0 160 100 465q-104 -32 -213 -43q-44 -144 -117.5 -268.5t-166.5 -217t-207.5 -145.5t-233.5 -53q-161 0 -256.5 88t-95.5 236zM252 301q0 -77 47 -121.5t125 -44.5q161 0 298 141.5t208 362.5q-162 -4 -283 -24t-195.5 -49.5t-120 -73t-62.5 -89t-17 -102.5z" />
<glyph unicode="Y" horiz-adv-x="1548" d="M51 1040q0 200 131 330.5t336 130.5q112 0 196.5 -32.5t134 -90t73.5 -128t24 -154.5q0 -94 -35 -182.5t-84.5 -155.5t-99 -129t-84.5 -126t-35 -122q0 -61 35 -94t102 -33q87 0 170.5 45t146 117t108 154.5t67.5 164.5q97 367 137 480q70 196 154 247q38 23 84 23 q38 0 60 -20t22 -54q0 -59 -35 -155.5t-89 -218.5t-111.5 -263t-110 -331t-76.5 -380q141 47 233.5 147.5t155.5 240.5q26 -3 43.5 -26t17.5 -58q0 -62 -33 -132t-91.5 -136t-151.5 -119.5t-203 -77.5q-56 -188 -206.5 -297t-354.5 -109q-125 0 -202 59t-77 146 q0 84 49.5 145.5t144.5 99t213.5 57.5t276.5 28q45 239 54 274q-7 -10 -20 -26t-57.5 -56.5t-93.5 -72t-125 -57t-155 -25.5q-129 0 -215 73.5t-86 204.5q0 83 37.5 160t90.5 139.5t106.5 125.5t91 142.5t37.5 165.5q0 111 -61.5 177.5t-178.5 66.5q-114 0 -191 -70 t-77 -202q0 -85 51 -140t137 -55q26 0 48.5 6t31.5 12l10 5q8 -11 8 -27q0 -54 -49 -90.5t-119 -36.5q-78 0 -139 27.5t-97.5 73t-55.5 100t-19 114.5zM602 -279q0 -73 119 -73q107 0 198 67t125 160q-198 -8 -320 -47t-122 -107z" />
<glyph unicode="Z" horiz-adv-x="1308" d="M43 170q0 100 79.5 153.5t205.5 53.5q67 0 161 -25q233 177 442 407.5t294 418.5q-79 8 -157.5 32.5t-131.5 49t-133 44t-168 19.5q-119 0 -197 -74t-78 -200q0 -86 51 -141.5t138 -55.5q25 0 47 5.5t32 10.5l9 6q8 -10 8 -26q0 -54 -48.5 -90.5t-119.5 -36.5 q-77 0 -138 27.5t-98 73.5t-56 101.5t-19 114.5q0 203 133.5 333t339.5 130q97 0 195 -24.5t165 -54.5t149 -54.5t152 -24.5q26 0 49 8.5t37.5 20.5t24.5 24t15 20l4 9q4 -3 10 -8.5t16 -28t10 -49.5q-1 -111 -75 -258t-193 -293t-251.5 -279t-266.5 -241q32 -18 86 -52 t86.5 -53.5t79.5 -35.5t92 -16q62 0 117.5 23.5t94.5 57.5t75.5 84t57 88.5t42.5 86.5q64 -11 63 -78q0 -47 -20 -105t-62.5 -117.5t-99 -109t-136.5 -80.5t-167 -31q-70 0 -139 25.5t-115 57.5t-107.5 75t-101.5 64q-170 -117 -323 -117q-74 0 -117 39t-43 96z" />
<glyph unicode="[" horiz-adv-x="819" d="M233 -37q0 134 70 445t164 609t156 402q53 88 129 88q45 0 115 -7t122 -7q34 0 70 2.5t55 4.5l19 3q12 -12 12 -43q0 -67 -64.5 -106t-169.5 -39q-57 0 -127 10q-116 -273 -222.5 -645t-174.5 -713q80 0 158.5 3.5t117.5 7.5l39 4q11 -18 11 -43q0 -66 -68 -108t-180 -42 q-42 0 -80 8t-73.5 26.5t-57 54t-21.5 85.5z" />
<glyph unicode="\" horiz-adv-x="700" d="M190 1251q0 101 45 169t132 71q21 -44 24 -84q12 -306 97.5 -745t179.5 -762q-27 -25 -72 -25q-31 0 -66 37t-61 100q-82 202 -180.5 619.5t-98.5 619.5z" />
<glyph unicode="]" horiz-adv-x="819" d="M-125 -162q0 66 64 106t167 40q36 0 127 -13q118 273 225 645.5t175 714.5q-81 0 -160 -4t-117 -8l-39 -4q-12 18 -12 43q0 66 69 107.5t179 41.5q43 0 80.5 -8t73 -26t56.5 -53.5t21 -84.5q0 -135 -69.5 -446.5t-162.5 -610t-155 -401.5q-52 -88 -131 -88q-43 0 -113 8 t-124 8q-33 0 -68.5 -3t-54.5 -6l-19 -3q-12 18 -12 45z" />
<glyph unicode="^" d="M143 211q194 185 329 396t194 407q50 -9 84.5 -46t42.5 -85q34 -194 98.5 -390.5t136.5 -340.5q-23 -23 -63 -23q-92 0 -168.5 122t-118.5 312q-98 -162 -225.5 -286.5t-216.5 -124.5q-34 0 -57 15t-29.5 27.5t-6.5 16.5z" />
<glyph unicode="_" horiz-adv-x="1024" d="M-4 -147h1032v-140h-1032v140z" />
<glyph unicode="`" horiz-adv-x="1024" d="M330 1423q0 47 29 85t63 46q61 -116 181.5 -197t260.5 -108q-12 -46 -55.5 -72t-106.5 -26q-55 0 -118.5 19.5t-120.5 53.5t-95 87t-38 112z" />
<glyph unicode="a" horiz-adv-x="1110" d="M35 287q0 148 58.5 283t157 233.5t236 156.5t289.5 58q150 0 224.5 -58t74.5 -135q0 -15 -4 -28.5t-8 -20.5l-4 -6q-3 3 -10 9t-33 21t-56.5 26t-82 20.5t-109.5 9.5q-143 0 -264.5 -74t-193.5 -204.5t-72 -288.5q0 -75 33 -114.5t96 -39.5q57 0 107.5 31t86 77t67 114 t51 128t38.5 133q40 138 157 138q18 0 35 -4t25 -8l8 -3q-111 -357 -111 -458q0 -79 21.5 -109.5t69.5 -30.5q80 0 166.5 95t132.5 213q29 -3 46 -25t17 -61q0 -53 -34 -122t-89 -132.5t-136.5 -107.5t-166.5 -44q-48 0 -84.5 15.5t-56.5 37.5t-32.5 51t-16.5 52t-4 45 q-4 -8 -12.5 -21t-39.5 -46.5t-67.5 -59.5t-96.5 -47t-126 -21q-138 0 -212.5 90t-74.5 232z" />
<glyph unicode="b" horiz-adv-x="1081" d="M76 352q0 72 14 166t43 202t69.5 215.5t99 207t126 175.5t155 121.5t181.5 45.5q97 0 154 -56t57 -145q0 -177 -137 -338q83 -6 124.5 -73t41.5 -175q0 -36 -5 -65q172 6 295 112q23 -18 23 -61q0 -80 -99.5 -143.5t-252.5 -69.5q-33 -98 -88 -186t-127 -158.5 t-164.5 -112t-190.5 -41.5q-157 0 -238 91.5t-81 287.5zM268 309q0 -79 40.5 -125.5t117.5 -46.5q105 0 215.5 109t151.5 260q-54 29 -87.5 86t-33.5 131q0 31 6 65q-37 -32 -94.5 -78.5t-96 -77t-84 -73.5t-72 -78.5t-45 -80.5t-18.5 -91zM309 657q28 36 78.5 81.5 t101 84.5t105.5 89t96.5 97.5t68.5 108t27 121.5q0 64 -63 64q-72 0 -157.5 -98.5t-154.5 -247.5t-102 -300z" />
<glyph unicode="c" horiz-adv-x="815" d="M37 336q0 117 40.5 235.5t110.5 215t174 157t220 60.5q247 0 247 -209q0 -96 -52.5 -152.5t-133.5 -56.5q-22 0 -39 6.5t-23 13.5l-6 6q7 7 17 19.5t26.5 51t16.5 75.5q0 86 -84 86q-72 0 -143.5 -68t-118.5 -185t-47 -245q0 -103 50.5 -156t137.5 -53q83 0 166.5 32.5 t148.5 83t112 101t77 97.5q24 -3 39.5 -23.5t15.5 -54.5q0 -45 -31.5 -100t-89 -108.5t-130 -98.5t-164 -73t-181.5 -28q-175 0 -265.5 102.5t-90.5 268.5z" />
<glyph unicode="d" horiz-adv-x="1105" d="M35 283q0 145 51.5 279.5t140.5 236t217.5 162.5t274.5 61q54 0 108 -14q68 236 144 355.5t176 119.5q38 0 60 -21t22 -55q0 -55 -40.5 -159t-98.5 -225.5t-115.5 -249t-98 -260.5t-40.5 -230q0 -80 19.5 -110t66.5 -30q80 0 166.5 95t132.5 213q29 -3 46 -25t17 -61 q0 -53 -34 -122t-89 -132t-136.5 -106.5t-166.5 -43.5q-48 0 -84.5 15t-56.5 36.5t-32.5 49.5t-16.5 49.5t-4 40.5q-5 -8 -13.5 -20.5t-41 -44.5t-70 -57t-99 -45t-129.5 -20q-134 0 -205 87.5t-71 230.5zM236 285q0 -75 34 -113.5t92 -38.5q67 0 126.5 43t103.5 116 t75 150.5t54 165.5l65 256q-46 4 -75 4q-137 0 -247 -81.5t-169 -214t-59 -287.5z" />
<glyph unicode="e" horiz-adv-x="800" d="M35 338q0 117 39.5 235t107.5 213t169.5 155t215.5 60q116 0 182 -57.5t66 -161.5q0 -84 -35 -158t-91 -128.5t-133 -100t-155.5 -75t-164.5 -50.5q16 -139 165 -139q83 0 169 33.5t153.5 85t117 103t79.5 98.5q24 -3 39.5 -23.5t15.5 -54.5q0 -56 -50.5 -127 t-130.5 -133.5t-193.5 -105t-225.5 -42.5q-174 0 -257 102t-83 271zM231 410q171 52 281.5 142.5t110.5 195.5q0 90 -88 90q-71 0 -139.5 -62t-113 -161.5t-51.5 -204.5z" />
<glyph unicode="f" horiz-adv-x="688" d="M-383 -313q0 78 53.5 134t128.5 56q21 0 39 -7.5t26 -14.5l7 -7q-7 -5 -16.5 -14.5t-26 -40t-16.5 -61.5q0 -84 77 -84q230 0 230 973q0 179 26 328t79.5 267.5t145 185t214.5 66.5q101 0 164 -72.5t63 -189.5q0 -78 -24 -153t-59 -133.5t-95 -125.5t-110.5 -113.5 t-127.5 -111.5q37 -5 74 -5q97 0 196 33q136 45 240 142q27 -13 27 -59q0 -94 -143 -182t-349 -88q-67 0 -137 18q-5 -216 -29.5 -380.5t-75 -294.5t-137.5 -198.5t-208 -68.5q-112 0 -174 55t-62 146zM301 676q124 122 167 171q165 190 165 339q0 106 -82 106 q-100 0 -173.5 -166t-76.5 -450z" />
<glyph unicode="g" horiz-adv-x="1081" d="M-55 -293q0 67 32.5 120t89.5 88.5t143 60.5t185 38t223 19q3 19 17.5 104t19.5 115q-4 -7 -13 -19.5t-39.5 -44t-65.5 -55.5t-92 -43.5t-119 -19.5q-136 0 -213.5 82.5t-77.5 216.5q0 138 59 259.5t159.5 207t238 135t290.5 49.5q78 0 137 -17.5t92.5 -46.5t49.5 -62 t16 -69q0 -15 -4 -28.5t-8 -20.5l-4 -6q-3 3 -10 9t-32.5 21t-56 26t-82 20.5t-110.5 9.5q-146 0 -265.5 -55t-192 -164t-72.5 -254q0 -147 145 -147q60 0 113.5 34.5t94.5 93.5t71 125.5t51 141.5q18 64 59.5 94.5t95.5 30.5q18 0 34.5 -3t23.5 -7l8 -3q-76 -223 -135 -677 q263 92 393 385q26 -3 43.5 -26t17.5 -58q0 -62 -33.5 -131.5t-93.5 -135t-153.5 -119t-202.5 -77.5q-51 -186 -198.5 -295t-348.5 -109q-125 0 -202.5 59.5t-77.5 147.5zM141 -274q0 -74 119 -74q106 0 197 66.5t123 158.5q-195 -6 -317 -45.5t-122 -105.5z" />
<glyph unicode="h" horiz-adv-x="1028" d="M27 131q0 65 14 166t43.5 228.5t71 259.5t102 258t130 224t160.5 158t189 60q97 0 154 -56t57 -145q0 -170 -129 -319q80 -8 125 -57t45 -130q0 -70 -35 -153t-76.5 -146.5t-76.5 -136t-35 -123.5q0 -78 74 -78q79 0 163.5 94.5t135.5 215.5q28 -3 45.5 -25.5t17.5 -60.5 q0 -53 -35 -122.5t-91 -132.5t-138.5 -107t-167.5 -44q-104 0 -158.5 53.5t-54.5 147.5q0 56 22.5 122.5t55 125.5t64.5 115t54.5 108t22.5 88q0 61 -55 61q-77 0 -170.5 -75t-171 -187.5t-131 -254t-55.5 -263.5q-23 -12 -52 -12q-50 0 -82 36t-32 107zM291 637 q49 69 119 138t127.5 118t110 102.5t82.5 114.5t30 129q0 64 -64 64q-53 0 -114 -63.5t-115 -164t-100 -214.5t-76 -224z" />
<glyph unicode="i" horiz-adv-x="532" d="M39 174q0 62 20 136.5t48.5 148t57 152t49.5 175t22 189.5q42 12 75 12q57 0 92 -35t35 -104q0 -71 -29 -165t-63 -169t-63 -157t-29 -132q0 -42 18.5 -61t57.5 -19q84 0 173.5 94t139.5 212q28 -3 46 -25.5t18 -60.5q0 -53 -35.5 -122.5t-93.5 -132.5t-142 -107 t-170 -44q-108 0 -167.5 55.5t-59.5 159.5zM309 1352q0 72 42.5 112.5t103.5 40.5q54 0 86 -32.5t32 -86.5q0 -60 -40 -103.5t-107 -43.5q-51 0 -84 31t-33 82z" />
<glyph unicode="j" horiz-adv-x="497" d="M-240 -365q0 83 67.5 163t184.5 134q19 90 53.5 287t68 352t75.5 283q40 125 170 125q17 0 34.5 -3t26.5 -6l9 -3q-72 -192 -121.5 -408.5t-100.5 -519.5q128 69 224 175.5t153 236.5q28 -5 48 -27.5t20 -58.5q0 -124 -134.5 -270t-344.5 -238q-43 -177 -113 -266 t-180 -89q-62 0 -101 36t-39 97zM311 1350q0 72 42.5 112.5t103.5 40.5q54 0 86 -31.5t32 -85.5q0 -62 -39.5 -105.5t-107.5 -43.5q-51 0 -84 32t-33 81z" />
<glyph unicode="k" horiz-adv-x="1046" d="M27 131q0 65 14 166t43.5 228.5t71 259.5t102 258t130 224t160.5 158t189 60q95 0 152 -56t57 -145q0 -177 -131 -328q102 -13 153.5 -70.5t51.5 -144.5q0 -162 -137.5 -270.5t-393.5 -138.5q19 -93 74 -144t142 -51q79 0 156 32t136.5 84t101.5 101t72 99q24 -5 40 -27 t16 -57q0 -57 -45 -126.5t-118 -131.5t-178.5 -104t-213.5 -42q-161 0 -260.5 109t-126.5 276q-38 -81 -60 -178t-24 -172q-27 -12 -58 -12q-51 0 -83.5 36t-32.5 107zM297 637q47 69 115.5 138t125.5 118.5t109.5 102.5t82.5 114t30 129q0 64 -64 64q-69 0 -150.5 -110 t-144 -257t-104.5 -299zM336 463q210 4 348.5 74t138.5 170q0 40 -25.5 63t-76.5 23q-95 0 -199 -93t-186 -237z" />
<glyph unicode="l" horiz-adv-x="815" d="M53 360q0 125 31.5 270.5t92 286t139.5 256t182.5 186.5t212.5 71q111 0 167 -61.5t56 -172.5q0 -124 -49 -248t-124 -221t-169 -182.5t-181 -141t-163 -88.5q11 -180 170 -180q84 0 168.5 32.5t151 84t115 102t81.5 99.5q25 -5 40 -27.5t15 -58.5q0 -44 -31.5 -98 t-89 -107t-131 -97.5t-166.5 -72t-186 -27.5q-163 0 -247.5 105t-84.5 290zM258 494q199 107 345.5 297t146.5 366q0 42 -20 65t-56 23q-83 0 -174.5 -119t-156.5 -293t-85 -339z" />
<glyph unicode="m" horiz-adv-x="1579" d="M35 131q0 80 28 186t62 196.5t62 214.5t28 235q39 14 72 14q116 0 116 -143q0 -27 -7.5 -64t-15 -59.5t-9.5 -24.5l7 12q8 12 21 30.5t31.5 43t43 51t52.5 53.5t61.5 51t68.5 42.5t76.5 29.5t82.5 11q75 0 119.5 -49t44.5 -138q0 -19 -4 -59q7 10 19 26.5t52.5 59 t83.5 75t107 59t127 26.5q89 0 136.5 -53.5t47.5 -143.5q0 -70 -36.5 -159t-80 -159t-80 -147.5t-36.5 -128.5q0 -78 74 -78q79 0 165 95t136 215q29 -3 46 -25t17 -61q0 -53 -35 -122t-91 -132t-138.5 -106.5t-167.5 -43.5q-104 0 -159.5 52.5t-55.5 146.5q0 70 34.5 160.5 t76 161.5t76 145.5t34.5 117.5q0 62 -53 62q-73 0 -164.5 -80t-167.5 -197.5t-130 -263t-58 -266.5q-20 -10 -49 -10q-59 0 -97.5 39t-38.5 112q0 60 33 151t72.5 168t72.5 158t33 125q0 35 -13 50.5t-42 15.5q-73 0 -163 -79.5t-165.5 -197.5t-127.5 -264t-54 -268 q-24 -10 -53 -10q-55 0 -91 35t-36 106z" />
<glyph unicode="n" horiz-adv-x="1028" d="M27 131q0 80 28 186t62 196.5t62 214.5t28 235q39 14 72 14q116 0 116 -139q0 -18 -3 -39.5t-7.5 -40.5t-9 -35.5t-7.5 -26.5l-3 -10q4 8 22.5 36t62.5 79.5t95 96t124.5 78.5t145.5 34q88 0 136 -53.5t48 -143.5q0 -70 -36.5 -158.5t-80 -158.5t-80 -148t-36.5 -129 q0 -78 74 -78q79 0 163.5 94.5t135.5 215.5q28 -3 45.5 -25.5t17.5 -60.5q0 -53 -35 -122.5t-91 -132.5t-138.5 -107t-167.5 -44q-104 0 -158.5 53.5t-54.5 147.5q0 68 34.5 158t76 161.5t76 147t34.5 118.5q0 32 -13 47t-42 15q-59 0 -130 -51t-137 -136.5t-122 -188.5 t-90.5 -218t-36.5 -213q-24 -12 -51 -12q-56 0 -92.5 36t-36.5 107z" />
<glyph unicode="o" horiz-adv-x="1017" d="M45 338q0 172 77.5 330.5t208 256t275.5 97.5q66 0 107.5 -27.5t52.5 -72.5q85 0 133.5 -65t48.5 -165q0 -17 -1 -33.5t-2 -26t-1 -11.5q185 6 299 108q17 -25 17 -51q0 -73 -97 -134.5t-243 -68.5q-27 -102 -77 -193t-118 -163.5t-158 -115t-188 -42.5q-156 0 -245 97 t-89 280zM246 344q0 -103 42.5 -160t121.5 -57q109 0 206.5 113t128.5 272q-57 33 -90.5 92.5t-33.5 132.5q0 85 41 135q-4 0 -12.5 1t-12.5 1q-96 0 -186 -72t-147.5 -196t-57.5 -262z" />
<glyph unicode="p" horiz-adv-x="1087" d="M-164 -440q0 72 35 184t85 243t100 279.5t86 337t38 371.5q35 14 72 14q106 0 106 -174q0 -31 -2 -43q6 13 17.5 31.5t45.5 58t72.5 70t101 54.5t130.5 24q135 0 210 -88.5t75 -231.5q0 -149 -53 -281.5t-142 -234.5q139 45 245 123.5t146 155.5q26 -5 42 -27t16 -59 q0 -52 -37.5 -107t-109 -105.5t-166 -90.5t-218.5 -63.5t-256 -23.5q-105 0 -155 46t-50 108q0 26 11 45.5t23 25.5l11 7q1 -3 3 -8t12.5 -18.5t25 -23.5t42 -18t61.5 -8q56 0 117.5 38t115.5 105t88.5 172.5t34.5 227.5q0 75 -37 120.5t-100 45.5q-56 0 -108.5 -28 t-94.5 -77t-78.5 -107.5t-65 -127.5t-48.5 -128.5t-35 -119.5q-16 -63 -37 -149t-33.5 -138.5t-30 -120t-31 -107.5t-31 -87t-34 -73.5t-37.5 -50.5t-44.5 -34t-51.5 -10q-38 0 -60 20.5t-22 55.5z" />
<glyph unicode="q" horiz-adv-x="1077" d="M35 295q0 146 58.5 279.5t157 230.5t235.5 155t288 58q150 0 225.5 -57t75.5 -134q0 -14 -4.5 -27t-8.5 -20l-5 -6q-3 3 -10 9t-32.5 20.5t-56 25.5t-82 20t-110.5 9q-142 0 -263 -73.5t-193 -203t-72 -284.5q0 -74 33 -113t96 -39q230 0 346 478q37 137 157 137 q18 0 35.5 -4t26.5 -8l8 -5q-27 -80 -54.5 -204t-42.5 -208.5t-46 -264.5q139 50 237 151.5t156 235.5q26 -5 43.5 -28t17.5 -58q0 -82 -60 -176.5t-174 -177t-251 -113.5q-84 -416 -248 -416q-38 0 -60 23.5t-22 60.5q0 68 26 141t59.5 130.5t71.5 145.5t56 175 q-4 -8 -12.5 -21.5t-37 -44.5t-63 -55.5t-92 -44t-122.5 -19.5q-138 0 -212.5 89.5t-74.5 230.5z" />
<glyph unicode="r" horiz-adv-x="907" d="M35 131q0 80 28 186t62 196.5t62 214.5t28 235q43 14 76 14q112 0 112 -154q0 -58 -14.5 -122t-28.5 -99l-14 -35q31 31 76 65t71.5 51t88.5 56q-13 45 -13 92q0 116 62.5 188.5t144.5 72.5q64 0 95.5 -38t31.5 -104q0 -73 -29.5 -132t-76.5 -97q28 -10 94 -10 q89 0 164 35t108 65q21 -14 21 -55q0 -75 -94.5 -137t-243.5 -62q-56 0 -108.5 18t-84.5 50q-48 -28 -75.5 -45t-68 -45t-65 -49t-56.5 -52.5t-51.5 -61.5t-42 -71t-35.5 -84.5t-24.5 -98.5t-17.5 -118q-26 -10 -53 -10q-58 0 -93.5 34.5t-35.5 106.5z" />
<glyph unicode="s" horiz-adv-x="868" d="M20 213q0 63 30 102t75 39q14 0 24 -2.5t13 -5.5l4 -2q-5 -28 -5 -53q0 -71 42 -119q57 -66 170 -66q92 0 151.5 46t59.5 118q0 45 -22.5 77.5t-58 52.5t-78.5 37.5t-86 39.5t-78.5 50.5t-58 78.5t-22.5 117q0 133 107.5 217t275.5 84q149 0 237.5 -64.5t88.5 -168.5 q-1 -84 -53 -120q-41 -28 -93 -28q-15 0 -30 2q14 33 14 76q0 73 -47.5 114.5t-130.5 41.5q-81 0 -126.5 -39.5t-45.5 -102.5q0 -41 23 -72t60 -50t81.5 -36t89 -38t81.5 -48t60 -72.5t23 -105.5q0 -162 -128.5 -262t-318.5 -100q-158 0 -243 73.5t-85 188.5z" />
<glyph unicode="t" horiz-adv-x="778" d="M76 258q0 169 135 516q-54 17 -83.5 49t-29.5 72q0 12 3 22.5t5 14.5l3 4q73 -25 155 -31q81 198 170 314t176 116q82 0 82 -73q0 -19 -3.5 -39t-14 -46t-17.5 -43.5t-26.5 -52.5t-27.5 -49.5t-34 -59t-34 -57.5q198 28 305 129q10 -6 19 -22.5t9 -38.5q0 -99 -114 -165 t-324 -73q-81 -142 -123.5 -248t-42.5 -210q0 -75 38.5 -112.5t103.5 -37.5q77 0 157.5 32.5t144.5 83t112.5 102t76.5 98.5q25 -5 40 -28t15 -58q0 -43 -30.5 -97.5t-87 -107.5t-128.5 -98t-163.5 -73t-182.5 -28q-139 0 -211.5 79.5t-72.5 215.5z" />
<glyph unicode="u" horiz-adv-x="1107" d="M49 211q0 76 31 173.5t68 178.5t69 192.5t33 213.5q39 12 72 12q57 0 92 -34.5t35 -104.5q0 -67 -29.5 -155.5t-65 -160.5t-65 -152t-29.5 -132q0 -82 76 -82q98 0 210.5 133t190 323.5t86.5 354.5q25 10 54 10q58 0 95.5 -34.5t37.5 -106.5q0 -73 -26 -160.5t-58 -155.5 t-58 -149t-26 -142q0 -45 17 -67.5t59 -22.5q81 0 166.5 94.5t132.5 213.5q29 -3 47 -26t18 -63q0 -53 -34 -122t-89 -131.5t-136.5 -106t-166.5 -43.5q-114 0 -162 73q-39 59 -39 146q0 20 2 41q-6 -10 -18 -27t-51.5 -60.5t-81.5 -77t-106 -60.5t-128 -27 q-104 0 -163.5 62t-59.5 182z" />
<glyph unicode="v" horiz-adv-x="1019" d="M51 211q0 76 27.5 173.5t61 178.5t62 192.5t29.5 213.5q39 12 72 12q57 0 92 -34.5t35 -104.5q0 -67 -26.5 -155.5t-58.5 -160.5t-58.5 -152t-26.5 -132q0 -88 84 -88q130 0 256.5 127.5t169.5 300.5q-64 32 -98.5 91t-34.5 132q0 98 46 158.5t118 60.5q87 0 137.5 -68 t50.5 -182q0 -19 -6 -67q77 3 143 22.5t95.5 36.5t50.5 35q18 -19 18 -62q0 -64 -50 -108.5t-125.5 -65t-168.5 -22.5q-53 -149 -153.5 -279t-235.5 -212.5t-270 -82.5q-107 0 -171.5 61.5t-64.5 180.5z" />
<glyph unicode="w" horiz-adv-x="1560" d="M49 211q0 76 27.5 173.5t61 178.5t62 192.5t29.5 213.5q39 12 72 12q57 0 92 -34.5t35 -104.5q0 -67 -26.5 -155.5t-58.5 -160.5t-58.5 -152t-26.5 -132q0 -88 84 -88q87 0 172.5 86.5t144.5 213t96 266.5t38 249q30 12 63 12q57 0 93 -37t36 -108q0 -66 -26.5 -154 t-57.5 -160t-57.5 -154t-26.5 -137q0 -77 78 -77q127 0 250 127t166 301q-64 32 -98.5 91t-34.5 132q0 98 46.5 158.5t118.5 60.5q86 0 136.5 -68.5t50.5 -181.5q0 -35 -4 -67q177 6 286 94q21 -19 21 -62q0 -48 -28.5 -86t-78 -61t-110 -35t-129.5 -14 q-41 -111 -110 -213.5t-154.5 -183t-189 -129t-206.5 -48.5q-96 0 -151.5 48t-61.5 139q-23 -27 -36.5 -42t-49.5 -46.5t-68 -49.5t-80 -33.5t-97 -15.5q-107 0 -170.5 61.5t-63.5 180.5z" />
<glyph unicode="x" horiz-adv-x="1216" d="M10 182q0 67 31.5 109.5t77.5 42.5q13 0 22.5 -3t12.5 -6l4 -3q-6 -28 -6 -53q0 -45 21 -79q32 -50 93 -51q75 0 144 64.5t109 163t40 198.5q0 236 -184 236q-29 0 -54.5 -9.5t-41.5 -22.5t-27.5 -26t-15.5 -23l-5 -9q-28 22 -28 73q0 87 66.5 143t164.5 56 q103 0 173.5 -61t99.5 -164q75 104 171 166.5t197 62.5q77 0 119.5 -39t42.5 -102q0 -24 -6 -45.5t-14.5 -35t-17.5 -24.5t-15 -15l-6 -5q-1 3 -2 8.5t-9 20t-19 25t-33 19.5t-50 9q-80 0 -156.5 -63t-125 -172t-48.5 -230q0 -98 43 -150.5t121 -52.5q246 0 436 318 q24 -5 40 -27t16 -57q0 -56 -42 -125.5t-111 -131.5t-172 -104.5t-212 -42.5q-221 0 -279 201q-69 -91 -155.5 -143t-183.5 -52q-103 0 -164.5 56t-61.5 155z" />
<glyph unicode="y" horiz-adv-x="1081" d="M-57 -293q0 84 48.5 145t141.5 98t210 56.5t273 26.5q31 184 64 284q-7 -10 -20 -26.5t-55 -59.5t-86 -75.5t-109 -59t-127 -26.5q-105 0 -165.5 54t-60.5 163q0 70 29.5 157.5t64.5 159t65.5 172.5t31.5 195q40 10 71 10q56 0 90.5 -31.5t34.5 -95.5q0 -62 -28 -144 t-62 -148t-62 -139t-28 -120q0 -74 74 -74q76 0 161 73.5t152 183.5t113.5 242.5t52.5 244.5q24 8 53 8q58 0 94.5 -31.5t36.5 -99.5q0 -63 -24.5 -153t-57 -173.5t-68 -210.5t-52.5 -247q264 92 395 385q26 -3 43.5 -26t17.5 -58q0 -61 -34.5 -132t-95.5 -136.5 t-154 -118.5t-199 -76q-53 -187 -200 -295.5t-349 -108.5q-125 0 -202.5 59.5t-77.5 147.5zM139 -274q0 -74 119 -74q106 0 197.5 66.5t124.5 158.5q-196 -6 -318.5 -45.5t-122.5 -105.5z" />
<glyph unicode="z" horiz-adv-x="995" d="M6 201q0 51 28.5 81.5t82.5 49.5q182 58 352 167t274 232q-75 7 -182 41.5t-192 34.5q-33 0 -60.5 -11t-43 -26.5t-27 -30.5t-15.5 -26l-4 -11q-31 27 -31 78q0 88 66.5 149.5t165.5 61.5q84 0 216 -45t200 -45q27 0 50 9.5t36.5 22.5t23 26t13.5 23l4 9q5 -3 11.5 -8 t18 -26.5t11.5 -47.5q0 -78 -44 -160.5t-110.5 -150.5t-157.5 -136.5t-171 -117t-165 -92.5q19 -12 74.5 -48t84 -52.5t79 -33t98.5 -16.5q46 0 90.5 14t78 33.5t69.5 53.5t58 59.5t50.5 68t40 62.5t33.5 58q25 -5 41 -27.5t16 -58.5q0 -59 -38.5 -133t-103.5 -142 t-165 -114t-209 -46q-71 0 -136.5 24t-116 58.5t-98.5 69t-103 58.5t-109 24q-21 0 -37.5 -4t-22.5 -8l-7 -5q-17 19 -17 54z" />
<glyph unicode="{" horiz-adv-x="819" d="M123 -6q0 53 19 100t49 82t66.5 67t73 61.5t66.5 58t49 63.5t19 72t-26.5 58.5t-78.5 21.5q-21 0 -38 -4t-24 -8l-7 -3q-15 12 -15 43q0 39 33.5 67.5t96.5 28.5q131 0 131 117q0 39 -18.5 82t-41 75.5t-41 83.5t-18.5 105q0 101 56 180.5t141.5 119.5t181.5 40 q99 0 151.5 -34.5t52.5 -94.5q0 -19 -6 -36.5t-12 -25.5l-6 -7q-5 6 -16.5 14.5t-54.5 22.5t-97 14q-85 0 -136.5 -48.5t-51.5 -119.5q0 -62 46 -163t46 -167q0 -40 -13 -75t-27 -55.5t-41 -42.5t-36.5 -27.5t-32.5 -18.5q23 -14 46.5 -48.5t23.5 -84.5t-17 -95t-44 -78.5 t-59.5 -64.5t-65.5 -59t-60 -55t-44 -59.5t-17 -67.5q0 -43 32 -69t93 -26q49 0 94.5 13.5t66.5 26.5l21 14q12 -14 12 -41q0 -71 -69 -117.5t-193 -46.5q-123 0 -191.5 57t-68.5 154z" />
<glyph unicode="|" horiz-adv-x="813" d="M418 668q0 253 12 478t33 318q40 178 172 178q14 0 26.5 -3.5t18.5 -6.5l6 -4q-28 -160 -52 -567t-24 -901q0 -237 17 -543q-24 -16 -45 -16q-50 0 -84 81.5t-50.5 238.5t-23 332t-6.5 415z" />
<glyph unicode="}" horiz-adv-x="819" d="M-33 -88q0 19 6.5 36.5t12.5 25.5l6 8q5 -6 16.5 -14.5t54.5 -23t97 -14.5q85 0 136.5 48.5t51.5 119.5q0 62 -46 164t-46 168q0 144 150 217q-14 10 -27.5 24t-28 44.5t-14.5 64.5q0 51 17 96t44 78.5t59.5 64.5t65.5 59t60 55t44 59.5t17 67.5q0 43 -32 68.5t-93 25.5 q-49 0 -94.5 -13.5t-66.5 -26.5l-21 -14q-12 14 -12 41q0 71 69 117.5t193 46.5q123 0 191.5 -57t68.5 -154q0 -53 -19 -99.5t-49 -81.5t-66.5 -67t-73 -61t-66.5 -58t-49 -63.5t-19 -72.5q0 -37 26 -58.5t78 -21.5q21 0 38.5 3.5t24.5 7.5l7 3q14 -12 14 -41q0 -40 -33 -68 t-96 -28q-131 0 -131 -117q0 -39 18.5 -82t41 -76.5t41 -84.5t18.5 -105q0 -101 -56 -180.5t-141.5 -119.5t-181.5 -40q-99 0 -152 34.5t-53 94.5z" />
<glyph unicode="~" d="M82 541q0 99 66.5 161t185.5 62q64 0 121 -18.5t98 -45.5t78.5 -54t79 -45.5t84.5 -18.5q61 0 99 34.5t38 96.5q0 23 -5 41.5t-9 25.5l-5 8q69 10 121.5 -28.5t52.5 -116.5q0 -119 -81 -194.5t-220 -75.5q-58 0 -114 22.5t-99 54.5t-83 63.5t-81 54t-77 22.5 q-52 0 -85.5 -31.5t-33.5 -85.5q0 -13 1.5 -24.5t3.5 -19t4 -13.5t4 -10l1 -3q-57 -6 -101 31.5t-44 106.5z" />
<glyph unicode="&#xa1;" horiz-adv-x="757" d="M231 18q94 173 187 450t131 497q117 0 117 -156t-64 -388t-125 -349q-25 -47 -62 -69.5t-75 -22.5q-58 0 -109 38zM545 1327q0 62 39.5 106t105.5 44q52 0 85.5 -31.5t33.5 -81.5q0 -72 -42.5 -113t-104.5 -41q-53 0 -85 31.5t-32 85.5z" />
<glyph unicode="&#xa2;" d="M90 401q0 128 40.5 257t111.5 235.5t177 181.5t228 94q1 56 13.5 113.5t37 110.5t66.5 86.5t94 33.5q14 0 26.5 -2.5t18.5 -4.5l6 -3q-65 -183 -96 -334q96 -19 145.5 -80.5t49.5 -162.5q0 -109 -58.5 -179.5t-150.5 -70.5q-27 0 -49 8t-30 16l-9 7q4 3 10 9t21.5 25 t27.5 40t21.5 52t9.5 62q0 53 -26.5 82t-76.5 29q-103 0 -194.5 -86.5t-144 -224.5t-52.5 -287q0 -122 66 -187t176 -65q78 0 150.5 28t125.5 73.5t92 96.5t62 105q28 -2 45.5 -27t17.5 -65q0 -119 -122.5 -239t-303.5 -151q-1 -56 -14 -114.5t-37 -112.5t-65.5 -88.5 t-93.5 -34.5q-14 0 -27.5 2.5t-20.5 5.5l-6 3q62 174 94 331q-178 17 -267 134t-89 298z" />
<glyph unicode="&#xa3;" d="M23 96q0 76 60 122t157 46q62 0 145 -22q31 45 31 88q0 71 -37 139q-69 -4 -131.5 -13t-90.5 -16l-28 -6q-14 12 -14 41q0 88 182 131q-37 69 -37 172q0 173 128 287.5t337 114.5q163 0 261.5 -71t98.5 -185q0 -86 -57.5 -128t-138.5 -28q18 33 18 86q0 76 -54 120 t-144 44q-110 0 -170 -63t-60 -156q0 -85 35 -164q37 2 57 2q160 0 240 -40.5t80 -109.5q0 -19 -4.5 -35t-9.5 -22l-5 -6q-120 37 -284 45q20 -55 20 -117q0 -89 -61 -178q133 -68 176 -82q40 -12 72 -12q63 0 102 36.5t39 104.5q0 26 -6 47t-12 29l-7 8q71 15 128 -25 t57 -122q0 -121 -87 -197t-227 -76q-37 0 -73 7.5t-59.5 14.5t-61.5 28.5t-51.5 30t-58 39.5t-54.5 38q-114 -72 -246 -72q-71 0 -113 37t-42 88z" />
<glyph unicode="&#xa5;" d="M72 997q0 71 55 121.5t147 50.5q133 0 226.5 -98.5t136.5 -267.5q77 168 179 268t220 100q67 0 109.5 -38.5t42.5 -112.5q0 -31 -11 -57.5t-21 -36.5l-11 -11q-29 19 -70 19q-209 0 -321 -250q163 9 262 37q20 -18 20 -57q0 -61 -85.5 -98t-252.5 -38q-17 -72 -22 -106 q162 0 280 24q21 -20 21 -61q0 -117 -328 -117q-28 -133 -82.5 -208.5t-126.5 -75.5q-35 0 -64 12t-40 24l-12 13q8 11 21 31.5t43 87.5t48 139q-133 25 -216 67t-83 97q0 12 4.5 21.5t8.5 13.5l4 4q108 -40 307 -60q4 29 4 107q-128 15 -206.5 50.5t-78.5 90.5q0 11 4 20.5 t8 13.5l3 3q96 -23 256 -33q-22 125 -80 182.5t-138 57.5q-29 0 -52 -10t-31 -20l-9 -9q-26 7 -47.5 35.5t-21.5 74.5z" />
<glyph unicode="&#xa6;" horiz-adv-x="813" d="M410 193q0 179 35.5 254t99.5 75q21 0 40 -4.5t27 -9.5l9 -4q-17 -104 -17 -299q0 -172 7 -318t15 -206l7 -60q-17 -14 -58 -14q-56 0 -94.5 86.5t-54.5 214.5t-16 285zM414 1202q0 436 155 436q22 0 41 -4.5t27 -9.5l8 -4q-20 -83 -30.5 -255t-9.5 -332t5 -296 q-18 -14 -57 -14q-38 0 -66 38t-43.5 106.5t-22.5 151t-7 183.5z" />
<glyph unicode="&#xa7;" d="M-18 -162q0 66 34 111t88 45q14 0 26.5 -2.5t17.5 -5.5l6 -2q-23 -120 48.5 -197.5t205.5 -77.5q118 0 182.5 48.5t64.5 131.5q0 50 -31 84t-80.5 52t-109.5 33t-120.5 35.5t-110 51t-80.5 87.5t-31 137q0 86 46.5 155t127.5 111q-55 68 -55 170q0 163 138.5 268 t350.5 105q163 0 268 -71t105 -183q0 -93 -58.5 -130.5t-137.5 -25.5q16 31 16 88q0 76 -59 119t-150 43q-112 0 -180 -55t-68 -140q0 -50 32 -84.5t83 -53.5t113 -34.5t124 -34.5t113 -46.5t83 -78.5t32 -122q0 -93 -51 -164t-136 -111q72 -65 72 -168 q0 -170 -142.5 -276.5t-363.5 -106.5q-187 0 -300 84.5t-113 210.5zM307 385q0 -35 16.5 -63t40.5 -45t64 -33t74.5 -25t85.5 -22.5t84 -24.5q57 23 89 66t32 98q0 44 -23 75t-66.5 48.5t-88 29t-106.5 26.5t-103 30q-99 -57 -99 -160z" />
<glyph unicode="&#xa8;" horiz-adv-x="1024" d="M309 1321q0 72 43 113t105 41q53 0 84.5 -31.5t31.5 -85.5q0 -62 -39.5 -106t-105.5 -44q-52 0 -85.5 31.5t-33.5 81.5zM715 1321q0 72 42.5 113t104.5 41q53 0 85 -31.5t32 -85.5q0 -62 -39.5 -106t-105.5 -44q-52 0 -85.5 31.5t-33.5 81.5z" />
<glyph unicode="&#xa9;" horiz-adv-x="1912" d="M303 408q0 147 40.5 285.5t119 255.5t186 205t249 137.5t300.5 49.5q124 0 233 -40t192 -116t131 -195t48 -267q0 -185 -64 -354.5t-178 -298.5t-284 -206t-369 -77q-124 0 -232.5 40.5t-191.5 116.5t-131.5 195.5t-48.5 268.5zM475 399q0 -220 117.5 -338t333.5 -118 q151 0 283 64.5t223 172t143.5 250.5t52.5 297q0 223 -113.5 340t-332.5 117q-121 0 -231.5 -41t-196 -115t-149 -172t-97 -215.5t-33.5 -241.5zM721 453q0 139 63.5 260t171.5 192.5t234 71.5q80 0 126 -36t46 -93q0 -29 -14 -53t-28 -33l-13 -10q-1 3 -4 7.5t-15 16.5 t-27 21t-41 16.5t-57 7.5q-99 0 -177.5 -100.5t-78.5 -243.5q0 -164 111 -164q36 0 70 12t57 29t40.5 34.5t25.5 29.5l8 12q5 -3 12.5 -9.5t20 -29.5t12.5 -49q0 -80 -86.5 -133t-188.5 -53q-126 0 -197 78.5t-71 218.5z" />
<glyph unicode="&#xaa;" d="M322 965q0 144 76 267.5t206.5 196t284.5 72.5q120 0 178.5 -41.5t58.5 -101.5q0 -13 -5.5 -28t-10.5 -24l-6 -8q-3 3 -8.5 7t-25 14.5t-43 19t-62.5 15t-82 6.5q-157 0 -269 -113.5t-112 -281.5q0 -49 25.5 -76t66.5 -27q159 0 242 309q33 109 129 109q16 0 31 -4t22 -8 l8 -4q-80 -212 -80 -297q0 -99 66 -99q38 0 69 40.5t43 82.5q58 -6 58 -67q0 -75 -66.5 -141t-152.5 -66q-38 0 -68.5 13.5t-46 32.5t-25.5 38.5t-13 32.5l-3 14q-3 -5 -9.5 -14t-29.5 -31.5t-50 -40t-72 -31.5t-95 -14q-108 0 -168.5 71t-60.5 177z" />
<glyph unicode="&#xab;" horiz-adv-x="1470" d="M276 580q147 53 304.5 160.5t271.5 238.5q2 -1 6 -2.5t14 -8.5t17.5 -16t13.5 -26t6 -37q0 -93 -107.5 -197.5t-252.5 -177.5q201 -193 201 -332q0 -37 -18 -69t-50 -45q-113 198 -367 419q-39 39 -39 93zM758 528q140 50 294.5 161.5t268.5 246.5q2 -1 6 -2.5t13.5 -8.5 t16.5 -16t13 -26t6 -37q0 -95 -105 -204t-245 -183q193 -178 193 -316q0 -37 -17.5 -69t-48.5 -45q-107 193 -356 409q-16 12 -27.5 38.5t-11.5 51.5z" />
<glyph unicode="&#xac;" d="M141 641q0 23 5.5 43t10.5 28l5 9q90 -39 225 -39q112 0 219.5 9t181.5 22t132 26t86 22l28 9q19 -18 19 -55q0 -28 -22 -114.5t-48 -213t-33 -242.5q-20 -14 -51 -14q-111 0 -111 182q0 77 31 217q-176 -51 -397 -51q-134 0 -207.5 45.5t-73.5 116.5z" />
<glyph unicode="&#xad;" horiz-adv-x="1011" d="M276 592q0 13 3 26.5t7 21.5l3 7q90 -20 188 -20q292 0 459 118q10 -5 19.5 -25t9.5 -44q0 -102 -117 -173t-326 -71q-118 0 -182 42.5t-64 117.5z" />
<glyph unicode="&#xae;" horiz-adv-x="1912" d="M297 416q0 146 40 283t117.5 253t184 203.5t248 136.5t299.5 49q125 0 234 -40.5t192.5 -117.5t131.5 -198t48 -272q0 -146 -39.5 -283t-117 -253.5t-183.5 -203.5t-247 -136.5t-300 -49.5q-99 0 -189 25.5t-166.5 77.5t-133 126t-88 176.5t-31.5 223.5zM471 408 q0 -225 117.5 -344t333.5 -119q151 0 282.5 63.5t221.5 170t142 247.5t52 295q0 226 -115.5 344.5t-333.5 118.5q-151 0 -282.5 -63t-222.5 -169.5t-143 -248t-52 -295.5zM702 289q0 65 25 149t55 152t55 147t25 135q0 11 -3 24t-6 20l-3 8q8 5 24.5 13.5t85 22t156.5 13.5 q138 0 200 -60t62 -153q0 -110 -78.5 -178t-209.5 -82q42 -92 95.5 -149t119.5 -101q-3 -19 -30.5 -47.5t-72.5 -28.5q-77 0 -154 88t-126 236q-43 -132 -41 -213q0 -18 3 -37.5t6 -29.5l3 -11q-27 -31 -86 -31q-53 0 -79 32t-26 81zM958 612q12 -2 39 -2q96 0 158 36 t62 102q0 88 -115 88q-16 0 -35.5 -3t-30.5 -7l-12 -3q-13 -86 -66 -211z" />
<glyph unicode="&#xaf;" horiz-adv-x="1024" d="M246 1268q0 74 74 120t196 46q209 0 340 -51t131 -136q0 -26 -8 -45t-18 -24q-21 7 -60 18t-164.5 29t-255.5 18q-56 0 -111.5 -6t-83.5 -12l-28 -6q-12 22 -12 49z" />
<glyph unicode="&#xb0;" horiz-adv-x="856" d="M209 1049q0 164 116 281.5t296 117.5q119 0 151 -82q65 0 111.5 -49.5t46.5 -149.5q0 -121 -60 -219t-155 -150.5t-203 -52.5q-137 0 -220 81.5t-83 222.5zM387 1053q0 -76 38 -121t107 -45q101 0 166.5 76t65.5 192q0 76 -38.5 118t-109.5 42q-98 0 -163.5 -75 t-65.5 -187z" />
<glyph unicode="&#xb1;" d="M88 135q0 23 5 42t11 27l5 7q90 -37 223 -37q177 0 340 21t237 42l74 21q21 -18 21 -55q0 -60 -61.5 -106.5t-159.5 -72t-204 -38.5t-212 -13q-133 0 -206 45.5t-73 116.5zM168 694q0 23 5 43t10 29l5 8q91 -37 232 -37h72q34 159 97.5 258t155.5 99q17 0 31.5 -4 t20.5 -8l6 -5q-58 -141 -101 -325q102 11 192 29.5t130 30.5l39 13q20 -18 20 -53q0 -46 -35 -84.5t-96 -65.5t-133 -45.5t-157 -29.5q-29 -180 -39 -271q-21 -16 -58 -16q-104 0 -104 172q0 68 2 103q-147 1 -221 45t-74 114z" />
<glyph unicode="&#xb4;" horiz-adv-x="1024" d="M319 1274q139 8 282 84t226 188q24 -9 43 -39.5t19 -64.5q0 -75 -68.5 -144.5t-160.5 -108t-171 -38.5q-72 0 -119.5 33.5t-50.5 89.5z" />
<glyph unicode="&#xb6;" horiz-adv-x="1609" d="M109 469q0 150 77.5 287t216.5 242.5t348 168t455 62.5q122 0 217 -21t148 -55.5t79.5 -73t26.5 -78.5q0 -16 -6.5 -31t-12.5 -22l-7 -8q-5 5 -15.5 12.5t-50.5 27.5t-87.5 35t-129.5 27.5t-174 12.5q-200 0 -368.5 -48t-280 -128.5t-174 -186.5t-62.5 -223 q0 -150 125 -150q98 0 173 87.5t114 216.5q55 178 95.5 235t115.5 57q16 0 31 -2.5t26 -7t19 -8t14.5 -8t7.5 -4.5q-108 -226 -203.5 -614.5t-134.5 -686.5q-61 2 -94 43.5t-33 122.5q0 170 68 510q-96 -108 -246 -108q-133 0 -205.5 88t-72.5 229zM895 -291 q0 167 112.5 570t198.5 567q59 112 142 112q61 0 112 -38q-125 -224 -260 -640t-192 -706q-51 3 -82 39t-31 96z" />
<glyph unicode="&#xb7;" horiz-adv-x="1011" d="M449 528q0 72 42.5 113t102.5 41q54 0 86.5 -32.5t32.5 -86.5q0 -60 -40 -103.5t-108 -43.5q-51 0 -83.5 30.5t-32.5 81.5z" />
<glyph unicode="&#xb8;" horiz-adv-x="1024" d="M102 -362q0 20 8 36t16 22l9 7q4 -5 13 -12.5t40.5 -20t67.5 -12.5q56 0 90.5 22.5t34.5 61.5q0 55 -94 55q-63 0 -111 -16q1 35 20 69.5t44 59.5t55 67t47 86q3 0 8.5 -1.5t19.5 -6.5t24.5 -12t19 -20t8.5 -29q0 -26 -72 -105q35 0 66.5 -6t62 -20.5t48.5 -42.5t18 -68 q0 -91 -89 -153t-206 -62q-78 0 -113 30.5t-35 70.5z" />
<glyph unicode="&#xba;" d="M342 993q0 89 34.5 179.5t92 163t140.5 118t173 45.5q103 0 131 -82q69 -5 105.5 -62t30.5 -153q59 6 111.5 30.5t76.5 49.5q23 -16 23 -51q0 -55 -67.5 -99t-166.5 -51q-48 -158 -161 -265t-257 -107q-125 0 -195.5 73t-70.5 211zM516 997q0 -147 117 -147 q75 0 146 69.5t98 182.5q-91 48 -91 172q0 27 7 51t13 35l7 10q-126 -9 -211.5 -121.5t-85.5 -251.5z" />
<glyph unicode="&#xbb;" horiz-adv-x="1470" d="M268 174q0 94 106 203.5t244 181.5q-192 177 -192 318q0 36 17.5 68.5t48.5 45.5q111 -199 356 -409q16 -14 27.5 -39.5t11.5 -50.5q-143 -54 -297 -165t-266 -245q-2 1 -6 2.5t-13.5 8.5t-17 16.5t-13.5 26.5t-6 38zM735 131q0 93 108 197.5t253 177.5 q-201 193 -201 332q0 37 18 69t50 45q115 -202 366 -420q39 -39 39 -92q-148 -55 -305 -161.5t-270 -237.5q-2 1 -6 2.5t-14 8.5t-17.5 16t-14 26t-6.5 37z" />
<glyph unicode="&#xbf;" horiz-adv-x="1208" d="M279 307q0 75 20.5 135t55 99t79.5 70t94.5 53t98.5 42.5t93 44t77.5 52t52 71.5t16.5 99q57 0 92 -34t35 -95q0 -60 -27.5 -106.5t-71 -76t-96 -54.5t-105.5 -50t-96.5 -55.5t-71 -78t-27.5 -110.5q0 -77 58.5 -118t158.5 -41q132 0 215.5 78.5t85.5 201.5q14 12 49 12 q40 0 65 -30t25 -82q0 -150 -130 -253.5t-327 -103.5q-188 0 -303.5 89.5t-115.5 240.5zM862 1331q0 62 40 106t108 44q51 0 83.5 -31.5t32.5 -81.5q0 -72 -42.5 -113t-102.5 -41q-54 0 -86.5 31.5t-32.5 85.5z" />
<glyph unicode="&#xc0;" horiz-adv-x="1939" d="M41 332q0 96 39 193t106 175.5t167.5 127.5t213.5 49q86 0 129 -36t43 -96q0 -12 -2.5 -23.5t-4.5 -17.5l-3 -6q-4 4 -13 9.5t-45 14.5t-81 9q-147 0 -242.5 -114t-95.5 -271q0 -97 48 -151t132 -54q67 0 130.5 29t114.5 77.5t102.5 118.5t93 144.5t87 162.5t83 166.5 t83.5 162.5t86 145q229 344 533 344q67 0 113.5 -15.5t70 -44t33.5 -60t10 -71.5q0 -68 -34.5 -168.5t-84 -207t-99 -217t-84 -227.5t-34.5 -210q0 -67 26 -95t83 -28q81 0 167 93t132 211q29 -3 46 -25t17 -61q0 -53 -35 -122.5t-91.5 -132.5t-139 -107t-166.5 -44 q-116 0 -180.5 73.5t-64.5 188.5q0 89 22 185q-87 -42 -214 -58.5t-245 0.5q-56 -87 -113.5 -153.5t-129 -121t-158 -83.5t-184.5 -29q-169 0 -268 96.5t-99 274.5zM1087 512q184 -20 416 72q38 107 107.5 256.5t112 252t42.5 158.5q0 68 -77 68q-88 0 -161.5 -60 t-142.5 -167q-46 -72 -95 -168t-107 -218.5t-95 -193.5zM1430 1866q0 47 29 85t63 46q61 -116 181.5 -197t260.5 -108q-12 -46 -55.5 -72.5t-106.5 -26.5q-75 0 -159.5 32.5t-148.5 97.5t-64 143z" />
<glyph unicode="&#xc1;" horiz-adv-x="1939" d="M41 332q0 96 39 193t106 175.5t167.5 127.5t213.5 49q86 0 129 -36t43 -96q0 -12 -2.5 -23.5t-4.5 -17.5l-3 -6q-4 4 -13 9.5t-45 14.5t-81 9q-147 0 -242.5 -114t-95.5 -271q0 -97 48 -151t132 -54q67 0 130.5 29t114.5 77.5t102.5 118.5t93 144.5t87 162.5t83 166.5 t83.5 162.5t86 145q229 344 533 344q67 0 113.5 -15.5t70 -44t33.5 -60t10 -71.5q0 -68 -34.5 -168.5t-84 -207t-99 -217t-84 -227.5t-34.5 -210q0 -67 26 -95t83 -28q81 0 167 93t132 211q29 -3 46 -25t17 -61q0 -53 -35 -122.5t-91.5 -132.5t-139 -107t-166.5 -44 q-116 0 -180.5 73.5t-64.5 188.5q0 89 22 185q-87 -42 -214 -58.5t-245 0.5q-56 -87 -113.5 -153.5t-129 -121t-158 -83.5t-184.5 -29q-169 0 -268 96.5t-99 274.5zM1087 512q184 -20 416 72q38 107 107.5 256.5t112 252t42.5 158.5q0 68 -77 68q-88 0 -161.5 -60 t-142.5 -167q-46 -72 -95 -168t-107 -218.5t-95 -193.5zM1446 1712q139 8 282 84.5t226 188.5q24 -9 42.5 -40t18.5 -65q0 -76 -68 -145t-160 -107.5t-171 -38.5q-72 0 -119.5 33.5t-50.5 89.5z" />
<glyph unicode="&#xc2;" horiz-adv-x="1939" d="M41 332q0 96 39 193t106 175.5t167.5 127.5t213.5 49q86 0 129 -36t43 -96q0 -12 -2.5 -23.5t-4.5 -17.5l-3 -6q-4 4 -13 9.5t-45 14.5t-81 9q-147 0 -242.5 -114t-95.5 -271q0 -97 48 -151t132 -54q67 0 130.5 29t114.5 77.5t102.5 118.5t93 144.5t87 162.5t83 166.5 t83.5 162.5t86 145q229 344 533 344q67 0 113.5 -15.5t70 -44t33.5 -60t10 -71.5q0 -68 -34.5 -168.5t-84 -207t-99 -217t-84 -227.5t-34.5 -210q0 -67 26 -95t83 -28q81 0 167 93t132 211q29 -3 46 -25t17 -61q0 -53 -35 -122.5t-91.5 -132.5t-139 -107t-166.5 -44 q-116 0 -180.5 73.5t-64.5 188.5q0 89 22 185q-87 -42 -214 -58.5t-245 0.5q-56 -87 -113.5 -153.5t-129 -121t-158 -83.5t-184.5 -29q-169 0 -268 96.5t-99 274.5zM1087 512q184 -20 416 72q38 107 107.5 256.5t112 252t42.5 158.5q0 68 -77 68q-88 0 -161.5 -60 t-142.5 -167q-46 -72 -95 -168t-107 -218.5t-95 -193.5zM1350 1741q132 31 266.5 113.5t208.5 168.5q42 -109 139 -203t199 -120q-9 -47 -46 -77t-87 -30q-63 0 -134.5 47.5t-119.5 133.5q-62 -75 -144.5 -120.5t-144.5 -45.5q-54 0 -92 34.5t-45 98.5z" />
<glyph unicode="&#xc3;" horiz-adv-x="1939" d="M41 332q0 96 39 193t106 175.5t167.5 127.5t213.5 49q86 0 129 -36t43 -96q0 -12 -2.5 -23.5t-4.5 -17.5l-3 -6q-4 4 -13 9.5t-45 14.5t-81 9q-147 0 -242.5 -114t-95.5 -271q0 -97 48 -151t132 -54q67 0 130.5 29t114.5 77.5t102.5 118.5t93 144.5t87 162.5t83 166.5 t83.5 162.5t86 145q229 344 533 344q67 0 113.5 -15.5t70 -44t33.5 -60t10 -71.5q0 -68 -34.5 -168.5t-84 -207t-99 -217t-84 -227.5t-34.5 -210q0 -67 26 -95t83 -28q81 0 167 93t132 211q29 -3 46 -25t17 -61q0 -53 -35 -122.5t-91.5 -132.5t-139 -107t-166.5 -44 q-116 0 -180.5 73.5t-64.5 188.5q0 89 22 185q-87 -42 -214 -58.5t-245 0.5q-56 -87 -113.5 -153.5t-129 -121t-158 -83.5t-184.5 -29q-169 0 -268 96.5t-99 274.5zM1087 512q184 -20 416 72q38 107 107.5 256.5t112 252t42.5 158.5q0 68 -77 68q-88 0 -161.5 -60 t-142.5 -167q-46 -72 -95 -168t-107 -218.5t-95 -193.5zM1298 1722q0 89 65.5 150t168.5 61q52 0 97.5 -17t78.5 -41t63.5 -48t65.5 -41t72 -17q52 0 85.5 31t33.5 78q0 17 -3 31.5t-7 20.5l-3 5q59 9 100.5 -21t41.5 -91q0 -100 -73 -170t-188 -70q-51 0 -97 18t-80 44 t-66.5 52t-69.5 44t-74 18q-43 0 -68.5 -26.5t-25.5 -69.5q0 -13 3 -25.5t6 -19.5l3 -6q-52 -9 -90.5 21.5t-38.5 88.5z" />
<glyph unicode="&#xc4;" horiz-adv-x="1939" d="M41 332q0 96 39 193t106 175.5t167.5 127.5t213.5 49q86 0 129 -36t43 -96q0 -12 -2.5 -23.5t-4.5 -17.5l-3 -6q-4 4 -13 9.5t-45 14.5t-81 9q-147 0 -242.5 -114t-95.5 -271q0 -97 48 -151t132 -54q67 0 130.5 29t114.5 77.5t102.5 118.5t93 144.5t87 162.5t83 166.5 t83.5 162.5t86 145q229 344 533 344q67 0 113.5 -15.5t70 -44t33.5 -60t10 -71.5q0 -68 -34.5 -168.5t-84 -207t-99 -217t-84 -227.5t-34.5 -210q0 -67 26 -95t83 -28q81 0 167 93t132 211q29 -3 46 -25t17 -61q0 -53 -35 -122.5t-91.5 -132.5t-139 -107t-166.5 -44 q-116 0 -180.5 73.5t-64.5 188.5q0 89 22 185q-87 -42 -214 -58.5t-245 0.5q-56 -87 -113.5 -153.5t-129 -121t-158 -83.5t-184.5 -29q-169 0 -268 96.5t-99 274.5zM1087 512q184 -20 416 72q38 107 107.5 256.5t112 252t42.5 158.5q0 68 -77 68q-88 0 -161.5 -60 t-142.5 -167q-46 -72 -95 -168t-107 -218.5t-95 -193.5zM1409 1737q0 72 42.5 112.5t104.5 40.5q53 0 85 -31t32 -85q0 -62 -39.5 -106t-105.5 -44q-52 0 -85.5 31.5t-33.5 81.5zM1815 1737q0 72 42.5 112.5t104.5 40.5q53 0 85 -31t32 -85q0 -62 -40 -106t-106 -44 q-52 0 -85 31.5t-33 81.5z" />
<glyph unicode="&#xc5;" horiz-adv-x="1939" d="M41 332q0 96 39 193t106 175.5t167.5 127.5t213.5 49q86 0 129 -36t43 -96q0 -12 -2.5 -23.5t-4.5 -17.5l-3 -6q-4 4 -13 9.5t-45 14.5t-81 9q-147 0 -242.5 -114t-95.5 -271q0 -97 48 -151t132 -54q67 0 130.5 29t114.5 77.5t102.5 118.5t93 144.5t87 162.5t83 166.5 t83.5 162.5t86 145q229 344 533 344q67 0 113.5 -15.5t70 -44t33.5 -60t10 -71.5q0 -68 -34.5 -168.5t-84 -207t-99 -217t-84 -227.5t-34.5 -210q0 -67 26 -95t83 -28q81 0 167 93t132 211q29 -3 46 -25t17 -61q0 -53 -35 -122.5t-91.5 -132.5t-139 -107t-166.5 -44 q-116 0 -180.5 73.5t-64.5 188.5q0 89 22 185q-87 -42 -214 -58.5t-245 0.5q-56 -87 -113.5 -153.5t-129 -121t-158 -83.5t-184.5 -29q-169 0 -268 96.5t-99 274.5zM1087 512q184 -20 416 72q38 107 107.5 256.5t112 252t42.5 158.5q0 68 -77 68q-88 0 -161.5 -60 t-142.5 -167q-46 -72 -95 -168t-107 -218.5t-95 -193.5zM1528 1765q0 120 82.5 187t197.5 67q102 0 162 -54t60 -146q0 -101 -75.5 -173.5t-201.5 -72.5q-100 0 -162.5 53t-62.5 139zM1669 1782q0 -41 26 -65.5t70 -24.5q54 0 88.5 33t34.5 81q0 44 -25 69.5t-71 25.5 q-49 0 -86 -33t-37 -86z" />
<glyph unicode="&#xc6;" horiz-adv-x="2504" d="M41 332q0 96 39 193t106 175.5t167.5 127.5t213.5 49q85 0 128.5 -38t43.5 -94q0 -12 -2.5 -23.5t-4.5 -17.5l-3 -6q-4 4 -13 9.5t-45 14.5t-81 9q-147 0 -242.5 -114t-95.5 -271q0 -97 48 -151t132 -54q73 0 138 36.5t118 101.5t100 145t92 178.5t85.5 189t90 188.5 t95.5 167q225 344 528 344q143 0 195 -82q157 80 369 80q213 0 323.5 -79t110.5 -204q0 -86 -62.5 -128t-142.5 -31q20 31 20 88q0 90 -72.5 141t-203.5 51q-178 0 -284.5 -88.5t-106.5 -230.5q0 -119 89.5 -185.5t278.5 -66.5q53 0 95 6.5t58 13.5l15 6q15 -14 15 -43 q0 -62 -43 -99.5t-131 -37.5q-38 0 -117.5 8t-118.5 8q-167 0 -253.5 -72t-86.5 -198q0 -109 88.5 -177.5t257.5 -68.5q100 0 195 25.5t164 63.5t130 88t97.5 91t62.5 81q25 -3 40.5 -23t15.5 -55q0 -47 -34.5 -105.5t-102 -118t-156 -108.5t-208 -80t-245.5 -31 q-249 0 -385.5 114t-136.5 290q0 41 8 74q-132 -66 -336 -66q-66 0 -118 8q-51 -88 -104 -154t-120.5 -121t-150.5 -83.5t-180 -28.5q-169 0 -268 95.5t-99 273.5zM1044 512q46 -6 93 -6q109 0 211 27.5t174 76.5q46 32 72 48t72 36.5t93 28.5q-71 51 -109 121t-38 149 q0 163 94 279q-19 47 -82 47q-94 0 -170 -68.5t-151 -191.5q-43 -71 -85 -159.5t-94 -208t-80 -179.5z" />
<glyph unicode="&#xc7;" horiz-adv-x="1236" d="M41 1116q0 73 37 119.5t94 46.5q18 0 34 -4.5t23 -9.5l7 -4q-19 -39 -19 -88q0 -162 113 -248q52 118 127 217.5t169.5 176.5t211.5 121t243 44q165 0 262 -79t97 -226t-92 -267t-255.5 -189t-365.5 -69q-127 0 -262 29q-21 -94 -21 -190q0 -182 93 -277.5t258 -95.5 q100 0 195 33t166.5 85t123 105t82.5 105q25 -3 40 -23t15 -55q0 -53 -47 -122t-124.5 -132.5t-193 -111.5t-237.5 -58q-12 -24 -63 -82q48 0 88.5 -10t73 -42.5t32.5 -84.5q0 -91 -89 -153t-206 -62q-78 0 -112.5 30.5t-34.5 69.5q0 20 8 36.5t16 22.5l9 7q4 -5 12.5 -12.5 t40 -20.5t67.5 -13q56 0 90.5 22.5t34.5 61.5q0 56 -94 56q-59 0 -110 -17q0 35 15 63.5t50.5 69.5t48.5 60q-229 18 -345 162t-116 372q0 138 37 271q-227 121 -227 360zM512 852q100 -25 240 -25q214 0 353.5 99t139.5 235q0 76 -45 116t-133 40q-179 0 -326.5 -131 t-228.5 -334z" />
<glyph unicode="&#xc8;" horiz-adv-x="1150" d="M51 334q0 147 93 251t257 138q-71 51 -109 121t-38 149q0 104 42 194t120.5 157.5t200 106t270.5 38.5q213 0 323.5 -79t110.5 -204q0 -95 -57.5 -133t-147.5 -26q21 31 21 88q0 90 -72.5 141t-204.5 51q-178 0 -283.5 -88t-105.5 -231q0 -119 89 -185.5t278 -66.5 q53 0 95.5 6.5t58.5 13.5l16 6q14 -14 14 -43q0 -62 -44 -99.5t-132 -37.5q-38 0 -117 8t-119 8q-167 0 -253.5 -72t-86.5 -198q0 -109 88.5 -177.5t257.5 -68.5q101 0 196 25.5t164 63.5t130 88t97.5 91t62.5 81q55 -7 55 -78q0 -47 -34.5 -105.5t-102 -118t-156 -108.5 t-208 -80t-245.5 -31q-248 0 -386 114t-138 290zM655 1866q0 47 29 85t64 46q61 -116 181.5 -197t260.5 -108q-12 -46 -55.5 -72.5t-106.5 -26.5q-75 0 -159.5 32.5t-149 97.5t-64.5 143z" />
<glyph unicode="&#xc9;" horiz-adv-x="1150" d="M51 334q0 147 93 251t257 138q-71 51 -109 121t-38 149q0 104 42 194t120.5 157.5t200 106t270.5 38.5q213 0 323.5 -79t110.5 -204q0 -95 -57.5 -133t-147.5 -26q21 31 21 88q0 90 -72.5 141t-204.5 51q-178 0 -283.5 -88t-105.5 -231q0 -119 89 -185.5t278 -66.5 q53 0 95.5 6.5t58.5 13.5l16 6q14 -14 14 -43q0 -62 -44 -99.5t-132 -37.5q-38 0 -117 8t-119 8q-167 0 -253.5 -72t-86.5 -198q0 -109 88.5 -177.5t257.5 -68.5q101 0 196 25.5t164 63.5t130 88t97.5 91t62.5 81q55 -7 55 -78q0 -47 -34.5 -105.5t-102 -118t-156 -108.5 t-208 -80t-245.5 -31q-248 0 -386 114t-138 290zM633 1712q139 8 282 84.5t226 188.5q24 -9 42.5 -40t18.5 -65q0 -76 -68 -145t-160 -107.5t-171 -38.5q-72 0 -119.5 33.5t-50.5 89.5z" />
<glyph unicode="&#xca;" horiz-adv-x="1150" d="M51 334q0 147 93 251t257 138q-71 51 -109 121t-38 149q0 104 42 194t120.5 157.5t200 106t270.5 38.5q213 0 323.5 -79t110.5 -204q0 -95 -57.5 -133t-147.5 -26q21 31 21 88q0 90 -72.5 141t-204.5 51q-178 0 -283.5 -88t-105.5 -231q0 -119 89 -185.5t278 -66.5 q53 0 95.5 6.5t58.5 13.5l16 6q14 -14 14 -43q0 -62 -44 -99.5t-132 -37.5q-38 0 -117 8t-119 8q-167 0 -253.5 -72t-86.5 -198q0 -109 88.5 -177.5t257.5 -68.5q101 0 196 25.5t164 63.5t130 88t97.5 91t62.5 81q55 -7 55 -78q0 -47 -34.5 -105.5t-102 -118t-156 -108.5 t-208 -80t-245.5 -31q-248 0 -386 114t-138 290zM518 1739q132 31 266.5 113.5t208.5 168.5q42 -109 139 -203t199 -120q-9 -47 -46 -77t-87 -30q-63 0 -134.5 47.5t-119.5 133.5q-62 -75 -144.5 -120.5t-144.5 -45.5q-54 0 -92 34.5t-45 98.5z" />
<glyph unicode="&#xcb;" horiz-adv-x="1150" d="M51 334q0 147 93 251t257 138q-71 51 -109 121t-38 149q0 104 42 194t120.5 157.5t200 106t270.5 38.5q213 0 323.5 -79t110.5 -204q0 -95 -57.5 -133t-147.5 -26q21 31 21 88q0 90 -72.5 141t-204.5 51q-178 0 -283.5 -88t-105.5 -231q0 -119 89 -185.5t278 -66.5 q53 0 95.5 6.5t58.5 13.5l16 6q14 -14 14 -43q0 -62 -44 -99.5t-132 -37.5q-38 0 -117 8t-119 8q-167 0 -253.5 -72t-86.5 -198q0 -109 88.5 -177.5t257.5 -68.5q101 0 196 25.5t164 63.5t130 88t97.5 91t62.5 81q55 -7 55 -78q0 -47 -34.5 -105.5t-102 -118t-156 -108.5 t-208 -80t-245.5 -31q-248 0 -386 114t-138 290zM573 1735q0 72 43 112.5t105 40.5q53 0 85 -31t32 -85q0 -62 -40 -106t-106 -44q-52 0 -85.5 31.5t-33.5 81.5zM979 1735q0 72 42.5 112.5t104.5 40.5q53 0 85 -31t32 -85q0 -62 -39.5 -106t-105.5 -44q-52 0 -85.5 31.5 t-33.5 81.5z" />
<glyph unicode="&#xcc;" horiz-adv-x="1179" d="M43 317q0 94 33.5 184t93 161.5t151 115t199.5 43.5q89 0 137 -37.5t48 -107.5q0 -14 -3.5 -26.5t-7.5 -18.5l-4 -6q-5 4 -14.5 10.5t-45 17.5t-79.5 11q-133 0 -218 -96t-85 -242q0 -107 53.5 -159t147.5 -52q113 0 213 80.5t170 207t121 282t75.5 307.5t24.5 280 q-12 7 -36 16.5t-106 26t-174 16.5q-110 0 -172.5 -55.5t-62.5 -151.5q0 -36 8 -64.5t16 -39.5l9 -10q-86 -11 -144.5 37.5t-58.5 142.5q0 138 109.5 226.5t318.5 88.5q88 0 173 -12.5t143 -30.5t103 -35.5t67 -30.5l22 -12q0 -130 -16 -268t-50 -280t-83 -273t-119.5 -246 t-154 -200t-192 -134t-229.5 -49q-176 0 -278.5 96.5t-102.5 286.5zM635 1868q0 47 29 85t63 46q61 -116 181.5 -197t260.5 -108q-12 -46 -55 -72.5t-106 -26.5q-75 0 -159.5 32.5t-149 97.5t-64.5 143z" />
<glyph unicode="&#xcd;" horiz-adv-x="1179" d="M43 317q0 94 33.5 184t93 161.5t151 115t199.5 43.5q89 0 137 -37.5t48 -107.5q0 -14 -3.5 -26.5t-7.5 -18.5l-4 -6q-5 4 -14.5 10.5t-45 17.5t-79.5 11q-133 0 -218 -96t-85 -242q0 -107 53.5 -159t147.5 -52q113 0 213 80.5t170 207t121 282t75.5 307.5t24.5 280 q-12 7 -36 16.5t-106 26t-174 16.5q-110 0 -172.5 -55.5t-62.5 -151.5q0 -36 8 -64.5t16 -39.5l9 -10q-86 -11 -144.5 37.5t-58.5 142.5q0 138 109.5 226.5t318.5 88.5q88 0 173 -12.5t143 -30.5t103 -35.5t67 -30.5l22 -12q0 -130 -16 -268t-50 -280t-83 -273t-119.5 -246 t-154 -200t-192 -134t-229.5 -49q-176 0 -278.5 96.5t-102.5 286.5zM680 1714q139 8 282 84.5t226 188.5q24 -9 42.5 -40t18.5 -65q0 -76 -68 -145t-160 -107.5t-171 -38.5q-72 0 -119.5 33.5t-50.5 89.5z" />
<glyph unicode="&#xce;" horiz-adv-x="1179" d="M43 317q0 94 33.5 184t93 161.5t151 115t199.5 43.5q89 0 137 -37.5t48 -107.5q0 -14 -3.5 -26.5t-7.5 -18.5l-4 -6q-5 4 -14.5 10.5t-45 17.5t-79.5 11q-133 0 -218 -96t-85 -242q0 -107 53.5 -159t147.5 -52q113 0 213 80.5t170 207t121 282t75.5 307.5t24.5 280 q-12 7 -36 16.5t-106 26t-174 16.5q-110 0 -172.5 -55.5t-62.5 -151.5q0 -36 8 -64.5t16 -39.5l9 -10q-86 -11 -144.5 37.5t-58.5 142.5q0 138 109.5 226.5t318.5 88.5q88 0 173 -12.5t143 -30.5t103 -35.5t67 -30.5l22 -12q0 -130 -16 -268t-50 -280t-83 -273t-119.5 -246 t-154 -200t-192 -134t-229.5 -49q-176 0 -278.5 96.5t-102.5 286.5zM553 1739q132 31 266.5 113.5t208.5 168.5q42 -109 139 -203t199 -120q-9 -47 -46 -77t-87 -30q-63 0 -134.5 47.5t-119.5 133.5q-62 -75 -144.5 -120.5t-144.5 -45.5q-54 0 -92 34.5t-45 98.5z" />
<glyph unicode="&#xcf;" horiz-adv-x="1179" d="M43 317q0 94 33.5 184t93 161.5t151 115t199.5 43.5q89 0 137 -37.5t48 -107.5q0 -14 -3.5 -26.5t-7.5 -18.5l-4 -6q-5 4 -14.5 10.5t-45 17.5t-79.5 11q-133 0 -218 -96t-85 -242q0 -107 53.5 -159t147.5 -52q113 0 213 80.5t170 207t121 282t75.5 307.5t24.5 280 q-12 7 -36 16.5t-106 26t-174 16.5q-110 0 -172.5 -55.5t-62.5 -151.5q0 -36 8 -64.5t16 -39.5l9 -10q-86 -11 -144.5 37.5t-58.5 142.5q0 138 109.5 226.5t318.5 88.5q88 0 173 -12.5t143 -30.5t103 -35.5t67 -30.5l22 -12q0 -130 -16 -268t-50 -280t-83 -273t-119.5 -246 t-154 -200t-192 -134t-229.5 -49q-176 0 -278.5 96.5t-102.5 286.5zM573 1737q0 72 43 112.5t105 40.5q53 0 85 -31t32 -85q0 -62 -40 -106t-106 -44q-52 0 -85.5 31.5t-33.5 81.5zM979 1737q0 72 42.5 112.5t104.5 40.5q53 0 85 -31t32 -85q0 -62 -39.5 -106t-105.5 -44 q-52 0 -85.5 31.5t-33.5 81.5z" />
<glyph unicode="&#xd0;" horiz-adv-x="1597" d="M43 395q0 112 41 178t104 66q21 0 40 -6.5t28 -13.5l8 -7q-5 -8 -12 -22t-19 -61.5t-12 -98.5q0 -94 46 -169t145 -116q84 126 163 340q-79 12 -122 51t-43 97q0 12 3 23.5t6 16.5l3 5q90 -19 213 -19q107 353 119 621q-129 -45 -224 -118.5t-145 -145.5 q-20 4 -38.5 26.5t-18.5 63.5q0 49 34 103t100.5 105.5t155 93t208 66.5t249.5 25q276 0 421.5 -137t145.5 -377q0 -127 -34.5 -255.5t-97.5 -244t-156 -216.5t-203.5 -174.5t-247 -115.5t-280.5 -42q-126 0 -227 27t-166 71.5t-108 105t-61 123.5t-18 131zM614 106 q108 -7 214 23.5t195 89.5t165.5 143t129 181t82.5 207t30 219q0 185 -96.5 272.5t-284.5 87.5q-90 0 -156 -14q45 -33 45 -117q0 -190 -92 -514q122 27 221 92q10 -5 18.5 -21t8.5 -38q0 -83 -81.5 -146.5t-230.5 -83.5q-80 -234 -168 -381z" />
<glyph unicode="&#xd1;" horiz-adv-x="1841" d="M41 309q0 90 29 174t83 151.5t138 108.5t186 41q85 0 131.5 -37.5t46.5 -97.5q0 -15 -4 -28.5t-8 -20.5l-4 -6q-5 5 -14.5 11.5t-42 18t-68.5 11.5q-123 0 -198.5 -87t-75.5 -218q0 -100 55 -155.5t145 -55.5q78 0 143 45t110 123.5t78.5 176t53.5 213.5t30 223t13 216 q0 62 -4 152q-77 30 -157 30q-38 0 -70.5 -8t-52.5 -19t-34 -23t-20 -20t-6 -9q-2 0 -6 1.5t-14.5 8t-18 15t-14 26t-6.5 39.5q0 90 76 139t182 49q132 0 251.5 -49t215.5 -138.5t173 -204.5t136 -257q24 137 67 251.5t103.5 202.5t143.5 137.5t180 49.5q68 0 106.5 -35 t38.5 -90q0 -59 -30 -92.5t-62 -42.5q0 2 -1 5.5t-5.5 11.5t-12 14.5t-23 12t-36.5 5.5q-82 0 -154.5 -103t-116.5 -280t-44 -379q0 -304 139 -491q-4 -5 -12.5 -11.5t-36 -18t-57.5 -11.5q-150 0 -218 360q-43 228 -150.5 438.5t-250.5 339.5q0 -90 -7 -186.5t-27 -215 t-51 -226t-83 -211t-118.5 -179t-162.5 -121.5t-210 -46q-164 0 -265.5 97t-101.5 275zM924 1724q0 89 65 150t168 61q52 0 97.5 -17t78.5 -40.5t63.5 -47.5t65.5 -41t72 -17q52 0 85.5 30.5t33.5 77.5q0 17 -3.5 31.5t-6.5 20.5l-3 5q59 9 100.5 -21t41.5 -91 q0 -100 -72.5 -170t-187.5 -70q-51 0 -97 18t-80 44t-66.5 52t-69.5 44t-74 18q-43 0 -69 -26.5t-26 -69.5q0 -13 3 -25.5t7 -19.5l3 -6q-52 -9 -90.5 21.5t-38.5 88.5z" />
<glyph unicode="&#xd2;" horiz-adv-x="1384" d="M82 489q0 137 40.5 279.5t118.5 270.5t181.5 228.5t240 160t283.5 59.5q157 0 233 -60.5t76 -142.5q0 -16 -5 -32t-10 -24l-5 -7q-3 4 -9 10.5t-30 23t-53.5 29t-80 23t-108.5 10.5q-111 0 -214.5 -47.5t-182.5 -129t-139 -186t-91.5 -222.5t-31.5 -234q0 -178 84 -268.5 t237 -90.5q159 0 295 101.5t213.5 267t77.5 352.5q0 104 -47.5 164.5t-122.5 60.5q1 4 4 10.5t14.5 23t26 29.5t41 23.5t58.5 10.5q97 0 161 -82.5t64 -218.5q0 -135 -38 -269t-110.5 -250t-169 -206t-223.5 -141.5t-264 -51.5q-257 0 -385.5 142t-128.5 384zM733 1868 q0 47 29 85t63 46q61 -116 182 -197t261 -108q-12 -46 -55.5 -72.5t-106.5 -26.5q-75 0 -159.5 32.5t-149 97.5t-64.5 143z" />
<glyph unicode="&#xd3;" horiz-adv-x="1384" d="M82 489q0 137 40.5 279.5t118.5 270.5t181.5 228.5t240 160t283.5 59.5q157 0 233 -60.5t76 -142.5q0 -16 -5 -32t-10 -24l-5 -7q-3 4 -9 10.5t-30 23t-53.5 29t-80 23t-108.5 10.5q-111 0 -214.5 -47.5t-182.5 -129t-139 -186t-91.5 -222.5t-31.5 -234q0 -178 84 -268.5 t237 -90.5q159 0 295 101.5t213.5 267t77.5 352.5q0 104 -47.5 164.5t-122.5 60.5q1 4 4 10.5t14.5 23t26 29.5t41 23.5t58.5 10.5q97 0 161 -82.5t64 -218.5q0 -135 -38 -269t-110.5 -250t-169 -206t-223.5 -141.5t-264 -51.5q-257 0 -385.5 142t-128.5 384zM684 1712 q139 8 282 84.5t226 188.5q24 -9 42.5 -40t18.5 -65q0 -76 -68 -145t-160 -107.5t-171 -38.5q-72 0 -119.5 33.5t-50.5 89.5z" />
<glyph unicode="&#xd4;" horiz-adv-x="1384" d="M82 489q0 137 40.5 279.5t118.5 270.5t181.5 228.5t240 160t283.5 59.5q157 0 233 -60.5t76 -142.5q0 -16 -5 -32t-10 -24l-5 -7q-3 4 -9 10.5t-30 23t-53.5 29t-80 23t-108.5 10.5q-111 0 -214.5 -47.5t-182.5 -129t-139 -186t-91.5 -222.5t-31.5 -234q0 -178 84 -268.5 t237 -90.5q159 0 295 101.5t213.5 267t77.5 352.5q0 104 -47.5 164.5t-122.5 60.5q1 4 4 10.5t14.5 23t26 29.5t41 23.5t58.5 10.5q97 0 161 -82.5t64 -218.5q0 -135 -38 -269t-110.5 -250t-169 -206t-223.5 -141.5t-264 -51.5q-257 0 -385.5 142t-128.5 384zM625 1741 q132 31 266.5 113.5t208.5 168.5q42 -109 139 -203t199 -120q-9 -47 -46 -77t-87 -30q-63 0 -134.5 47.5t-119.5 133.5q-62 -75 -144.5 -120.5t-144.5 -45.5q-54 0 -92 34.5t-45 98.5z" />
<glyph unicode="&#xd5;" horiz-adv-x="1384" d="M82 489q0 137 40.5 279.5t118.5 270.5t181.5 228.5t240 160t283.5 59.5q157 0 233 -60.5t76 -142.5q0 -16 -5 -32t-10 -24l-5 -7q-3 4 -9 10.5t-30 23t-53.5 29t-80 23t-108.5 10.5q-111 0 -214.5 -47.5t-182.5 -129t-139 -186t-91.5 -222.5t-31.5 -234q0 -178 84 -268.5 t237 -90.5q159 0 295 101.5t213.5 267t77.5 352.5q0 104 -47.5 164.5t-122.5 60.5q1 4 4 10.5t14.5 23t26 29.5t41 23.5t58.5 10.5q97 0 161 -82.5t64 -218.5q0 -135 -38 -269t-110.5 -250t-169 -206t-223.5 -141.5t-264 -51.5q-257 0 -385.5 142t-128.5 384zM588 1716 q0 89 65 150t168 61q52 0 97.5 -17t78.5 -41t63.5 -48t65.5 -41t72 -17q52 0 85.5 31t33.5 78q0 17 -3 31.5t-6 20.5l-3 5q59 9 100 -21t41 -91q0 -100 -72.5 -170t-187.5 -70q-51 0 -97 18t-80 44t-66.5 52t-69.5 44t-74 18q-43 0 -68.5 -26.5t-25.5 -69.5q0 -13 3 -25.5 t6 -19.5l3 -6q-52 -9 -90.5 21.5t-38.5 88.5z" />
<glyph unicode="&#xd6;" horiz-adv-x="1384" d="M82 489q0 137 40.5 279.5t118.5 270.5t181.5 228.5t240 160t283.5 59.5q157 0 233 -60.5t76 -142.5q0 -16 -5 -32t-10 -24l-5 -7q-3 4 -9 10.5t-30 23t-53.5 29t-80 23t-108.5 10.5q-111 0 -214.5 -47.5t-182.5 -129t-139 -186t-91.5 -222.5t-31.5 -234q0 -178 84 -268.5 t237 -90.5q159 0 295 101.5t213.5 267t77.5 352.5q0 104 -47.5 164.5t-122.5 60.5q1 4 4 10.5t14.5 23t26 29.5t41 23.5t58.5 10.5q97 0 161 -82.5t64 -218.5q0 -135 -38 -269t-110.5 -250t-169 -206t-223.5 -141.5t-264 -51.5q-257 0 -385.5 142t-128.5 384zM668 1737 q0 72 42.5 112.5t104.5 40.5q53 0 85 -31t32 -85q0 -62 -40 -106t-106 -44q-52 0 -85 31.5t-33 81.5zM1073 1737q0 72 43 112.5t105 40.5q53 0 84.5 -31t31.5 -85q0 -62 -39.5 -106t-105.5 -44q-52 0 -85.5 31.5t-33.5 81.5z" />
<glyph unicode="&#xd7;" d="M139 500q152 16 312 73q-76 183 -76 289q0 68 37 121t88 53q43 -157 139 -383q166 81 342 211q4 -3 10.5 -8t17.5 -24.5t11 -43.5q0 -70 -85 -151t-218 -154q77 -167 141 -293q-4 -14 -30 -31.5t-56 -17.5q-49 0 -112 71t-125 185q-133 -53 -232 -53q-75 0 -119.5 44 t-44.5 112z" />
<glyph unicode="&#xd8;" horiz-adv-x="1384" d="M82 489q0 137 40.5 279.5t118.5 270.5t181.5 228.5t240 160t283.5 59.5q144 0 228 -60q102 128 159.5 170.5t120.5 42.5q74 0 111 -49q-129 -134 -340 -417q77 -18 126.5 -97t49.5 -196q0 -135 -38 -269t-110.5 -250t-169 -206t-223.5 -141.5t-264 -51.5q-97 0 -180 25 q-95 -153 -152 -252q-39 4 -60.5 30t-21.5 66q0 52 92 217q-192 135 -192 440zM295 498q0 -175 84 -262q140 240 338.5 541t359.5 521q-63 19 -123 19q-111 0 -214.5 -47.5t-182.5 -129t-139 -186t-91.5 -222.5t-31.5 -234zM522 152q47 -13 94 -13q159 0 295 101.5 t213.5 267t77.5 352.5q0 125 -74 182q-291 -400 -606 -890z" />
<glyph unicode="&#xd9;" horiz-adv-x="1605" d="M41 1034q0 204 131 335.5t336 131.5q112 0 196.5 -33.5t134 -92t73.5 -130t24 -155.5q0 -94 -36 -192t-87.5 -179t-103 -156.5t-87.5 -149t-36 -130.5q0 -129 137 -129q86 0 166.5 47t140.5 122t103.5 158t66.5 166q106 385 150 507q88 248 185 308q37 23 79 23 q38 0 59 -20t21 -54q0 -61 -40 -168t-97 -229t-113.5 -249.5t-96.5 -260.5t-40 -232q0 -70 25.5 -98.5t80.5 -28.5q84 0 170 93.5t133 212.5q28 -3 46 -25.5t18 -60.5q0 -53 -35.5 -122.5t-93 -132.5t-140.5 -107t-168 -44q-118 0 -175.5 71t-51.5 189q-7 -10 -20 -27 t-58 -60t-93.5 -76t-124 -60t-152.5 -27q-129 0 -215 74t-86 205q0 60 20.5 122.5t53.5 117.5t73 111t80 112.5t73 112.5t53.5 121t20.5 128q0 113 -60.5 181.5t-178.5 68.5q-114 0 -191.5 -71t-77.5 -208q0 -86 51 -141t138 -55q26 0 48.5 5.5t31.5 10.5l10 6q8 -10 8 -26 q0 -54 -49 -90.5t-119 -36.5q-77 0 -138.5 27.5t-98 73.5t-55.5 101t-19 115zM786 1868q0 47 29 85t64 46q61 -116 181.5 -197t260.5 -108q-12 -46 -55.5 -72.5t-106.5 -26.5q-75 0 -159.5 32.5t-149 97.5t-64.5 143z" />
<glyph unicode="&#xda;" horiz-adv-x="1605" d="M41 1034q0 204 131 335.5t336 131.5q112 0 196.5 -33.5t134 -92t73.5 -130t24 -155.5q0 -94 -36 -192t-87.5 -179t-103 -156.5t-87.5 -149t-36 -130.5q0 -129 137 -129q86 0 166.5 47t140.5 122t103.5 158t66.5 166q106 385 150 507q88 248 185 308q37 23 79 23 q38 0 59 -20t21 -54q0 -61 -40 -168t-97 -229t-113.5 -249.5t-96.5 -260.5t-40 -232q0 -70 25.5 -98.5t80.5 -28.5q84 0 170 93.5t133 212.5q28 -3 46 -25.5t18 -60.5q0 -53 -35.5 -122.5t-93 -132.5t-140.5 -107t-168 -44q-118 0 -175.5 71t-51.5 189q-7 -10 -20 -27 t-58 -60t-93.5 -76t-124 -60t-152.5 -27q-129 0 -215 74t-86 205q0 60 20.5 122.5t53.5 117.5t73 111t80 112.5t73 112.5t53.5 121t20.5 128q0 113 -60.5 181.5t-178.5 68.5q-114 0 -191.5 -71t-77.5 -208q0 -86 51 -141t138 -55q26 0 48.5 5.5t31.5 10.5l10 6q8 -10 8 -26 q0 -54 -49 -90.5t-119 -36.5q-77 0 -138.5 27.5t-98 73.5t-55.5 101t-19 115zM934 1712q139 8 282 84.5t226 188.5q24 -9 42.5 -40t18.5 -65q0 -76 -68 -145t-160 -107.5t-171 -38.5q-72 0 -119.5 33.5t-50.5 89.5z" />
<glyph unicode="&#xdb;" horiz-adv-x="1605" d="M41 1034q0 204 131 335.5t336 131.5q112 0 196.5 -33.5t134 -92t73.5 -130t24 -155.5q0 -94 -36 -192t-87.5 -179t-103 -156.5t-87.5 -149t-36 -130.5q0 -129 137 -129q86 0 166.5 47t140.5 122t103.5 158t66.5 166q106 385 150 507q88 248 185 308q37 23 79 23 q38 0 59 -20t21 -54q0 -61 -40 -168t-97 -229t-113.5 -249.5t-96.5 -260.5t-40 -232q0 -70 25.5 -98.5t80.5 -28.5q84 0 170 93.5t133 212.5q28 -3 46 -25.5t18 -60.5q0 -53 -35.5 -122.5t-93 -132.5t-140.5 -107t-168 -44q-118 0 -175.5 71t-51.5 189q-7 -10 -20 -27 t-58 -60t-93.5 -76t-124 -60t-152.5 -27q-129 0 -215 74t-86 205q0 60 20.5 122.5t53.5 117.5t73 111t80 112.5t73 112.5t53.5 121t20.5 128q0 113 -60.5 181.5t-178.5 68.5q-114 0 -191.5 -71t-77.5 -208q0 -86 51 -141t138 -55q26 0 48.5 5.5t31.5 10.5l10 6q8 -10 8 -26 q0 -54 -49 -90.5t-119 -36.5q-77 0 -138.5 27.5t-98 73.5t-55.5 101t-19 115zM764 1739q132 31 266.5 113.5t208.5 168.5q42 -109 139 -203t199 -120q-9 -47 -46 -77t-87 -30q-63 0 -134.5 47.5t-119.5 133.5q-62 -75 -144.5 -120.5t-144.5 -45.5q-54 0 -92 34.5t-45 98.5z " />
<glyph unicode="&#xdc;" horiz-adv-x="1605" d="M41 1034q0 204 131 335.5t336 131.5q112 0 196.5 -33.5t134 -92t73.5 -130t24 -155.5q0 -94 -36 -192t-87.5 -179t-103 -156.5t-87.5 -149t-36 -130.5q0 -129 137 -129q86 0 166.5 47t140.5 122t103.5 158t66.5 166q106 385 150 507q88 248 185 308q37 23 79 23 q38 0 59 -20t21 -54q0 -61 -40 -168t-97 -229t-113.5 -249.5t-96.5 -260.5t-40 -232q0 -70 25.5 -98.5t80.5 -28.5q84 0 170 93.5t133 212.5q28 -3 46 -25.5t18 -60.5q0 -53 -35.5 -122.5t-93 -132.5t-140.5 -107t-168 -44q-118 0 -175.5 71t-51.5 189q-7 -10 -20 -27 t-58 -60t-93.5 -76t-124 -60t-152.5 -27q-129 0 -215 74t-86 205q0 60 20.5 122.5t53.5 117.5t73 111t80 112.5t73 112.5t53.5 121t20.5 128q0 113 -60.5 181.5t-178.5 68.5q-114 0 -191.5 -71t-77.5 -208q0 -86 51 -141t138 -55q26 0 48.5 5.5t31.5 10.5l10 6q8 -10 8 -26 q0 -54 -49 -90.5t-119 -36.5q-77 0 -138.5 27.5t-98 73.5t-55.5 101t-19 115zM803 1737q0 72 42.5 112.5t104.5 40.5q53 0 85 -31t32 -85q0 -62 -39.5 -106t-105.5 -44q-52 0 -85.5 31.5t-33.5 81.5zM1208 1737q0 72 43 112.5t105 40.5q53 0 85 -31t32 -85q0 -62 -40 -106 t-106 -44q-52 0 -85.5 31.5t-33.5 81.5z" />
<glyph unicode="&#xdd;" horiz-adv-x="1548" d="M51 1040q0 200 131 330.5t336 130.5q112 0 196.5 -32.5t134 -90t73.5 -128t24 -154.5q0 -94 -35 -182.5t-84.5 -155.5t-99 -129t-84.5 -126t-35 -122q0 -61 35 -94t102 -33q87 0 170.5 45t146 117t108 154.5t67.5 164.5q97 367 137 480q70 196 154 247q38 23 84 23 q38 0 60 -20t22 -54q0 -59 -35 -155.5t-89 -218.5t-111.5 -263t-110 -331t-76.5 -380q141 47 233.5 147.5t155.5 240.5q26 -3 43.5 -26t17.5 -58q0 -62 -33 -132t-91.5 -136t-151.5 -119.5t-203 -77.5q-56 -188 -206.5 -297t-354.5 -109q-125 0 -202 59t-77 146 q0 84 49.5 145.5t144.5 99t213.5 57.5t276.5 28q45 239 54 274q-7 -10 -20 -26t-57.5 -56.5t-93.5 -72t-125 -57t-155 -25.5q-129 0 -215 73.5t-86 204.5q0 83 37.5 160t90.5 139.5t106.5 125.5t91 142.5t37.5 165.5q0 111 -61.5 177.5t-178.5 66.5q-114 0 -191 -70 t-77 -202q0 -85 51 -140t137 -55q26 0 48.5 6t31.5 12l10 5q8 -11 8 -27q0 -54 -49 -90.5t-119 -36.5q-78 0 -139 27.5t-97.5 73t-55.5 100t-19 114.5zM602 -279q0 -73 119 -73q107 0 198 67t125 160q-198 -8 -320 -47t-122 -107zM946 1712q139 8 282 84.5t226 188.5 q24 -9 43 -40t19 -65q0 -75 -68.5 -144.5t-160.5 -108t-171 -38.5q-72 0 -119.5 33.5t-50.5 89.5z" />
<glyph unicode="&#xde;" horiz-adv-x="1710" d="M41 276q0 125 67.5 201t165.5 76q28 0 50 -8.5t33 -20.5t18.5 -24t9.5 -20l2 -9q-63 -3 -100 -40.5t-37 -98.5q0 -71 59 -101q0 -47 31 -74.5t84 -27.5q102 0 188.5 81.5t147 222t102 306.5t64.5 355q-145 -47 -231.5 -140t-86.5 -202q-24 -19 -65 -19q-43 0 -67.5 28 t-24.5 81q0 134 138 254t353 174q8 156 8 227q37 12 68 12q56 0 89.5 -33t33.5 -102q0 -49 -2 -74q20 5 75 5q268 0 410.5 -116t142.5 -329q0 -186 -101.5 -321t-278.5 -203t-410 -68q-57 0 -88 2q-188 -321 -486 -321q-160 0 -261 88.5t-101 238.5zM973 442q9 0 26 -1 t25 -1q118 0 214.5 24.5t168.5 73t112 127t40 181.5q0 143 -94.5 218t-272.5 75q-48 0 -64 -4q-32 -391 -155 -693z" />
<glyph unicode="&#xdf;" horiz-adv-x="1050" d="M-403 -311q0 83 50 136.5t132 53.5q20 0 37.5 -7.5t25.5 -14.5l8 -7q-6 -5 -15.5 -14.5t-25.5 -40t-16 -61.5q0 -86 78 -86q49 0 85.5 26.5t67.5 92t49 188t23 303.5q7 224 32.5 405.5t77 336t127 258.5t186 162.5t251.5 58.5q159 0 250.5 -82.5t91.5 -218.5 q0 -75 -23 -138t-59.5 -105t-81 -76t-89 -59.5t-81 -48t-59.5 -47.5t-23 -53q0 -25 15.5 -45.5t40 -36.5t54.5 -32.5t59.5 -38t54 -48t40 -69t15.5 -94.5q0 -137 -101 -231.5t-266 -94.5q-94 0 -149.5 42t-55.5 106q0 28 11.5 50t23.5 30l11 8q1 -3 4 -8.5t15.5 -20 t28.5 -25t45 -19.5t64 -9q80 0 127 46t47 109q0 42 -16 75t-41 54.5t-55.5 39.5t-61 35.5t-55.5 37.5t-41 50.5t-16 68.5q0 48 23 88.5t59.5 71t81 59t88.5 59t80.5 64.5t59.5 81.5t23 104.5q0 63 -48 103.5t-126 40.5q-75 0 -138 -36t-110 -104.5t-82.5 -160.5t-59 -210.5 t-37.5 -249t-19 -280.5q-14 -402 -123.5 -590t-331.5 -188q-112 0 -174.5 55.5t-62.5 149.5z" />
<glyph unicode="&#xe0;" horiz-adv-x="1110" d="M35 287q0 148 58.5 283t157 233.5t236 156.5t289.5 58q150 0 224.5 -58t74.5 -135q0 -15 -4 -28.5t-8 -20.5l-4 -6q-3 3 -10 9t-33 21t-56.5 26t-82 20.5t-109.5 9.5q-143 0 -264.5 -74t-193.5 -204.5t-72 -288.5q0 -75 33 -114.5t96 -39.5q57 0 107.5 31t86 77t67 114 t51 128t38.5 133q40 138 157 138q18 0 35 -4t25 -8l8 -3q-111 -357 -111 -458q0 -79 21.5 -109.5t69.5 -30.5q80 0 166.5 95t132.5 213q29 -3 46 -25t17 -61q0 -53 -34 -122t-89 -132.5t-136.5 -107.5t-166.5 -44q-48 0 -84.5 15.5t-56.5 37.5t-32.5 51t-16.5 52t-4 45 q-4 -8 -12.5 -21t-39.5 -46.5t-67.5 -59.5t-96.5 -47t-126 -21q-138 0 -212.5 90t-74.5 232zM473 1423q0 47 29 85t63 46q61 -116 182 -197t261 -108q-12 -46 -55.5 -72t-106.5 -26q-55 0 -119 19.5t-121 53.5t-95 87t-38 112z" />
<glyph unicode="&#xe1;" horiz-adv-x="1110" d="M35 287q0 148 58.5 283t157 233.5t236 156.5t289.5 58q150 0 224.5 -58t74.5 -135q0 -15 -4 -28.5t-8 -20.5l-4 -6q-3 3 -10 9t-33 21t-56.5 26t-82 20.5t-109.5 9.5q-143 0 -264.5 -74t-193.5 -204.5t-72 -288.5q0 -75 33 -114.5t96 -39.5q57 0 107.5 31t86 77t67 114 t51 128t38.5 133q40 138 157 138q18 0 35 -4t25 -8l8 -3q-111 -357 -111 -458q0 -79 21.5 -109.5t69.5 -30.5q80 0 166.5 95t132.5 213q29 -3 46 -25t17 -61q0 -53 -34 -122t-89 -132.5t-136.5 -107.5t-166.5 -44q-48 0 -84.5 15.5t-56.5 37.5t-32.5 51t-16.5 52t-4 45 q-4 -8 -12.5 -21t-39.5 -46.5t-67.5 -59.5t-96.5 -47t-126 -21q-138 0 -212.5 90t-74.5 232zM494 1274q139 8 281.5 84t225.5 188q24 -9 43 -39.5t19 -64.5q0 -76 -68 -145t-160 -107.5t-171 -38.5q-72 0 -119.5 33.5t-50.5 89.5z" />
<glyph unicode="&#xe2;" horiz-adv-x="1110" d="M35 287q0 148 58.5 283t157 233.5t236 156.5t289.5 58q150 0 224.5 -58t74.5 -135q0 -15 -4 -28.5t-8 -20.5l-4 -6q-3 3 -10 9t-33 21t-56.5 26t-82 20.5t-109.5 9.5q-143 0 -264.5 -74t-193.5 -204.5t-72 -288.5q0 -75 33 -114.5t96 -39.5q57 0 107.5 31t86 77t67 114 t51 128t38.5 133q40 138 157 138q18 0 35 -4t25 -8l8 -3q-111 -357 -111 -458q0 -79 21.5 -109.5t69.5 -30.5q80 0 166.5 95t132.5 213q29 -3 46 -25t17 -61q0 -53 -34 -122t-89 -132.5t-136.5 -107.5t-166.5 -44q-48 0 -84.5 15.5t-56.5 37.5t-32.5 51t-16.5 52t-4 45 q-4 -8 -12.5 -21t-39.5 -46.5t-67.5 -59.5t-96.5 -47t-126 -21q-138 0 -212.5 90t-74.5 232zM354 1296q132 31 266 114t209 169q42 -109 139 -203.5t199 -120.5q-9 -47 -46 -76.5t-87 -29.5q-63 0 -134.5 47t-119.5 133q-62 -75 -144.5 -120.5t-143.5 -45.5q-55 0 -93 34.5 t-45 98.5z" />
<glyph unicode="&#xe3;" horiz-adv-x="1110" d="M35 287q0 148 58.5 283t157 233.5t236 156.5t289.5 58q150 0 224.5 -58t74.5 -135q0 -15 -4 -28.5t-8 -20.5l-4 -6q-3 3 -10 9t-33 21t-56.5 26t-82 20.5t-109.5 9.5q-143 0 -264.5 -74t-193.5 -204.5t-72 -288.5q0 -75 33 -114.5t96 -39.5q57 0 107.5 31t86 77t67 114 t51 128t38.5 133q40 138 157 138q18 0 35 -4t25 -8l8 -3q-111 -357 -111 -458q0 -79 21.5 -109.5t69.5 -30.5q80 0 166.5 95t132.5 213q29 -3 46 -25t17 -61q0 -53 -34 -122t-89 -132.5t-136.5 -107.5t-166.5 -44q-48 0 -84.5 15.5t-56.5 37.5t-32.5 51t-16.5 52t-4 45 q-4 -8 -12.5 -21t-39.5 -46.5t-67.5 -59.5t-96.5 -47t-126 -21q-138 0 -212.5 90t-74.5 232zM360 1278q0 89 65.5 150t168.5 61q52 0 97.5 -17t78.5 -41t63.5 -48t65.5 -41t72 -17q52 0 85.5 31t33.5 78q0 17 -3 31.5t-7 20.5l-3 5q59 9 100.5 -21.5t41.5 -91.5 q0 -100 -72.5 -169.5t-188.5 -69.5q-51 0 -97 18t-80 44t-66.5 52t-69.5 44t-74 18q-43 0 -68.5 -26.5t-25.5 -69.5q0 -13 3 -26t6 -19l3 -7q-51 -9 -90 22t-39 89z" />
<glyph unicode="&#xe4;" horiz-adv-x="1110" d="M35 287q0 148 58.5 283t157 233.5t236 156.5t289.5 58q150 0 224.5 -58t74.5 -135q0 -15 -4 -28.5t-8 -20.5l-4 -6q-3 3 -10 9t-33 21t-56.5 26t-82 20.5t-109.5 9.5q-143 0 -264.5 -74t-193.5 -204.5t-72 -288.5q0 -75 33 -114.5t96 -39.5q57 0 107.5 31t86 77t67 114 t51 128t38.5 133q40 138 157 138q18 0 35 -4t25 -8l8 -3q-111 -357 -111 -458q0 -79 21.5 -109.5t69.5 -30.5q80 0 166.5 95t132.5 213q29 -3 46 -25t17 -61q0 -53 -34 -122t-89 -132.5t-136.5 -107.5t-166.5 -44q-48 0 -84.5 15.5t-56.5 37.5t-32.5 51t-16.5 52t-4 45 q-4 -8 -12.5 -21t-39.5 -46.5t-67.5 -59.5t-96.5 -47t-126 -21q-138 0 -212.5 90t-74.5 232zM459 1321q0 72 42.5 113t104.5 41q53 0 85 -31.5t32 -85.5q0 -62 -39.5 -106t-105.5 -44q-52 0 -85.5 31.5t-33.5 81.5zM864 1321q0 72 43 113t105 41q53 0 84.5 -31.5t31.5 -85.5 q0 -62 -39.5 -106t-105.5 -44q-52 0 -85.5 31.5t-33.5 81.5z" />
<glyph unicode="&#xe5;" horiz-adv-x="1110" d="M35 287q0 148 58.5 283t157 233.5t236 156.5t289.5 58q150 0 224.5 -58t74.5 -135q0 -15 -4 -28.5t-8 -20.5l-4 -6q-3 3 -10 9t-33 21t-56.5 26t-82 20.5t-109.5 9.5q-143 0 -264.5 -74t-193.5 -204.5t-72 -288.5q0 -75 33 -114.5t96 -39.5q57 0 107.5 31t86 77t67 114 t51 128t38.5 133q40 138 157 138q18 0 35 -4t25 -8l8 -3q-111 -357 -111 -458q0 -79 21.5 -109.5t69.5 -30.5q80 0 166.5 95t132.5 213q29 -3 46 -25t17 -61q0 -53 -34 -122t-89 -132.5t-136.5 -107.5t-166.5 -44q-48 0 -84.5 15.5t-56.5 37.5t-32.5 51t-16.5 52t-4 45 q-4 -8 -12.5 -21t-39.5 -46.5t-67.5 -59.5t-96.5 -47t-126 -21q-138 0 -212.5 90t-74.5 232zM537 1298q0 120 82.5 187t197.5 67q101 0 161 -54t60 -146q0 -101 -75 -173.5t-201 -72.5q-100 0 -162.5 53t-62.5 139zM678 1315q0 -41 26 -65.5t70 -24.5q54 0 88.5 33t34.5 81 q0 45 -25.5 70t-70.5 25q-49 0 -86 -33t-37 -86z" />
<glyph unicode="&#xe6;" horiz-adv-x="1431" d="M35 287q0 148 58.5 283t157 233.5t236 156.5t289.5 58q147 0 232 -64q86 47 190 47q116 0 182 -57.5t66 -161.5q0 -84 -35 -158t-91 -128.5t-133.5 -100t-156 -75t-164.5 -50.5q16 -139 166 -139q83 0 169 33.5t153 85t116.5 103t79.5 98.5q24 -3 40 -23.5t16 -54.5 q0 -56 -50.5 -127t-130.5 -133.5t-193.5 -105t-225.5 -42.5q-247 0 -316 209q-5 -10 -19 -29.5t-47 -52t-73 -60t-101 -47.5t-126 -20q-138 0 -213.5 90t-75.5 232zM238 289q0 -71 34 -112.5t95 -41.5q207 0 323 393q55 191 176 318q-33 10 -98 10q-143 0 -264.5 -74 t-193.5 -204.5t-72 -288.5zM862 410q171 52 281 142.5t110 195.5q0 90 -88 90q-71 0 -139 -62.5t-112.5 -161.5t-51.5 -204z" />
<glyph unicode="&#xe7;" horiz-adv-x="815" d="M37 336q0 117 40.5 235.5t110.5 215t174 157t220 60.5q247 0 247 -209q0 -96 -52.5 -152.5t-133.5 -56.5q-22 0 -39 6.5t-23 13.5l-6 6q7 7 17 19.5t26.5 51t16.5 75.5q0 86 -84 86q-72 0 -143.5 -68t-118.5 -185t-47 -245q0 -103 50.5 -156t137.5 -53q83 0 166.5 32.5 t148.5 83t112 101t77 97.5q24 -3 39.5 -23.5t15.5 -54.5q0 -55 -49 -125t-127 -132t-189 -105.5t-221 -45.5q-21 -36 -59 -76q35 0 66.5 -6t62 -20.5t48.5 -42.5t18 -68q0 -91 -89 -153t-206 -62q-78 0 -113 30.5t-35 70.5q0 20 8 36t16 22l9 7q4 -5 13 -12.5t40.5 -20 t67.5 -12.5q56 0 90.5 22.5t34.5 61.5q0 55 -94 55q-63 0 -111 -16q0 35 15.5 64t52 70.5t51.5 61.5q-125 28 -188.5 124t-63.5 235z" />
<glyph unicode="&#xe8;" horiz-adv-x="800" d="M35 338q0 117 39.5 235t107.5 213t169.5 155t215.5 60q116 0 182 -57.5t66 -161.5q0 -84 -35 -158t-91 -128.5t-133 -100t-155.5 -75t-164.5 -50.5q16 -139 165 -139q83 0 169 33.5t153.5 85t117 103t79.5 98.5q24 -3 39.5 -23.5t15.5 -54.5q0 -56 -50.5 -127 t-130.5 -133.5t-193.5 -105t-225.5 -42.5q-174 0 -257 102t-83 271zM231 410q171 52 281.5 142.5t110.5 195.5q0 90 -88 90q-71 0 -139.5 -62t-113 -161.5t-51.5 -204.5zM307 1423q0 47 29 85t63 46q61 -116 182 -197t261 -108q-12 -46 -55.5 -72t-106.5 -26 q-55 0 -119 19.5t-121 53.5t-95 87t-38 112z" />
<glyph unicode="&#xe9;" horiz-adv-x="800" d="M35 338q0 117 39.5 235t107.5 213t169.5 155t215.5 60q116 0 182 -57.5t66 -161.5q0 -84 -35 -158t-91 -128.5t-133 -100t-155.5 -75t-164.5 -50.5q16 -139 165 -139q83 0 169 33.5t153.5 85t117 103t79.5 98.5q24 -3 39.5 -23.5t15.5 -54.5q0 -56 -50.5 -127 t-130.5 -133.5t-193.5 -105t-225.5 -42.5q-174 0 -257 102t-83 271zM231 410q171 52 281.5 142.5t110.5 195.5q0 90 -88 90q-71 0 -139.5 -62t-113 -161.5t-51.5 -204.5zM332 1274q139 8 282 84t226 188q24 -9 42.5 -39.5t18.5 -64.5q0 -76 -68 -145t-160 -107.5t-171 -38.5 q-72 0 -119.5 33.5t-50.5 89.5z" />
<glyph unicode="&#xea;" horiz-adv-x="800" d="M35 338q0 117 39.5 235t107.5 213t169.5 155t215.5 60q116 0 182 -57.5t66 -161.5q0 -84 -35 -158t-91 -128.5t-133 -100t-155.5 -75t-164.5 -50.5q16 -139 165 -139q83 0 169 33.5t153.5 85t117 103t79.5 98.5q24 -3 39.5 -23.5t15.5 -54.5q0 -56 -50.5 -127 t-130.5 -133.5t-193.5 -105t-225.5 -42.5q-174 0 -257 102t-83 271zM172 1296q132 31 266 114t209 169q42 -109 139 -203.5t199 -120.5q-9 -47 -46 -76.5t-87 -29.5q-63 0 -134.5 47t-119.5 133q-62 -75 -144.5 -120.5t-144.5 -45.5q-54 0 -92 34.5t-45 98.5zM231 410 q171 52 281.5 142.5t110.5 195.5q0 90 -88 90q-71 0 -139.5 -62t-113 -161.5t-51.5 -204.5z" />
<glyph unicode="&#xeb;" horiz-adv-x="800" d="M35 338q0 117 39.5 235t107.5 213t169.5 155t215.5 60q116 0 182 -57.5t66 -161.5q0 -84 -35 -158t-91 -128.5t-133 -100t-155.5 -75t-164.5 -50.5q16 -139 165 -139q83 0 169 33.5t153.5 85t117 103t79.5 98.5q24 -3 39.5 -23.5t15.5 -54.5q0 -56 -50.5 -127 t-130.5 -133.5t-193.5 -105t-225.5 -42.5q-174 0 -257 102t-83 271zM231 410q171 52 281.5 142.5t110.5 195.5q0 90 -88 90q-71 0 -139.5 -62t-113 -161.5t-51.5 -204.5zM279 1321q0 72 42.5 113t104.5 41q53 0 85 -31.5t32 -85.5q0 -62 -40 -106t-106 -44q-52 0 -85 31.5 t-33 81.5zM684 1321q0 72 42.5 113t104.5 41q53 0 85 -31.5t32 -85.5q0 -62 -39.5 -106t-105.5 -44q-52 0 -85.5 31.5t-33.5 81.5z" />
<glyph unicode="&#xec;" horiz-adv-x="532" d="M39 174q0 62 20 136.5t48.5 148t57 152t49.5 175t22 189.5q42 12 75 12q57 0 92 -35t35 -104q0 -71 -29 -165t-63 -169t-63 -157t-29 -132q0 -42 18.5 -61t57.5 -19q84 0 173.5 94t139.5 212q28 -3 46 -25.5t18 -60.5q0 -53 -35.5 -122.5t-93.5 -132.5t-142 -107 t-170 -44q-108 0 -167.5 55.5t-59.5 159.5zM76 1423q0 47 29 85t63 46q61 -116 181.5 -197t260.5 -108q-12 -46 -55 -72t-106 -26q-55 0 -119 19.5t-121 53.5t-95 87t-38 112z" />
<glyph unicode="&#xed;" horiz-adv-x="532" d="M39 174q0 62 20 136.5t48.5 148t57 152t49.5 175t22 189.5q42 12 75 12q57 0 92 -35t35 -104q0 -71 -29 -165t-63 -169t-63 -157t-29 -132q0 -42 18.5 -61t57.5 -19q84 0 173.5 94t139.5 212q28 -3 46 -25.5t18 -60.5q0 -53 -35.5 -122.5t-93.5 -132.5t-142 -107 t-170 -44q-108 0 -167.5 55.5t-59.5 159.5zM104 1274q139 8 282 84t226 188q24 -9 43 -39.5t19 -64.5q0 -75 -68.5 -144.5t-160.5 -108t-171 -38.5q-72 0 -119.5 33.5t-50.5 89.5z" />
<glyph unicode="&#xee;" horiz-adv-x="532" d="M-31 1296q132 31 266 114t209 169q42 -109 139 -203.5t199 -120.5q-9 -47 -46 -76.5t-87 -29.5q-63 0 -134.5 47t-119.5 133q-62 -75 -144.5 -120.5t-144.5 -45.5q-54 0 -92 34.5t-45 98.5zM39 174q0 62 20 136.5t48.5 148t57 152t49.5 175t22 189.5q42 12 75 12 q57 0 92 -35t35 -104q0 -71 -29 -165t-63 -169t-63 -157t-29 -132q0 -42 18.5 -61t57.5 -19q84 0 173.5 94t139.5 212q28 -3 46 -25.5t18 -60.5q0 -53 -35.5 -122.5t-93.5 -132.5t-142 -107t-170 -44q-108 0 -167.5 55.5t-59.5 159.5z" />
<glyph unicode="&#xef;" horiz-adv-x="532" d="M31 1321q0 72 42.5 113t104.5 41q53 0 85 -31.5t32 -85.5q0 -62 -39.5 -106t-105.5 -44q-52 0 -85.5 31.5t-33.5 81.5zM39 174q0 62 20 136.5t48.5 148t57 152t49.5 175t22 189.5q42 12 75 12q57 0 92 -35t35 -104q0 -71 -29 -165t-63 -169t-63 -157t-29 -132 q0 -42 18.5 -61t57.5 -19q84 0 173.5 94t139.5 212q28 -3 46 -25.5t18 -60.5q0 -53 -35.5 -122.5t-93.5 -132.5t-142 -107t-170 -44q-108 0 -167.5 55.5t-59.5 159.5zM436 1321q0 72 43 113t105 41q53 0 84.5 -31.5t31.5 -85.5q0 -62 -39.5 -106t-105.5 -44 q-52 0 -85.5 31.5t-33.5 81.5z" />
<glyph unicode="&#xf0;" horiz-adv-x="993" d="M35 283q0 188 87.5 349.5t245 259t349.5 97.5h24q-16 76 -41 137q-138 -61 -241 -61q-62 0 -99.5 37.5t-37.5 85.5q147 13 294 69q-92 106 -237 121q11 49 56 81t118 32q151 0 262 -143q100 53 195 127q4 -2 9.5 -6.5t15 -20.5t9.5 -35q0 -42 -43 -92t-116 -98 q73 -165 73 -396q0 -193 -52 -358.5t-138.5 -275.5t-196.5 -172t-227 -62q-143 0 -226 83t-83 241zM231 281q0 -75 36.5 -117.5t97.5 -42.5q105 0 197 88t147 241t55 332q0 18 -1 36.5t-1 19.5h-49q-139 0 -249.5 -74t-171.5 -201.5t-61 -281.5z" />
<glyph unicode="&#xf1;" horiz-adv-x="1028" d="M27 131q0 80 28 186t62 196.5t62 214.5t28 235q39 14 72 14q116 0 116 -139q0 -18 -3 -39.5t-7.5 -40.5t-9 -35.5t-7.5 -26.5l-3 -10q4 8 22.5 36t62.5 79.5t95 96t124.5 78.5t145.5 34q88 0 136 -53.5t48 -143.5q0 -70 -36.5 -158.5t-80 -158.5t-80 -148t-36.5 -129 q0 -78 74 -78q79 0 163.5 94.5t135.5 215.5q28 -3 45.5 -25.5t17.5 -60.5q0 -53 -35 -122.5t-91 -132.5t-138.5 -107t-167.5 -44q-104 0 -158.5 53.5t-54.5 147.5q0 68 34.5 158t76 161.5t76 147t34.5 118.5q0 32 -13 47t-42 15q-59 0 -130 -51t-137 -136.5t-122 -188.5 t-90.5 -218t-36.5 -213q-24 -12 -51 -12q-56 0 -92.5 36t-36.5 107zM219 1278q0 89 65.5 150t168.5 61q52 0 97.5 -17t78 -41t63 -48t65.5 -41t72 -17q52 0 85.5 31t33.5 78q0 17 -3 31.5t-6 20.5l-3 5q59 9 100 -21.5t41 -91.5q0 -100 -72.5 -169.5t-187.5 -69.5 q-51 0 -97 18t-80 44t-66.5 52t-69.5 44t-74 18q-43 0 -68.5 -26.5t-25.5 -69.5q0 -13 3 -26t6 -19l3 -7q-51 -9 -90 22t-39 89z" />
<glyph unicode="&#xf2;" horiz-adv-x="1017" d="M45 338q0 172 77.5 330.5t208 256t275.5 97.5q66 0 107.5 -27.5t52.5 -72.5q85 0 133.5 -65t48.5 -165q0 -17 -1 -33.5t-2 -26t-1 -11.5q185 6 299 108q17 -25 17 -51q0 -73 -97 -134.5t-243 -68.5q-27 -102 -77 -193t-118 -163.5t-158 -115t-188 -42.5q-156 0 -245 97 t-89 280zM246 344q0 -103 42.5 -160t121.5 -57q109 0 206.5 113t128.5 272q-57 33 -90.5 92.5t-33.5 132.5q0 85 41 135q-4 0 -12.5 1t-12.5 1q-96 0 -186 -72t-147.5 -196t-57.5 -262zM354 1423q0 47 29 85t63 46q61 -116 182 -197t261 -108q-12 -46 -55.5 -72t-106.5 -26 q-55 0 -119 19.5t-121 53.5t-95 87t-38 112z" />
<glyph unicode="&#xf3;" horiz-adv-x="1017" d="M45 338q0 172 77.5 330.5t208 256t275.5 97.5q66 0 107.5 -27.5t52.5 -72.5q85 0 133.5 -65t48.5 -165q0 -17 -1 -33.5t-2 -26t-1 -11.5q185 6 299 108q17 -25 17 -51q0 -73 -97 -134.5t-243 -68.5q-27 -102 -77 -193t-118 -163.5t-158 -115t-188 -42.5q-156 0 -245 97 t-89 280zM246 344q0 -103 42.5 -160t121.5 -57q109 0 206.5 113t128.5 272q-57 33 -90.5 92.5t-33.5 132.5q0 85 41 135q-4 0 -12.5 1t-12.5 1q-96 0 -186 -72t-147.5 -196t-57.5 -262zM356 1274q139 8 282 84t226 188q24 -9 43 -39.5t19 -64.5q0 -75 -68.5 -144.5 t-160.5 -108t-171 -38.5q-72 0 -119.5 33.5t-50.5 89.5z" />
<glyph unicode="&#xf4;" horiz-adv-x="1017" d="M45 338q0 172 77.5 330.5t208 256t275.5 97.5q66 0 107.5 -27.5t52.5 -72.5q85 0 133.5 -65t48.5 -165q0 -17 -1 -33.5t-2 -26t-1 -11.5q185 6 299 108q17 -25 17 -51q0 -73 -97 -134.5t-243 -68.5q-27 -102 -77 -193t-118 -163.5t-158 -115t-188 -42.5q-156 0 -245 97 t-89 280zM240 1296q132 31 266 114t209 169q42 -109 139 -203.5t199 -120.5q-9 -47 -46 -76.5t-87 -29.5q-63 0 -134.5 47t-119.5 133q-62 -75 -144.5 -120.5t-144.5 -45.5q-54 0 -92 34.5t-45 98.5zM246 344q0 -103 42.5 -160t121.5 -57q109 0 206.5 113t128.5 272 q-57 33 -90.5 92.5t-33.5 132.5q0 85 41 135q-4 0 -12.5 1t-12.5 1q-96 0 -186 -72t-147.5 -196t-57.5 -262z" />
<glyph unicode="&#xf5;" horiz-adv-x="1017" d="M45 338q0 172 77.5 330.5t208 256t275.5 97.5q66 0 107.5 -27.5t52.5 -72.5q85 0 133.5 -65t48.5 -165q0 -17 -1 -33.5t-2 -26t-1 -11.5q185 6 299 108q17 -25 17 -51q0 -73 -97 -134.5t-243 -68.5q-27 -102 -77 -193t-118 -163.5t-158 -115t-188 -42.5q-156 0 -245 97 t-89 280zM209 1278q0 89 65 150t168 61q52 0 97.5 -17t78.5 -41t63.5 -48t65.5 -41t72 -17q52 0 85.5 31t33.5 78q0 17 -3 31.5t-6 20.5l-3 5q59 9 100 -21.5t41 -91.5q0 -100 -72.5 -169.5t-187.5 -69.5q-51 0 -97 18t-80 44t-66.5 52t-69.5 44t-74 18q-43 0 -68.5 -26.5 t-25.5 -69.5q0 -13 3 -26t6 -19l3 -7q-51 -9 -90 22t-39 89zM246 344q0 -103 42.5 -160t121.5 -57q109 0 206.5 113t128.5 272q-57 33 -90.5 92.5t-33.5 132.5q0 85 41 135q-4 0 -12.5 1t-12.5 1q-96 0 -186 -72t-147.5 -196t-57.5 -262z" />
<glyph unicode="&#xf6;" horiz-adv-x="1017" d="M45 338q0 172 77.5 330.5t208 256t275.5 97.5q66 0 107.5 -27.5t52.5 -72.5q85 0 133.5 -65t48.5 -165q0 -17 -1 -33.5t-2 -26t-1 -11.5q185 6 299 108q17 -25 17 -51q0 -73 -97 -134.5t-243 -68.5q-27 -102 -77 -193t-118 -163.5t-158 -115t-188 -42.5q-156 0 -245 97 t-89 280zM246 344q0 -103 42.5 -160t121.5 -57q109 0 206.5 113t128.5 272q-57 33 -90.5 92.5t-33.5 132.5q0 85 41 135q-4 0 -12.5 1t-12.5 1q-96 0 -186 -72t-147.5 -196t-57.5 -262zM317 1321q0 72 43 113t105 41q53 0 85 -31.5t32 -85.5q0 -62 -40 -106t-106 -44 q-52 0 -85.5 31.5t-33.5 81.5zM723 1321q0 72 42.5 113t104.5 41q53 0 85 -31.5t32 -85.5q0 -62 -39.5 -106t-105.5 -44q-52 0 -85.5 31.5t-33.5 81.5z" />
<glyph unicode="&#xf7;" d="M139 598q0 23 5.5 43t10.5 29l5 8q90 -39 223 -39q177 0 340 22t237 44l74 22q21 -18 21 -55q0 -60 -61.5 -107.5t-159 -75t-205 -41.5t-211.5 -14q-133 0 -206 46.5t-73 117.5zM406 160q0 72 42.5 112.5t104.5 40.5q53 0 85 -31t32 -85q0 -62 -40 -106t-106 -44 q-52 0 -85 31.5t-33 81.5zM520 903q0 72 43 113t103 41q54 0 86 -31.5t32 -85.5q0 -62 -39.5 -105.5t-107.5 -43.5q-51 0 -84 31.5t-33 80.5z" />
<glyph unicode="&#xf8;" horiz-adv-x="985" d="M45 338q0 172 77.5 330.5t208 256t275.5 97.5q80 0 125 -45q30 39 49.5 61t50 51t61.5 42.5t64 13.5q29 0 49.5 -9.5t26.5 -18.5l6 -9q-69 -75 -190 -236q46 -25 71 -82t25 -135q0 -96 -25 -194.5t-74.5 -188t-116.5 -159t-158 -111t-191 -41.5q-54 0 -107 16 q-88 -149 -131 -227q-32 3 -49.5 25t-17.5 59q0 55 76 207q-105 97 -105 297zM240 344q0 -63 20 -96q209 371 391 620q-119 0 -215.5 -80.5t-146 -199t-49.5 -244.5zM367 131q12 -4 43 -4q85 0 167 72t133.5 189t51.5 239q0 66 -29 86q-142 -202 -366 -582z" />
<glyph unicode="&#xf9;" horiz-adv-x="1091" d="M49 211q0 76 31 173.5t68 178.5t69 192.5t33 213.5q39 12 72 12q57 0 92 -34.5t35 -104.5q0 -67 -29.5 -155.5t-65 -160.5t-65 -152t-29.5 -132q0 -82 76 -82q98 0 210.5 133t190 323.5t86.5 354.5q25 10 54 10q58 0 95.5 -34.5t37.5 -106.5q0 -73 -26 -160.5t-58 -155.5 t-58 -149t-26 -142q0 -45 17 -67.5t59 -22.5q81 0 166.5 94.5t132.5 213.5q29 -3 47 -26t18 -63q0 -53 -34 -122t-89 -131.5t-136.5 -106t-166.5 -43.5q-114 0 -162 73t-37 187q-6 -10 -18 -27t-51.5 -60.5t-81.5 -77t-106 -60.5t-128 -27q-104 0 -163.5 62t-59.5 182z M365 1423q0 47 29 85t63 46q61 -116 181.5 -197t260.5 -108q-12 -46 -55.5 -72t-106.5 -26q-55 0 -118.5 19.5t-120.5 53.5t-95 87t-38 112z" />
<glyph unicode="&#xfa;" horiz-adv-x="1091" d="M49 211q0 76 31 173.5t68 178.5t69 192.5t33 213.5q39 12 72 12q57 0 92 -34.5t35 -104.5q0 -67 -29.5 -155.5t-65 -160.5t-65 -152t-29.5 -132q0 -82 76 -82q98 0 210.5 133t190 323.5t86.5 354.5q25 10 54 10q58 0 95.5 -34.5t37.5 -106.5q0 -73 -26 -160.5t-58 -155.5 t-58 -149t-26 -142q0 -45 17 -67.5t59 -22.5q81 0 166.5 94.5t132.5 213.5q29 -3 47 -26t18 -63q0 -53 -34 -122t-89 -131.5t-136.5 -106t-166.5 -43.5q-114 0 -162 73t-37 187q-6 -10 -18 -27t-51.5 -60.5t-81.5 -77t-106 -60.5t-128 -27q-104 0 -163.5 62t-59.5 182z M440 1274q139 8 282 84t226 188q24 -9 43 -39.5t19 -64.5q0 -75 -68.5 -144.5t-160.5 -108t-171 -38.5q-72 0 -119.5 33.5t-50.5 89.5z" />
<glyph unicode="&#xfb;" horiz-adv-x="1091" d="M49 211q0 76 31 173.5t68 178.5t69 192.5t33 213.5q39 12 72 12q57 0 92 -34.5t35 -104.5q0 -67 -29.5 -155.5t-65 -160.5t-65 -152t-29.5 -132q0 -82 76 -82q98 0 210.5 133t190 323.5t86.5 354.5q25 10 54 10q58 0 95.5 -34.5t37.5 -106.5q0 -73 -26 -160.5t-58 -155.5 t-58 -149t-26 -142q0 -45 17 -67.5t59 -22.5q81 0 166.5 94.5t132.5 213.5q29 -3 47 -26t18 -63q0 -53 -34 -122t-89 -131.5t-136.5 -106t-166.5 -43.5q-114 0 -162 73t-37 187q-6 -10 -18 -27t-51.5 -60.5t-81.5 -77t-106 -60.5t-128 -27q-104 0 -163.5 62t-59.5 182z M287 1296q132 31 266 114t209 169q42 -109 139 -203.5t199 -120.5q-9 -47 -46 -76.5t-87 -29.5q-63 0 -134.5 47t-119.5 133q-62 -75 -144.5 -120.5t-144.5 -45.5q-54 0 -92 34.5t-45 98.5z" />
<glyph unicode="&#xfc;" horiz-adv-x="1091" d="M49 211q0 76 31 173.5t68 178.5t69 192.5t33 213.5q39 12 72 12q57 0 92 -34.5t35 -104.5q0 -67 -29.5 -155.5t-65 -160.5t-65 -152t-29.5 -132q0 -82 76 -82q98 0 210.5 133t190 323.5t86.5 354.5q25 10 54 10q58 0 95.5 -34.5t37.5 -106.5q0 -73 -26 -160.5t-58 -155.5 t-58 -149t-26 -142q0 -45 17 -67.5t59 -22.5q81 0 166.5 94.5t132.5 213.5q29 -3 47 -26t18 -63q0 -53 -34 -122t-89 -131.5t-136.5 -106t-166.5 -43.5q-114 0 -162 73t-37 187q-6 -10 -18 -27t-51.5 -60.5t-81.5 -77t-106 -60.5t-128 -27q-104 0 -163.5 62t-59.5 182z M375 1321q0 72 42.5 113t104.5 41q53 0 85 -31.5t32 -85.5q0 -62 -39.5 -106t-105.5 -44q-52 0 -85.5 31.5t-33.5 81.5zM780 1321q0 72 43 113t105 41q53 0 84.5 -31.5t31.5 -85.5q0 -62 -39.5 -106t-105.5 -44q-52 0 -85.5 31.5t-33.5 81.5z" />
<glyph unicode="&#xfd;" horiz-adv-x="1081" d="M-57 -293q0 84 48.5 145t141.5 98t210 56.5t273 26.5q31 184 64 284q-7 -10 -20 -26.5t-55 -59.5t-86 -75.5t-109 -59t-127 -26.5q-105 0 -165.5 54t-60.5 163q0 70 29.5 157.5t64.5 159t65.5 172.5t31.5 195q40 10 71 10q56 0 90.5 -31.5t34.5 -95.5q0 -62 -28 -144 t-62 -148t-62 -139t-28 -120q0 -74 74 -74q76 0 161 73.5t152 183.5t113.5 242.5t52.5 244.5q24 8 53 8q58 0 94.5 -31.5t36.5 -99.5q0 -63 -24.5 -153t-57 -173.5t-68 -210.5t-52.5 -247q264 92 395 385q26 -3 43.5 -26t17.5 -58q0 -61 -34.5 -132t-95.5 -136.5 t-154 -118.5t-199 -76q-53 -187 -200 -295.5t-349 -108.5q-125 0 -202.5 59.5t-77.5 147.5zM139 -274q0 -74 119 -74q106 0 197.5 66.5t124.5 158.5q-196 -6 -318.5 -45.5t-122.5 -105.5zM428 1274q139 8 282 84t226 188q24 -9 42.5 -39.5t18.5 -64.5q0 -76 -68 -145 t-160 -107.5t-171 -38.5q-72 0 -119.5 33.5t-50.5 89.5z" />
<glyph unicode="&#xfe;" horiz-adv-x="1087" d="M-164 -442q-1 73 33.5 190t80.5 233.5t101.5 290.5t87.5 330q25 124 60.5 240.5t90 236t119.5 207.5t153 143.5t186 55.5q97 0 153.5 -56t56.5 -145q0 -180 -192 -381q114 -9 179 -81.5t65 -194.5q0 -127 -47 -240.5t-125 -202.5q129 45 227.5 120t138.5 149 q26 -5 42 -27t16 -59q0 -52 -37.5 -107t-109 -105.5t-166 -90.5t-218.5 -63.5t-256 -23.5q-105 0 -155 43t-50 105q0 25 11 44t23 25l11 7q1 -3 3 -8t12.5 -18t25 -22.5t42 -17.5t61.5 -8q45 0 93.5 20.5t95.5 62.5t84 98.5t60 136.5t23 169q0 140 -135 140 q-130 0 -251.5 -135.5t-166.5 -309.5q-20 -74 -41.5 -162t-36 -149t-31.5 -129.5t-31 -114.5t-31 -93.5t-34 -77t-38.5 -54t-46 -35t-54.5 -10.5q-39 0 -60.5 20t-21.5 54zM330 684q50 66 117 131.5t120 111t101.5 94.5t75 103t26.5 115q0 64 -63 64q-67 0 -143.5 -95.5 t-136.5 -235t-97 -288.5z" />
<glyph unicode="&#xff;" horiz-adv-x="1081" d="M-57 -293q0 84 48.5 145t141.5 98t210 56.5t273 26.5q31 184 64 284q-7 -10 -20 -26.5t-55 -59.5t-86 -75.5t-109 -59t-127 -26.5q-105 0 -165.5 54t-60.5 163q0 70 29.5 157.5t64.5 159t65.5 172.5t31.5 195q40 10 71 10q56 0 90.5 -31.5t34.5 -95.5q0 -62 -28 -144 t-62 -148t-62 -139t-28 -120q0 -74 74 -74q76 0 161 73.5t152 183.5t113.5 242.5t52.5 244.5q24 8 53 8q58 0 94.5 -31.5t36.5 -99.5q0 -63 -24.5 -153t-57 -173.5t-68 -210.5t-52.5 -247q264 92 395 385q26 -3 43.5 -26t17.5 -58q0 -61 -34.5 -132t-95.5 -136.5 t-154 -118.5t-199 -76q-53 -187 -200 -295.5t-349 -108.5q-125 0 -202.5 59.5t-77.5 147.5zM139 -274q0 -74 119 -74q106 0 197.5 66.5t124.5 158.5q-196 -6 -318.5 -45.5t-122.5 -105.5zM358 1321q0 72 43 113t105 41q53 0 85 -31.5t32 -85.5q0 -62 -40 -106t-106 -44 q-52 0 -85.5 31.5t-33.5 81.5zM764 1321q0 72 42.5 113t104.5 41q53 0 85 -31.5t32 -85.5q0 -62 -39.5 -106t-105.5 -44q-52 0 -85.5 31.5t-33.5 81.5z" />
<glyph unicode="&#x152;" horiz-adv-x="1984" d="M82 489q0 137 40.5 279.5t118.5 270.5t181.5 228.5t240 160t283.5 59.5q127 0 200.5 -44t94.5 -110q172 156 481 156q213 0 324 -79t111 -204q0 -64 -30 -103.5t-74.5 -51t-100.5 -4.5q20 31 20 88q0 90 -72.5 141t-203.5 51q-178 0 -284.5 -88.5t-106.5 -230.5 q0 -119 89.5 -185.5t278.5 -66.5q53 0 95 6.5t58 13.5l15 6q14 -14 14 -43q0 -62 -43 -99.5t-131 -37.5q-38 0 -117 8t-118 8q-167 0 -253.5 -72t-86.5 -198q0 -109 88.5 -177.5t257.5 -68.5q100 0 195 25.5t164 63.5t130 88t97.5 91t62.5 81q25 -3 40.5 -23t15.5 -55 q0 -47 -34.5 -105.5t-102 -118t-156 -108.5t-208 -80t-245.5 -31q-144 0 -252.5 40.5t-173.5 111.5q-177 -119 -389 -119q-257 0 -385.5 142t-128.5 384zM295 498q0 -178 84 -268.5t237 -90.5q150 0 281 94q-12 47 -12 101q0 147 93 251t257 138q-70 52 -109 122t-39 148 q0 146 82 264q-89 60 -215 60q-111 0 -214.5 -47.5t-182.5 -129t-139 -186t-91.5 -222.5t-31.5 -234z" />
<glyph unicode="&#x153;" horiz-adv-x="1478" d="M45 338q0 173 78.5 331t211.5 255.5t283 97.5q116 0 189 -53t94 -146q151 178 344 178q116 0 182 -57.5t66 -161.5q0 -84 -35 -158t-91 -128.5t-133.5 -100t-156 -75t-164.5 -50.5q16 -139 166 -139q83 0 169 33.5t153 85t116.5 103t79.5 98.5q24 -3 40 -23.5t16 -54.5 q0 -56 -50.5 -127t-130.5 -133.5t-193.5 -105t-225.5 -42.5q-230 0 -299 197q-152 -201 -375 -201q-156 0 -245 97t-89 280zM246 344q0 -103 42.5 -160t121.5 -57q75 0 143 52.5t113 132.5t71.5 173t26.5 177q0 200 -160 200q-94 0 -177 -72.5t-132 -192t-49 -253.5z M909 410q171 52 281 142.5t110 195.5q0 90 -88 90q-71 0 -139 -62.5t-112.5 -161.5t-51.5 -204z" />
<glyph unicode="&#x178;" horiz-adv-x="1548" d="M51 1040q0 200 131 330.5t336 130.5q112 0 196.5 -32.5t134 -90t73.5 -128t24 -154.5q0 -94 -35 -182.5t-84.5 -155.5t-99 -129t-84.5 -126t-35 -122q0 -61 35 -94t102 -33q87 0 170.5 45t146 117t108 154.5t67.5 164.5q97 367 137 480q70 196 154 247q38 23 84 23 q38 0 60 -20t22 -54q0 -59 -35 -155.5t-89 -218.5t-111.5 -263t-110 -331t-76.5 -380q141 47 233.5 147.5t155.5 240.5q26 -3 43.5 -26t17.5 -58q0 -62 -33 -132t-91.5 -136t-151.5 -119.5t-203 -77.5q-56 -188 -206.5 -297t-354.5 -109q-125 0 -202 59t-77 146 q0 84 49.5 145.5t144.5 99t213.5 57.5t276.5 28q45 239 54 274q-7 -10 -20 -26t-57.5 -56.5t-93.5 -72t-125 -57t-155 -25.5q-129 0 -215 73.5t-86 204.5q0 83 37.5 160t90.5 139.5t106.5 125.5t91 142.5t37.5 165.5q0 111 -61.5 177.5t-178.5 66.5q-114 0 -191 -70 t-77 -202q0 -85 51 -140t137 -55q26 0 48.5 6t31.5 12l10 5q8 -11 8 -27q0 -54 -49 -90.5t-119 -36.5q-78 0 -139 27.5t-97.5 73t-55.5 100t-19 114.5zM602 -279q0 -73 119 -73q107 0 198 67t125 160q-198 -8 -320 -47t-122 -107zM776 1737q0 72 43 112.5t105 40.5 q53 0 84.5 -31t31.5 -85q0 -62 -39.5 -106t-105.5 -44q-52 0 -85.5 31.5t-33.5 81.5zM1182 1737q0 72 42.5 112.5t104.5 40.5q53 0 85 -31t32 -85q0 -62 -40 -106t-106 -44q-52 0 -85 31.5t-33 81.5z" />
<glyph unicode="&#x2c6;" horiz-adv-x="1024" d="M262 1296q132 31 266 114t209 169q42 -109 139 -203.5t199 -120.5q-9 -47 -46 -76.5t-87 -29.5q-63 0 -134.5 47t-119.5 133q-62 -75 -144.5 -120.5t-144.5 -45.5q-54 0 -92 34.5t-45 98.5z" />
<glyph unicode="&#x2dc;" horiz-adv-x="1024" d="M205 1278q0 89 65 150t168 61q52 0 97.5 -17t78.5 -41t63.5 -48t65.5 -41t72 -17q52 0 85.5 31t33.5 78q0 17 -3 31.5t-6 20.5l-3 5q59 9 100 -21.5t41 -91.5q0 -100 -72.5 -169.5t-187.5 -69.5q-51 0 -97 18t-80 44t-66.5 52t-69.5 44t-74 18q-43 0 -68.5 -26.5 t-25.5 -69.5q0 -13 3 -26t6 -19l3 -7q-51 -9 -90 22t-39 89z" />
<glyph unicode="&#x2000;" horiz-adv-x="1011" />
<glyph unicode="&#x2001;" horiz-adv-x="2023" />
<glyph unicode="&#x2002;" horiz-adv-x="1011" />
<glyph unicode="&#x2003;" horiz-adv-x="2023" />
<glyph unicode="&#x2004;" horiz-adv-x="674" />
<glyph unicode="&#x2005;" horiz-adv-x="505" />
<glyph unicode="&#x2006;" horiz-adv-x="337" />
<glyph unicode="&#x2007;" horiz-adv-x="337" />
<glyph unicode="&#x2008;" horiz-adv-x="252" />
<glyph unicode="&#x2009;" horiz-adv-x="404" />
<glyph unicode="&#x200a;" horiz-adv-x="112" />
<glyph unicode="&#x2010;" horiz-adv-x="1011" d="M276 592q0 13 3 26.5t7 21.5l3 7q90 -20 188 -20q292 0 459 118q10 -5 19.5 -25t9.5 -44q0 -102 -117 -173t-326 -71q-118 0 -182 42.5t-64 117.5z" />
<glyph unicode="&#x2011;" horiz-adv-x="1011" d="M276 592q0 13 3 26.5t7 21.5l3 7q90 -20 188 -20q292 0 459 118q10 -5 19.5 -25t9.5 -44q0 -102 -117 -173t-326 -71q-118 0 -182 42.5t-64 117.5z" />
<glyph unicode="&#x2012;" horiz-adv-x="1011" d="M276 592q0 13 3 26.5t7 21.5l3 7q90 -20 188 -20q292 0 459 118q10 -5 19.5 -25t9.5 -44q0 -102 -117 -173t-326 -71q-118 0 -182 42.5t-64 117.5z" />
<glyph unicode="&#x2013;" d="M139 594q0 23 5.5 43t10.5 29l5 8q90 -39 223 -39q177 0 340 22t237 44l74 22q21 -18 21 -55q0 -60 -61.5 -107.5t-159 -75t-205 -41.5t-211.5 -14q-133 0 -206 46.5t-73 117.5z" />
<glyph unicode="&#x2014;" horiz-adv-x="1730" d="M139 600q0 23 5.5 41.5t10.5 25.5l5 7q168 -39 393 -39q189 0 369.5 9t303.5 22t218.5 26t141.5 22l46 9q21 -14 21 -49q0 -61 -99 -109t-258 -75.5t-337 -41.5t-357 -14q-228 0 -345.5 45t-117.5 121z" />
<glyph unicode="&#x2018;" horiz-adv-x="616" d="M326 1104q0 69 25 134t64.5 112t86.5 83t93 54t83 18q33 0 54 -15.5t26 -30.5l4 -15q-9 -4 -24.5 -11t-54.5 -34t-69 -58.5t-54.5 -84t-24.5 -111.5q0 -73 63 -111q-12 -31 -48 -57.5t-81 -26.5q-64 0 -103.5 40.5t-39.5 113.5z" />
<glyph unicode="&#x2019;" horiz-adv-x="618" d="M276 1012q9 4 24.5 11.5t55 34.5t69.5 58.5t54.5 84t24.5 110.5q0 78 -64 110q14 32 49.5 58t81.5 26q64 0 103 -39.5t39 -113.5q0 -85 -38 -163t-93 -128t-114.5 -79.5t-105.5 -29.5q-33 0 -54.5 15t-26.5 30z" />
<glyph unicode="&#x201a;" horiz-adv-x="618" d="M92 -223q9 4 24.5 11t54.5 34t69 58.5t54.5 84t24.5 111.5q0 72 -63 110q14 32 49.5 58t81.5 26q63 0 102 -40t39 -113q0 -86 -37.5 -164t-93 -128.5t-114.5 -80t-105 -29.5q-33 0 -54.5 15.5t-26.5 31.5z" />
<glyph unicode="&#x201c;" horiz-adv-x="999" d="M328 1106q0 85 36 163.5t89.5 129.5t111.5 81.5t105 30.5q33 0 54 -15.5t26 -30.5l4 -15q-9 -4 -23.5 -11.5t-52.5 -35.5t-67 -60t-52.5 -85t-23.5 -111q0 -79 63 -111q-14 -32 -49.5 -58t-81.5 -26q-63 0 -101 40.5t-38 113.5zM711 1092q0 86 37.5 164t92 128 t113.5 79.5t105 29.5q33 0 54.5 -15.5t26.5 -30.5l5 -15q-9 -4 -24.5 -11t-54.5 -34t-69 -58.5t-54.5 -84t-24.5 -111.5q0 -73 63 -111q-15 -32 -49 -58t-80 -26q-63 0 -102 40.5t-39 113.5z" />
<glyph unicode="&#x201d;" horiz-adv-x="999" d="M279 1014q9 4 24.5 11t54.5 34t69 58.5t54.5 84t24.5 111.5q0 72 -64 110q12 31 47 57.5t80 26.5q64 0 104 -40t40 -113q0 -86 -37.5 -164t-93 -128.5t-114.5 -80t-106 -29.5q-33 0 -53.5 15.5t-24.5 30.5zM668 995q9 4 24 11.5t53 35.5t67 60t53 85t24 111q0 79 -64 111 q12 31 48 57.5t81 26.5q63 0 102.5 -40.5t39.5 -113.5q0 -85 -36.5 -163.5t-90 -129.5t-111.5 -81.5t-104 -30.5q-21 0 -37.5 6.5t-25 15t-14.5 17.5t-7 15z" />
<glyph unicode="&#x201e;" horiz-adv-x="999" d="M92 -215q9 4 24.5 11.5t54.5 34.5t69 58.5t54.5 84t24.5 110.5q0 80 -63 111q15 32 49 58t80 26q64 0 102.5 -40t38.5 -114q0 -85 -37.5 -162.5t-92 -127.5t-113.5 -79.5t-105 -29.5q-33 0 -54.5 15t-26.5 29zM483 -233q9 4 23.5 11.5t52.5 35.5t67 60.5t52.5 85.5 t23.5 112q0 72 -63 110q14 32 49.5 58t81.5 26q63 0 101 -40.5t38 -112.5q0 -69 -24 -134.5t-62 -113.5t-83.5 -84.5t-90.5 -55t-82 -18.5q-33 0 -54 15t-25 30z" />
<glyph unicode="&#x2022;" horiz-adv-x="1011" d="M328 516q0 132 80 207.5t192 75.5q103 0 166 -62.5t63 -165.5q0 -112 -73.5 -192t-198.5 -80q-101 0 -165 61t-64 156z" />
<glyph unicode="&#x2026;" horiz-adv-x="1861" d="M250 90q0 72 42.5 113t102.5 41q54 0 86.5 -31.5t32.5 -85.5q0 -62 -39.5 -106t-107.5 -44q-51 0 -84 32t-33 81zM870 90q0 72 43 113t103 41q54 0 86.5 -31.5t32.5 -85.5q0 -62 -40 -106t-108 -44q-51 0 -84 32t-33 81zM1491 90q0 72 42.5 113t102.5 41q54 0 86.5 -31.5 t32.5 -85.5q0 -62 -39.5 -106t-107.5 -44q-51 0 -84 32t-33 81z" />
<glyph unicode="&#x202f;" horiz-adv-x="404" />
<glyph unicode="&#x2039;" horiz-adv-x="1032" d="M291 590q154 45 316.5 138.5t281.5 215.5q2 -1 6 -2.5t13.5 -8.5t16.5 -16t13 -25t6 -34q0 -63 -60 -132.5t-144 -123.5t-181 -94q78 -83 128 -173t50 -165q0 -40 -20 -75t-55 -48q-106 213 -336 451q-38 38 -35 92z" />
<glyph unicode="&#x203a;" horiz-adv-x="1032" d="M260 127q0 63 60 132.5t144 123.5t181 94q-78 83 -128 173t-50 165q0 40 20.5 75t55.5 48q106 -213 336 -451q37 -37 34 -92q-154 -45 -316.5 -138.5t-281.5 -215.5q-2 1 -6 2.5t-13.5 8.5t-16.5 16t-13 25t-6 34z" />
<glyph unicode="&#x205f;" horiz-adv-x="505" />
<glyph unicode="&#x20ac;" d="M31 408q0 83 194 116q3 35 25 119q-45 -4 -85.5 -9.5t-58.5 -9.5l-18 -3q-12 11 -12 36q0 46 61 79t168 48q87 176 230 285t319 109q136 0 208.5 -62.5t72.5 -181.5q0 -91 -45.5 -146t-110.5 -55q-26 0 -47 7.5t-29 14.5l-8 7q33 59 33 137q0 52 -26.5 79.5t-76.5 27.5 q-85 0 -159 -56.5t-129 -154.5q225 -12 225 -119q0 -16 -5 -30.5t-9 -21.5l-5 -6q-94 29 -272 33q-21 -75 -25 -106q283 -6 283 -119q0 -16 -4.5 -30.5t-8.5 -20.5l-5 -6q-99 28 -277 32q3 -121 62 -182t161 -61q126 0 235.5 82.5t154.5 193.5q28 -2 45.5 -26t17.5 -68 q0 -55 -39.5 -120t-104 -122t-159.5 -95t-195 -38q-195 0 -293.5 117t-103.5 311q-49 -4 -92 -9.5t-61 -9.5l-19 -3q-12 12 -12 37z" />
<glyph unicode="&#x2122;" horiz-adv-x="2480" d="M272 1339q0 68 43.5 106t106.5 38q21 0 39.5 -5.5t26.5 -11t8 -8.5q-6 -3 -14 -8.5t-22 -24.5t-14 -41q0 -69 78 -69q64 0 139.5 25.5t134 55.5t134 55.5t139.5 25.5q109 0 172.5 -55.5t63.5 -155.5q0 -99 -65.5 -164.5t-164.5 -65.5q-50 0 -85.5 34t-35.5 97 q39 -14 72 -14q46 0 75.5 24t29.5 68q0 41 -24.5 63.5t-70.5 22.5q-24 0 -50.5 -7.5t-48.5 -17.5t-24 -10q-26 -37 -51 -77.5t-67.5 -117t-68.5 -157.5t-26 -147q0 -67 35.5 -100t112.5 -33q71 0 138 29.5t121.5 76.5t111.5 121.5t101.5 148.5t96.5 174q59 111 147.5 179.5 t202.5 68.5q42 0 74.5 -14.5t48.5 -35.5t23.5 -41t7.5 -36q5 6 13.5 16t36.5 35t58.5 44t76.5 35t92 16q81 0 123 -41.5t42 -100.5q0 -75 -36 -163t-78.5 -155t-78.5 -148t-36 -144q0 -31 15 -46t40 -15q29 0 57.5 18t49.5 46.5t33.5 49t21.5 39.5q26 -2 48 -20.5t22 -57.5 q0 -45 -37.5 -99t-107 -95t-146.5 -41q-82 0 -130 51.5t-48 130.5q0 59 22 125.5t54 125.5t63.5 116.5t53.5 117.5t22 109q0 35 -39 35q-75 0 -143 -81t-121 -255q-28 -92 -49 -152t-47.5 -121t-51 -95.5t-55.5 -56t-66 -21.5q-32 0 -51.5 16.5t-19.5 42.5q0 51 37.5 142 t83 175.5t83 181t37.5 156.5q0 27 -9 40.5t-32 13.5q-78 0 -155 -144q-48 -88 -84 -149.5t-85.5 -134.5t-93 -122.5t-100.5 -99t-115.5 -78.5t-131 -47t-152.5 -18q-154 0 -225.5 75.5t-71.5 194.5q0 161 160 424q0 -2 -27.5 -11t-75 -18.5t-88.5 -9.5q-99 0 -154 47.5 t-55 124.5z" />
<glyph unicode="&#xe000;" horiz-adv-x="983" d="M0 0v983h983v-983h-983z" />
<glyph unicode="&#xfb01;" horiz-adv-x="1220" d="M-383 -313q0 78 53.5 134t128.5 56q21 0 39 -7.5t26 -14.5l7 -7q-7 -5 -16.5 -14.5t-26 -40t-16.5 -61.5q0 -84 77 -84q230 0 230 973q0 179 26 328t79.5 267.5t145 185t214.5 66.5q101 0 164 -72.5t63 -189.5q0 -78 -24 -153t-59 -133.5t-95 -125.5t-110.5 -113.5 t-127.5 -111.5q54 -4 78 -4q97 0 178 24t144 72.5t98.5 129t36.5 186.5q38 10 71 10q57 0 91 -35t34 -104q0 -71 -29 -165t-63 -169t-63 -157t-29 -132q0 -42 18.5 -61t57.5 -19q84 0 173.5 94t139.5 212q28 -3 46 -25.5t18 -60.5q0 -53 -35.5 -122t-93.5 -132t-142 -106.5 t-170 -43.5q-108 0 -166.5 54.5t-58.5 158.5q0 48 13.5 106.5t27.5 98t42 114.5q2 5 3 8t3 7t3 8q-69 -47 -168 -76.5t-213 -29.5q-68 0 -137 18q-5 -216 -29.5 -380.5t-75 -294.5t-137.5 -198.5t-208 -68.5q-112 0 -174 55t-62 146zM301 676q124 122 167 171 q165 190 165 339q0 106 -82 106q-100 0 -173.5 -166t-76.5 -450zM997 1352q0 72 42.5 112.5t103.5 40.5q54 0 86.5 -32.5t32.5 -86.5q0 -60 -40 -103.5t-108 -43.5q-51 0 -84 31t-33 82z" />
<glyph unicode="&#xfb02;" horiz-adv-x="1505" d="M-383 -313q0 78 53.5 134t128.5 56q21 0 39 -7.5t26 -14.5l7 -7q-7 -5 -16.5 -14.5t-26 -40t-16.5 -61.5q0 -84 77 -84q230 0 230 973q0 179 26 328t79.5 267.5t145 185t214.5 66.5q101 0 164 -72.5t63 -189.5q0 -58 -13.5 -115t-33 -103.5t-56 -98t-67.5 -88.5t-83 -87 t-87 -80.5t-94 -80.5q149 -117 330 -117q12 0 27 1l14 1q12 158 66.5 330t138 320.5t202.5 245t246 96.5q111 0 167 -61.5t56 -172.5q0 -124 -49 -248t-124 -221t-169 -182t-181 -140.5t-163 -87.5q11 -182 170 -182q84 0 168.5 32.5t151 84t115 102t81.5 99.5 q25 -5 40 -27.5t15 -58.5q0 -55 -50 -124.5t-130 -130.5t-194.5 -103t-229.5 -42q-147 0 -229.5 83t-97.5 235q-12 -4 -56 -4q-224 0 -389 122q-4 -167 -20.5 -302t-50 -252t-84 -195.5t-125 -123t-170.5 -44.5q-108 0 -172 56.5t-64 144.5zM301 676q124 122 167 171 q165 190 165 339q0 106 -82 106q-100 0 -173.5 -166t-76.5 -450zM944 487q127 66 240.5 176t184.5 243t71 251q0 42 -20 65t-56 23q-83 0 -175.5 -120.5t-159 -296t-85.5 -341.5z" />
</font>
</defs>
</svg>
